Galle.glyphspackage
{
glyphname = exclam;
layers = (
{
layerId = "F0029E70-666A-46B3-82F3-BCA8DA6C0FED";
shapes = (
{
closed = 1;
nodes = (
(36,446,o),
(41,457,o),
(54,457,cs),
(67,457,o),
(73,446,o),
(73,436,cs),
(73,115,ls),
(73,98,o),
(68,86,o),
(54,86,cs),
(41,86,o),
(36,98,o),
(36,115,cs),
(36,436,ls)
);
},
{
ref = period;
}
);
width = 109;
}
);
unicode = 33;
}
{
glyphname = numbersign;
layers = (
{
layerId = "F0029E70-666A-46B3-82F3-BCA8DA6C0FED";
shapes = (
{
closed = 1;
nodes = (
(159,220,l),
(147,183,o),
(136,150,o),
(125,114,c),
(237,114,l),
(248,150,o),
(259,184,o),
(270,220,c)
);
},
{
closed = 1;
nodes = (
(295,183,o),
(285,150,o),
(273,114,c),
(320,114,ls),
(331,114,o),
(339,106,o),
(339,96,cs),
(339,86,o),
(330,77,o),
(320,77,cs),
(262,77,l),
(254,54,o),
(247,29,o),
(238,2,cs),
(235,-8,o),
(228,-12,o),
(220,-12,cs),
(212,-12,o),
(204,-6,o),
(204,5,cs),
(204,7,o),
(204,10,o),
(205,12,cs),
(212,36,o),
(219,57,o),
(225,77,c),
(114,77,l),
(106,54,o),
(99,29,o),
(90,2,cs),
(87,-8,o),
(80,-12,o),
(72,-12,cs),
(64,-12,o),
(56,-6,o),
(56,5,cs),
(56,7,o),
(56,10,o),
(57,12,cs),
(64,36,o),
(71,57,o),
(77,77,c),
(35,77,ls),
(25,77,o),
(17,86,o),
(17,96,cs),
(17,106,o),
(25,114,o),
(35,114,cs),
(89,114,l),
(100,150,o),
(110,184,o),
(122,220,c),
(75,220,ls),
(65,220,o),
(56,228,o),
(56,238,cs),
(56,248,o),
(64,257,o),
(75,257,cs),
(133,257,l),
(141,280,o),
(148,304,o),
(157,331,cs),
(160,341,o),
(167,345,o),
(175,345,cs),
(183,345,o),
(191,339,o),
(191,328,cs),
(191,326,o),
(191,323,o),
(190,320,cs),
(183,298,o),
(177,277,o),
(170,257,c),
(281,257,l),
(289,280,o),
(296,304,o),
(305,331,cs),
(308,341,o),
(315,345,o),
(323,345,cs),
(331,345,o),
(340,339,o),
(340,328,cs),
(340,326,o),
(340,323,o),
(338,320,cs),
(331,298,o),
(325,277,o),
(319,257,c),
(360,257,ls),
(370,257,o),
(378,248,o),
(378,238,cs),
(378,228,o),
(370,220,o),
(360,220,cs),
(307,220,l)
);
}
);
width = 395;
}
);
unicode = 35;
}
{
glyphname = quotesingle;
layers = (
{
layerId = "F0029E70-666A-46B3-82F3-BCA8DA6C0FED";
shapes = (
{
closed = 1;
nodes = (
(73,481,o),
(64,467,o),
(53,456,c),
(43,468,o),
(33,481,o),
(33,500,cs),
(33,511,o),
(42,521,o),
(53,521,cs),
(64,521,o),
(73,511,o),
(73,500,cs)
);
}
);
width = 106;
}
);
unicode = 39;
}
{
glyphname = parenleft;
layers = (
{
layerId = "F0029E70-666A-46B3-82F3-BCA8DA6C0FED";
shapes = (
{
closed = 1;
nodes = (
(54,309,o),
(102,430,o),
(171,507,cs),
(175,512,o),
(177,519,o),
(177,524,cs),
(177,535,o),
(170,541,o),
(159,541,cs),
(154,541,o),
(147,538,o),
(143,533,cs),
(72,451,o),
(16,320,o),
(16,169,cs),
(16,19,o),
(72,-112,o),
(143,-195,cs),
(147,-199,o),
(154,-203,o),
(159,-203,cs),
(170,-203,o),
(177,-196,o),
(177,-186,cs),
(177,-180,o),
(175,-174,o),
(171,-169,cs),
(102,-92,o),
(54,30,o),
(54,169,cs)
);
},
{
closed = 1;
nodes = (
(54,309,o),
(102,430,o),
(171,507,cs),
(175,512,o),
(177,519,o),
(177,524,cs),
(177,535,o),
(170,541,o),
(159,541,cs),
(154,541,o),
(147,538,o),
(143,533,cs),
(72,451,o),
(16,320,o),
(16,169,cs),
(16,19,o),
(72,-112,o),
(143,-195,cs),
(147,-199,o),
(154,-203,o),
(159,-203,cs),
(170,-203,o),
(177,-196,o),
(177,-186,cs),
(177,-180,o),
(175,-174,o),
(171,-169,cs),
(102,-92,o),
(54,30,o),
(54,169,cs)
);
}
);
width = 192;
}
);
unicode = 40;
}
{
glyphname = parenright;
layers = (
{
layerId = "F0029E70-666A-46B3-82F3-BCA8DA6C0FED";
shapes = (
{
closed = 1;
nodes = (
(138,309,o),
(90,430,o),
(21,507,cs),
(17,512,o),
(15,519,o),
(15,524,cs),
(15,535,o),
(22,541,o),
(33,541,cs),
(38,541,o),
(45,538,o),
(49,533,cs),
(120,451,o),
(176,320,o),
(176,169,cs),
(176,19,o),
(120,-112,o),
(49,-195,cs),
(45,-199,o),
(38,-203,o),
(33,-203,cs),
(22,-203,o),
(15,-196,o),
(15,-186,cs),
(15,-180,o),
(17,-174,o),
(21,-169,cs),
(90,-92,o),
(138,30,o),
(138,169,cs)
);
},
{
closed = 1;
nodes = (
(138,309,o),
(90,430,o),
(21,507,cs),
(17,512,o),
(15,519,o),
(15,524,cs),
(15,535,o),
(22,541,o),
(33,541,cs),
(38,541,o),
(45,538,o),
(49,533,cs),
(120,451,o),
(176,320,o),
(176,169,cs),
(176,19,o),
(120,-112,o),
(49,-195,cs),
(45,-199,o),
(38,-203,o),
(33,-203,cs),
(22,-203,o),
(15,-196,o),
(15,-186,cs),
(15,-180,o),
(17,-174,o),
(21,-169,cs),
(90,-92,o),
(138,30,o),
(138,169,cs)
);
}
);
width = 192;
}
);
unicode = 41;
}
{
glyphname = asterisk;
layers = (
{
layerId = "F0029E70-666A-46B3-82F3-BCA8DA6C0FED";
shapes = (
{
closed = 1;
nodes = (
(138,308,ls),
(138,319,o),
(146,327,o),
(156,327,cs),
(166,327,o),
(175,318,o),
(175,308,cs),
(175,198,l),
(270,252,ls),
(280,257,o),
(291,254,o),
(296,246,cs),
(301,237,o),
(298,226,o),
(289,221,cs),
(193,165,l),
(289,110,ls),
(298,105,o),
(301,94,o),
(296,85,cs),
(291,77,o),
(280,73,o),
(270,78,cs),
(175,133,l),
(175,23,ls),
(175,13,o),
(166,4,o),
(156,4,cs),
(146,4,o),
(138,12,o),
(138,23,cs),
(138,133,l),
(42,78,ls),
(33,73,o),
(22,77,o),
(17,85,cs),
(12,94,o),
(14,105,o),
(23,110,cs),
(119,165,l),
(23,221,ls),
(14,226,o),
(12,237,o),
(17,246,cs),
(22,254,o),
(33,257,o),
(42,252,cs),
(138,198,l)
);
}
);
width = 312;
}
);
unicode = 42;
}
{
glyphname = plus;
layers = (
{
layerId = "F0029E70-666A-46B3-82F3-BCA8DA6C0FED";
shapes = (
{
closed = 1;
nodes = (
(209,190,ls),
(220,190,o),
(228,181,o),
(228,172,cs),
(228,162,o),
(219,153,o),
(209,153,cs),
(141,153,l),
(141,78,ls),
(141,69,o),
(132,60,o),
(122,60,cs),
(112,60,o),
(104,68,o),
(104,78,cs),
(104,153,l),
(35,153,ls),
(25,153,o),
(17,162,o),
(17,172,cs),
(17,181,o),
(25,190,o),
(35,190,cs),
(104,190,l),
(104,265,ls),
(104,275,o),
(112,283,o),
(122,283,cs),
(132,283,o),
(141,275,o),
(141,265,cs),
(141,190,l)
);
}
);
width = 244;
}
);
unicode = 43;
}
{
glyphname = comma;
layers = (
{
layerId = "F0029E70-666A-46B3-82F3-BCA8DA6C0FED";
shapes = (
{
closed = 1;
nodes = (
(73,-5,o),
(59,-38,o),
(38,-38,cs),
(36,-38,o),
(35,-37,o),
(35,-36,cs),
(35,-32,o),
(41,-23,o),
(41,-11,cs),
(41,-5,o),
(40,2,o),
(36,10,cs),
(35,12,o),
(33,17,o),
(33,20,cs),
(33,31,o),
(42,40,o),
(53,40,cs),
(66,40,o),
(73,28,o),
(73,14,cs)
);
}
);
width = 106;
}
);
unicode = 44;
}
{
glyphname = hyphen;
layers = (
{
layerId = "F0029E70-666A-46B3-82F3-BCA8DA6C0FED";
shapes = (
{
closed = 1;
nodes = (
(209,190,ls),
(220,190,o),
(228,181,o),
(228,172,cs),
(228,162,o),
(219,153,o),
(209,153,cs),
(35,153,ls),
(25,153,o),
(17,162,o),
(17,172,cs),
(17,181,o),
(25,190,o),
(35,190,cs)
);
}
);
width = 244;
}
);
unicode = 45;
}
{
glyphname = period;
layers = (
{
layerId = "F0029E70-666A-46B3-82F3-BCA8DA6C0FED";
shapes = (
{
closed = 1;
nodes = (
(33,32,o),
(43,42,o),
(54,42,cs),
(66,42,o),
(75,32,o),
(75,20,cs),
(75,9,o),
(66,-1,o),
(54,-1,cs),
(43,-1,o),
(33,9,o),
(33,20,cs)
);
}
);
width = 109;
}
);
unicode = 46;
}
{
glyphname = slash;
layers = (
{
layerId = "F0029E70-666A-46B3-82F3-BCA8DA6C0FED";
shapes = (
{
closed = 1;
nodes = (
(57,136,o),
(79,206,o),
(119,331,cs),
(126,355,o),
(160,346,o),
(152,320,cs),
(113,195,o),
(91,127,o),
(52,2,cs),
(44,-22,o),
(10,-14,o),
(19,12,cs)
);
}
);
width = 169;
}
);
unicode = 47;
}
{
glyphname = zero;
layers = (
{
layerId = "F0029E70-666A-46B3-82F3-BCA8DA6C0FED";
shapes = (
{
closed = 1;
nodes = (
(82,299,o),
(53,241,o),
(54,159,cs),
(55,75,o),
(84,34,o),
(151,34,cs),
(214,34,o),
(243,76,o),
(245,159,cs),
(247,238,o),
(220,299,o),
(151,299,cs)
);
},
{
closed = 1;
nodes = (
(236,336,o),
(284,269,o),
(282,159,cs),
(280,68,o),
(248,-3,o),
(151,-3,cs),
(58,-3,o),
(16,67,o),
(17,159,cs),
(17,269,o),
(63,336,o),
(151,336,cs)
);
}
);
width = 299;
}
);
unicode = 48;
}
{
glyphname = one;
layers = (
{
layerId = "F0029E70-666A-46B3-82F3-BCA8DA6C0FED";
shapes = (
{
closed = 1;
nodes = (
(23,260,o),
(17,268,o),
(17,277,cs),
(17,283,o),
(20,290,o),
(27,294,cs),
(49,309,o),
(61,317,o),
(73,325,cs),
(82,332,o),
(93,336,o),
(102,336,cs),
(114,336,o),
(123,329,o),
(123,309,cs),
(123,0,l),
(86,0,l),
(86,290,l),
(73,281,o),
(61,272,o),
(47,264,cs),
(43,262,o),
(38,260,o),
(34,260,cs)
);
}
);
width = 140;
}
);
unicode = 49;
}
{
glyphname = two;
layers = (
{
layerId = "F0029E70-666A-46B3-82F3-BCA8DA6C0FED";
shapes = (
{
closed = 1;
nodes = (
(264,123,o),
(104,88,o),
(81,37,c),
(298,37,ls),
(309,37,o),
(317,30,o),
(317,19,cs),
(317,6,o),
(309,0,o),
(298,0,cs),
(56,0,ls),
(36,0,o),
(27,11,o),
(27,24,cs),
(27,30,o),
(30,36,o),
(34,43,cs),
(83,122,o),
(228,148,o),
(228,232,cs),
(228,283,o),
(182,307,o),
(141,307,cs),
(105,307,o),
(75,288,o),
(56,263,cs),
(49,254,o),
(41,249,o),
(34,249,cs),
(23,249,o),
(17,258,o),
(17,267,cs),
(17,272,o),
(19,278,o),
(23,284,cs),
(43,314,o),
(84,344,o),
(140,344,cs),
(211,344,o),
(264,299,o),
(264,227,cs)
);
}
);
width = 333;
}
);
unicode = 50;
}
{
glyphname = three;
layers = (
{
layerId = "F0029E70-666A-46B3-82F3-BCA8DA6C0FED";
shapes = (
{
closed = 1;
nodes = (
(210,-129,o),
(252,-87,o),
(252,-24,cs),
(252,31,o),
(220,79,o),
(159,79,cs),
(149,79,o),
(115,80,o),
(111,80,cs),
(100,80,o),
(92,89,o),
(92,98,cs),
(92,107,o),
(99,117,o),
(111,117,cs),
(115,117,o),
(149,119,o),
(161,119,cs),
(211,119,o),
(236,154,o),
(236,193,cs),
(236,238,o),
(201,265,o),
(158,265,cs),
(120,265,o),
(86,250,o),
(71,207,cs),
(69,201,o),
(61,194,o),
(53,194,cs),
(40,194,o),
(33,206,o),
(36,221,cs),
(45,267,o),
(90,303,o),
(158,303,cs),
(222,303,o),
(273,262,o),
(273,191,cs),
(273,151,o),
(258,114,o),
(236,99,c),
(275,73,o),
(291,22,o),
(291,-25,cs),
(291,-104,o),
(242,-167,o),
(152,-167,cs),
(94,-167,o),
(48,-137,o),
(22,-107,cs),
(19,-103,o),
(17,-98,o),
(17,-93,cs),
(17,-83,o),
(23,-73,o),
(33,-73,cs),
(39,-73,o),
(46,-76,o),
(53,-83,cs),
(73,-104,o),
(104,-129,o),
(152,-129,cs)
);
}
);
width = 308;
}
);
unicode = 51;
}
{
glyphname = four;
layers = (
{
layerId = "F0029E70-666A-46B3-82F3-BCA8DA6C0FED";
shapes = (
{
closed = 1;
nodes = (
(256,174,o),
(255,37,o),
(255,37,c),
(255,37,o),
(300,37,o),
(312,37,cs),
(322,37,o),
(327,27,o),
(327,17,cs),
(327,8,o),
(321,0,o),
(312,0,cs),
(301,0,o),
(255,0,o),
(255,0,c),
(255,0,o),
(255,-84,o),
(255,-149,cs),
(255,-161,o),
(245,-168,o),
(236,-167,cs),
(227,-167,o),
(218,-160,o),
(218,-149,cs),
(218,-84,o),
(218,0,o),
(218,0,c),
(151,0,o),
(105,0,o),
(57,0,cs),
(17,0,o),
(8,30,o),
(24,52,cs),
(53,93,o),
(115,181,o),
(186,279,cs),
(214,317,o),
(255,313,o),
(255,263,cs)
);
},
{
closed = 1;
nodes = (
(218,257,l),
(59,37,l),
(218,37,l)
);
}
);
width = 344;
}
);
unicode = 52;
}
{
glyphname = five;
layers = (
{
layerId = "F0029E70-666A-46B3-82F3-BCA8DA6C0FED";
shapes = (
{
closed = 1;
nodes = (
(218,103,o),
(262,49,o),
(259,-31,cs),
(258,-86,o),
(214,-129,o),
(158,-129,cs),
(122,-129,o),
(81,-117,o),
(53,-83,cs),
(45,-73,o),
(33,-69,o),
(23,-78,cs),
(15,-84,o),
(15,-98,o),
(21,-105,cs),
(63,-151,o),
(103,-167,o),
(158,-167,cs),
(228,-167,o),
(297,-107,o),
(299,-31,cs),
(303,122,o),
(171,130,o),
(97,117,c),
(148,268,l),
(148,268,o),
(229,268,o),
(300,268,cs),
(312,268,o),
(319,277,o),
(319,285,cs),
(319,294,o),
(313,305,o),
(300,305,cs),
(147,305,ls),
(127,305,o),
(117,297,o),
(110,275,cs),
(96,230,o),
(80,179,o),
(61,122,cs),
(48,84,o),
(74,74,o),
(103,80,cs)
);
}
);
width = 335;
}
);
unicode = 53;
}
{
glyphname = six;
layers = (
{
layerId = "F0029E70-666A-46B3-82F3-BCA8DA6C0FED";
shapes = (
{
closed = 1;
nodes = (
(298,54,o),
(245,-4,o),
(158,-4,cs),
(68,-4,o),
(17,63,o),
(17,154,cs),
(17,299,o),
(118,453,o),
(268,497,cs),
(280,500,o),
(291,498,o),
(294,488,cs),
(296,480,o),
(295,468,o),
(281,464,cs),
(164,428,o),
(85,327,o),
(62,224,c),
(79,248,o),
(121,263,o),
(159,263,cs),
(231,263,o),
(295,218,o),
(297,130,cs)
);
},
{
closed = 1;
nodes = (
(58,77,o),
(98,33,o),
(158,33,cs),
(223,33,o),
(259,73,o),
(259,132,cs),
(259,182,o),
(218,226,o),
(158,226,cs),
(95,226,o),
(58,182,o),
(58,132,cs)
);
}
);
width = 313;
}
);
unicode = 54;
}
{
glyphname = seven;
layers = (
{
layerId = "F0029E70-666A-46B3-82F3-BCA8DA6C0FED";
shapes = (
{
closed = 1;
nodes = (
(58,-164,o),
(47,-167,o),
(38,-161,cs),
(28,-156,o),
(28,-144,o),
(34,-134,cs),
(85,-49,o),
(226,183,o),
(278,267,c),
(278,267,o),
(95,267,o),
(36,267,cs),
(27,267,o),
(17,274,o),
(17,285,cs),
(17,297,o),
(26,306,o),
(35,306,cs),
(281,306,ls),
(312,306,o),
(326,278,o),
(309,250,cs),
(265,177,o),
(111,-77,o),
(68,-149,cs)
);
}
);
width = 333;
}
);
unicode = 55;
}
{
glyphname = eight;
layers = (
{
layerId = "F0029E70-666A-46B3-82F3-BCA8DA6C0FED";
shapes = (
{
closed = 1;
nodes = (
(77,228,o),
(58,175,o),
(54,139,cs),
(48,77,o),
(90,29,o),
(161,29,cs),
(224,29,o),
(273,76,o),
(268,139,cs),
(265,178,o),
(243,230,o),
(162,249,c)
);
},
{
closed = 1;
nodes = (
(110,468,o),
(71,432,o),
(77,380,cs),
(82,340,o),
(117,301,o),
(162,294,c),
(209,304,o),
(239,341,o),
(245,380,cs),
(253,434,o),
(214,468,o),
(161,468,cs)
);
},
{
closed = 1;
nodes = (
(256,505,o),
(288,433,o),
(283,381,cs),
(279,347,o),
(267,304,o),
(205,273,c),
(279,241,o),
(301,199,o),
(305,142,cs),
(310,73,o),
(266,-8,o),
(161,-8,cs),
(59,-8,o),
(10,67,o),
(17,142,cs),
(22,195,o),
(44,239,o),
(118,273,c),
(61,297,o),
(44,345,o),
(40,380,cs),
(34,428,o),
(68,505,o),
(161,505,cs)
);
}
);
width = 322;
}
);
unicode = 56;
}
{
glyphname = nine;
layers = (
{
layerId = "F0029E70-666A-46B3-82F3-BCA8DA6C0FED";
shapes = (
{
closed = 1;
nodes = (
(15,279,o),
(68,337,o),
(156,337,cs),
(246,337,o),
(297,270,o),
(297,179,cs),
(297,35,o),
(196,-120,o),
(45,-164,cs),
(34,-167,o),
(23,-164,o),
(20,-155,cs),
(17,-147,o),
(19,-134,o),
(32,-130,cs),
(149,-95,o),
(229,6,o),
(251,110,c),
(234,85,o),
(193,70,o),
(154,70,cs),
(82,70,o),
(18,115,o),
(17,203,cs)
);
},
{
closed = 1;
nodes = (
(255,256,o),
(215,300,o),
(156,300,cs),
(90,300,o),
(55,260,o),
(55,201,cs),
(55,151,o),
(95,107,o),
(156,107,cs),
(218,107,o),
(255,151,o),
(255,201,cs)
);
}
);
width = 313;
}
);
unicode = 57;
}
{
glyphname = less;
layers = (
{
layerId = "F0029E70-666A-46B3-82F3-BCA8DA6C0FED";
shapes = (
{
closed = 1;
nodes = (
(31,149,ls),
(11,157,o),
(11,184,o),
(31,192,cs),
(31,192,o),
(169,246,o),
(243,274,cs),
(251,277,o),
(263,275,o),
(267,265,cs),
(271,255,o),
(264,244,o),
(256,241,cs),
(181,212,o),
(73,170,o),
(73,170,c),
(256,99,ls),
(266,95,o),
(271,86,o),
(267,75,cs),
(263,65,o),
(253,63,o),
(243,67,cs)
);
}
);
width = 285;
}
);
unicode = 60;
}
{
glyphname = equal;
layers = (
{
layerId = "F0029E70-666A-46B3-82F3-BCA8DA6C0FED";
shapes = (
{
closed = 1;
nodes = (
(209,131,ls),
(220,131,o),
(228,122,o),
(228,112,cs),
(228,102,o),
(219,94,o),
(209,94,cs),
(35,94,ls),
(25,94,o),
(17,102,o),
(17,112,cs),
(17,122,o),
(25,131,o),
(35,131,cs)
);
},
{
closed = 1;
nodes = (
(209,236,ls),
(220,236,o),
(228,227,o),
(228,217,cs),
(228,207,o),
(219,199,o),
(209,199,cs),
(35,199,ls),
(25,199,o),
(17,207,o),
(17,217,cs),
(17,227,o),
(25,236,o),
(35,236,cs)
);
}
);
width = 244;
}
);
unicode = 61;
}
{
glyphname = greater;
layers = (
{
layerId = "F0029E70-666A-46B3-82F3-BCA8DA6C0FED";
shapes = (
{
closed = 1;
nodes = (
(32,63,o),
(22,65,o),
(19,75,cs),
(14,86,o),
(19,95,o),
(30,99,cs),
(212,170,l),
(212,170,o),
(104,212,o),
(30,241,cs),
(22,244,o),
(14,255,o),
(19,265,cs),
(22,275,o),
(35,277,o),
(43,274,cs),
(116,246,o),
(254,192,o),
(254,192,cs),
(274,184,o),
(274,157,o),
(254,149,cs),
(43,67,ls)
);
}
);
width = 285;
}
);
unicode = 62;
}
{
glyphname = question;
layers = (
{
layerId = "F0029E70-666A-46B3-82F3-BCA8DA6C0FED";
shapes = (
{
closed = 1;
nodes = (
(258,390,o),
(221,425,o),
(170,425,cs),
(110,425,o),
(83,392,o),
(69,351,cs),
(65,339,o),
(59,334,o),
(50,334,cs),
(34,334,o),
(31,349,o),
(35,364,cs),
(45,415,o),
(90,462,o),
(170,462,cs),
(245,462,o),
(297,415,o),
(297,340,cs),
(297,230,o),
(164,200,o),
(164,113,cs),
(164,96,o),
(157,88,o),
(146,88,cs),
(133,88,o),
(126,97,o),
(126,113,cs),
(127,225,o),
(258,248,o),
(258,340,cs)
);
},
{
pos = (91,-1);
ref = period;
}
);
width = 330;
}
);
unicode = 63;
}
{
glyphname = H;
layers = (
{
layerId = "F0029E70-666A-46B3-82F3-BCA8DA6C0FED";
shapes = (
{
closed = 1;
nodes = (
(158,491,o),
(169,578,o),
(169,578,c),
(155,576,o),
(140,575,o),
(117,575,cs),
(104,575,o),
(89,576,o),
(79,579,c),
(86,560,o),
(88,465,o),
(88,428,cs),
(88,154,ls),
(88,86,o),
(77,-1,o),
(77,-1,c),
(90,1,o),
(98,2,o),
(119,2,cs),
(134,2,o),
(156,1,o),
(167,-2,c),
(160,21,o),
(158,132,o),
(158,171,cs),
(158,266,l),
(503,266,l),
(503,154,ls),
(503,86,o),
(492,-1,o),
(492,-1,c),
(506,1,o),
(521,2,o),
(544,2,cs),
(557,2,o),
(572,1,o),
(582,-2,c),
(575,21,o),
(573,132,o),
(573,171,cs),
(573,423,ls),
(573,498,o),
(584,578,o),
(584,578,c),
(571,576,o),
(563,575,o),
(542,575,cs),
(527,575,o),
(505,576,o),
(494,579,c),
(501,556,o),
(503,445,o),
(503,406,cs),
(503,312,l),
(158,312,l),
(158,423,ls)
);
}
);
width = 661;
}
);
unicode = 72;
}
{
glyphname = bracketleft;
layers = (
{
layerId = "F0029E70-666A-46B3-82F3-BCA8DA6C0FED";
shapes = (
{
closed = 1;
nodes = (
(17,512,ls),
(17,525,o),
(24,531,o),
(36,531,cs),
(98,531,ls),
(106,531,o),
(114,523,o),
(114,514,cs),
(114,504,o),
(107,497,o),
(98,497,cs),
(52,497,l),
(52,-164,l),
(98,-164,ls),
(107,-164,o),
(114,-170,o),
(114,-180,cs),
(114,-190,o),
(106,-198,o),
(98,-198,cs),
(36,-198,ls),
(24,-198,o),
(17,-191,o),
(17,-179,cs)
);
}
);
width = 130;
}
);
unicode = 91;
}
{
glyphname = backslash;
layers = (
{
layerId = "F0029E70-666A-46B3-82F3-BCA8DA6C0FED";
shapes = (
{
closed = 1;
nodes = (
(75,125,o),
(54,195,o),
(17,321,cs),
(9,346,o),
(43,358,o),
(50,331,cs),
(88,206,o),
(109,137,o),
(146,11,cs),
(153,-12,o),
(120,-23,o),
(112,1,cs)
);
}
);
width = 164;
}
);
unicode = 92;
}
{
glyphname = asciicircum;
layers = (
{
layerId = "F0029E70-666A-46B3-82F3-BCA8DA6C0FED";
shapes = (
{
closed = 1;
nodes = (
(231,438,o),
(224,430,o),
(215,430,cs),
(209,430,o),
(202,433,o),
(198,439,cs),
(123,540,l),
(123,540,o),
(77,477,o),
(49,439,cs),
(44,433,o),
(38,430,o),
(32,430,cs),
(23,430,o),
(16,438,o),
(16,446,cs),
(16,451,o),
(17,454,o),
(20,457,cs),
(52,500,o),
(103,570,o),
(103,570,cs),
(109,578,o),
(117,582,o),
(123,582,cs),
(130,582,o),
(137,578,o),
(143,570,cs),
(227,457,ls),
(230,454,o),
(231,451,o),
(231,446,cs)
);
}
);
width = 247;
}
);
unicode = 94;
}
{
glyphname = underscore;
layers = (
{
layerId = "F0029E70-666A-46B3-82F3-BCA8DA6C0FED";
shapes = (
{
closed = 1;
nodes = (
(320,37,ls),
(331,37,o),
(339,28,o),
(339,19,cs),
(339,9,o),
(330,0,o),
(320,0,cs),
(35,0,ls),
(25,0,o),
(17,9,o),
(17,19,cs),
(17,28,o),
(25,37,o),
(35,37,cs)
);
}
);
width = 356;
}
);
unicode = 95;
}
{
glyphname = a;
layers = (
{
layerId = "F0029E70-666A-46B3-82F3-BCA8DA6C0FED";
shapes = (
{
closed = 1;
nodes = (
(156,187,o),
(25,147,o),
(25,68,cs),
(25,32,o),
(49,-9,o),
(107,-9,cs),
(141,-9,o),
(190,9,o),
(243,50,c),
(247,29,o),
(257,6,o),
(268,-9,c),
(291,-8,o),
(312,1,o),
(335,15,c),
(311,49,o),
(306,69,o),
(306,125,cs),
(306,153,o),
(306,266,o),
(306,294,cs),
(306,349,o),
(285,394,o),
(209,394,cs),
(125,394,o),
(36,352,o),
(36,293,cs),
(36,279,o),
(44,266,o),
(58,266,cs),
(91,266,o),
(114,278,o),
(114,287,cs),
(114,300,o),
(109,310,o),
(109,319,cs),
(109,345,o),
(147,357,o),
(171,357,cs),
(248,357,o),
(243,297,o),
(243,278,cs),
(243,210,l)
);
},
{
closed = 1;
nodes = (
(201,57,o),
(168,36,o),
(127,36,cs),
(104,36,o),
(92,55,o),
(92,74,cs),
(92,126,o),
(196,163,o),
(243,175,c),
(243,86,l)
);
}
);
width = 360;
}
);
unicode = 97;
}
{
glyphname = g;
layers = (
{
layerId = "F0029E70-666A-46B3-82F3-BCA8DA6C0FED";
shapes = (
{
closed = 1;
nodes = (
(93,92,o),
(62,59,o),
(62,16,cs),
(62,-37,o),
(115,-49,o),
(138,-49,c),
(138,-51,l),
(71,-87,o),
(39,-122,o),
(39,-172,cs),
(39,-239,o),
(105,-257,o),
(180,-257,cs),
(335,-257,o),
(431,-169,o),
(431,-88,cs),
(431,-83,o),
(431,19,o),
(272,19,cs),
(234,19,o),
(198,10,o),
(166,10,cs),
(144,10,o),
(113,14,o),
(113,39,cs),
(113,82,o),
(192,104,o),
(217,108,cs),
(255,115,o),
(368,133,o),
(368,252,cs),
(368,278,o),
(362,299,o),
(353,318,c),
(359,318,o),
(416,318,o),
(429,318,cs),
(435,318,o),
(438,328,o),
(438,347,cs),
(438,356,o),
(437,368,o),
(432,368,cs),
(426,368,o),
(394,362,o),
(386,361,cs),
(369,359,o),
(356,359,o),
(348,359,cs),
(340,359,o),
(331,359,o),
(297,373,cs),
(246,395,o),
(222,396,o),
(206,396,cs),
(123,396,o),
(47,334,o),
(47,247,cs),
(47,227,o),
(53,143,o),
(140,116,c),
(140,114,l)
);
},
{
closed = 1;
nodes = (
(261,365,o),
(303,317,o),
(303,246,cs),
(303,173,o),
(259,139,o),
(209,139,cs),
(149,139,o),
(112,187,o),
(112,251,cs),
(112,304,o),
(138,365,o),
(208,365,cs)
);
},
{
closed = 1;
nodes = (
(326,-36,o),
(377,-59,o),
(377,-108,cs),
(377,-166,o),
(295,-216,o),
(210,-216,cs),
(129,-216,o),
(99,-193,o),
(99,-156,cs),
(99,-103,o),
(167,-36,o),
(277,-36,cs)
);
}
);
width = 448;
}
);
unicode = 103;
}
{
glyphname = k;
layers = (
{
layerId = "F0029E70-666A-46B3-82F3-BCA8DA6C0FED";
shapes = (
{
closed = 1;
nodes = (
(104,640,o),
(82,635,o),
(57,624,c),
(65,589,o),
(66,566,o),
(66,507,cs),
(66,120,ls),
(66,41,o),
(55,-2,o),
(55,-2,c),
(67,0,o),
(78,1,o),
(97,1,cs),
(110,1,o),
(128,0,o),
(138,-3,c),
(131,20,o),
(129,81,o),
(129,120,cs),
(129,641,l)
);
},
{
closed = 1;
nodes = (
(278,380,o),
(274,344,o),
(248,317,cs),
(228,296,o),
(164,239,o),
(110,216,c),
(113,209,o),
(121,201,o),
(130,193,cs),
(189,135,o),
(240,74,o),
(302,0,c),
(400,0,l),
(320,65,o),
(264,137,o),
(179,233,c),
(172,208,l),
(245,263,o),
(328,330,o),
(386,380,c),
(351,377,o),
(314,377,o),
(278,380,c)
);
}
);
width = 390;
}
);
unicode = 107;
}
{
export = 0;
glyphname = m;
layers = (
{
layerId = "F0029E70-666A-46B3-82F3-BCA8DA6C0FED";
shapes = (
{
closed = 1;
nodes = (
(384,346,o),
(348,394,o),
(278,394,cs),
(231,394,o),
(187,376,o),
(134,336,c),
(134,394,l),
(109,393,o),
(87,388,o),
(62,377,c),
(70,342,o),
(71,319,o),
(71,260,cs),
(71,119,ls),
(71,40,o),
(60,-3,o),
(60,-3,c),
(72,-1,o),
(83,0,o),
(102,0,cs),
(115,0,o),
(133,-1,o),
(143,-4,c),
(136,19,o),
(134,80,o),
(134,119,cs),
(134,294,l),
(184,334,o),
(220,350,o),
(254,350,cs),
(277,350,o),
(299,336,o),
(310,313,cs),
(323,285,o),
(321,222,o),
(321,181,cs),
(321,119,ls),
(321,40,o),
(310,-3,o),
(310,-3,c),
(322,-1,o),
(333,0,o),
(352,0,cs),
(365,0,o),
(383,-1,o),
(393,-4,c),
(386,19,o),
(384,80,o),
(384,119,cs),
(384,292,ls)
);
},
{
closed = 1;
nodes = (
(634,346,o),
(598,394,o),
(528,394,cs),
(474,394,o),
(428,370,o),
(375,330,c),
(382,293,l),
(432,333,o),
(470,350,o),
(504,350,cs),
(527,350,o),
(549,336,o),
(560,313,cs),
(573,285,o),
(571,222,o),
(571,181,cs),
(571,119,ls),
(571,40,o),
(560,-3,o),
(560,-3,c),
(572,-1,o),
(583,0,o),
(602,0,cs),
(615,0,o),
(633,-1,o),
(643,-4,c),
(636,19,o),
(634,80,o),
(634,119,cs),
(634,292,ls)
);
}
);
width = 693;
}
);
unicode = 109;
}
{
export = 0;
glyphname = n;
layers = (
{
layerId = "F0029E70-666A-46B3-82F3-BCA8DA6C0FED";
shapes = (
{
closed = 1;
nodes = (
(384,346,o),
(348,394,o),
(278,394,cs),
(231,394,o),
(187,376,o),
(134,336,c),
(134,394,l),
(107,393,o),
(84,388,o),
(57,377,c),
(68,332,o),
(71,289,o),
(71,210,cs),
(71,129,ls),
(71,50,o),
(60,-3,o),
(60,-3,c),
(72,-1,o),
(83,0,o),
(102,0,cs),
(115,0,o),
(133,-1,o),
(143,-4,c),
(136,19,o),
(134,90,o),
(134,129,cs),
(134,294,l),
(184,334,o),
(220,350,o),
(254,350,cs),
(277,350,o),
(299,336,o),
(310,313,cs),
(323,285,o),
(321,222,o),
(321,181,cs),
(321,129,ls),
(321,50,o),
(310,-3,o),
(310,-3,c),
(322,-1,o),
(333,0,o),
(352,0,cs),
(365,0,o),
(383,-1,o),
(393,-4,c),
(386,19,o),
(384,90,o),
(384,129,cs),
(384,292,ls)
);
}
);
width = 443;
}
);
unicode = 110;
}
{
glyphname = p;
layers = (
{
layerId = "F0029E70-666A-46B3-82F3-BCA8DA6C0FED";
shapes = (
{
closed = 1;
nodes = (
(102,393,o),
(79,388,o),
(52,377,c),
(63,332,o),
(66,289,o),
(66,210,cs),
(66,-127,ls),
(66,-206,o),
(55,-249,o),
(55,-249,c),
(67,-247,o),
(78,-246,o),
(97,-246,cs),
(110,-246,o),
(128,-247,o),
(138,-250,c),
(131,-227,o),
(129,-166,o),
(129,-127,cs),
(129,394,l)
);
},
{
closed = 1;
nodes = (
(114,5,o),
(170,-9,o),
(221,-9,cs),
(343,-9,o),
(439,73,o),
(439,210,cs),
(439,315,o),
(363,397,o),
(260,397,cs),
(188,397,o),
(127,344,o),
(109,320,c),
(85,67,l)
);
},
{
closed = 1;
nodes = (
(146,316,o),
(177,347,o),
(240,347,cs),
(321,347,o),
(369,287,o),
(369,189,cs),
(369,78,o),
(312,27,o),
(237,27,cs),
(184,27,o),
(129,57,o),
(129,108,cs),
(129,300,l)
);
}
);
width = 443;
}
);
unicode = 112;
}
{
glyphname = braceleft;
layers = (
{
layerId = "F0029E70-666A-46B3-82F3-BCA8DA6C0FED";
shapes = (
{
closed = 1;
nodes = (
(69,-191,o),
(77,-198,o),
(88,-198,cs),
(151,-198,ls),
(159,-198,o),
(166,-190,o),
(166,-180,cs),
(166,-170,o),
(160,-164,o),
(151,-164,cs),
(104,-164,l),
(104,497,l),
(151,497,ls),
(160,497,o),
(166,504,o),
(166,514,cs),
(166,523,o),
(159,531,o),
(151,531,cs),
(88,531,ls),
(77,531,o),
(69,525,o),
(69,512,cs),
(69,185,l),
(35,185,ls),
(23,185,o),
(17,176,o),
(17,166,cs),
(17,156,o),
(23,148,o),
(35,148,cs),
(69,148,l),
(69,-179,ls)
);
}
);
width = 183;
}
);
unicode = 123;
}
{
glyphname = bar;
layers = (
{
layerId = "F0029E70-666A-46B3-82F3-BCA8DA6C0FED";
shapes = (
{
closed = 1;
nodes = (
(17,444,ls),
(17,454,o),
(25,462,o),
(35,462,cs),
(45,462,o),
(54,454,o),
(54,444,cs),
(54,23,ls),
(54,13,o),
(45,4,o),
(35,4,cs),
(25,4,o),
(17,12,o),
(17,23,cs)
);
}
);
width = 70;
}
);
unicode = 124;
}
{
glyphname = braceright;
layers = (
{
layerId = "F0029E70-666A-46B3-82F3-BCA8DA6C0FED";
shapes = (
{
closed = 1;
nodes = (
(114,-191,o),
(106,-198,o),
(94,-198,cs),
(32,-198,ls),
(24,-198,o),
(17,-190,o),
(17,-180,cs),
(17,-170,o),
(23,-164,o),
(32,-164,cs),
(78,-164,l),
(78,497,l),
(32,497,ls),
(23,497,o),
(17,504,o),
(17,514,cs),
(17,523,o),
(24,531,o),
(32,531,cs),
(94,531,ls),
(106,531,o),
(114,525,o),
(114,512,cs),
(114,185,l),
(148,185,ls),
(160,185,o),
(166,176,o),
(166,166,cs),
(166,156,o),
(160,148,o),
(148,148,cs),
(114,148,l),
(114,-179,ls)
);
}
);
width = 183;
}
);
unicode = 125;
}
{
glyphname = asciitilde;
layers = (
{
layerId = "F0029E70-666A-46B3-82F3-BCA8DA6C0FED";
shapes = (
{
closed = 1;
nodes = (
(294,179,o),
(323,157,o),
(367,157,cs),
(412,157,o),
(432,173,o),
(467,201,cs),
(475,206,o),
(488,207,o),
(494,198,cs),
(500,190,o),
(496,178,o),
(489,172,cs),
(463,148,o),
(423,120,o),
(367,120,cs),
(302,120,o),
(277,147,o),
(246,172,cs),
(220,193,o),
(190,215,o),
(146,215,cs),
(102,215,o),
(81,198,o),
(46,171,cs),
(39,165,o),
(26,165,o),
(20,173,cs),
(14,182,o),
(17,193,o),
(25,200,cs),
(51,223,o),
(90,252,o),
(146,252,cs),
(211,252,o),
(236,225,o),
(267,200,cs)
);
}
);
width = 514;
}
);
unicode = 126;
}
{
color = 0;
glyphname = tmKa;
layers = (
{
anchors = (
{
name = "Anchor-0";
pos = (328,476);
}
);
guides = (
{
pos = (731,122);
},
{
pos = (803,500);
}
);
layerId = "F0029E70-666A-46B3-82F3-BCA8DA6C0FED";
shapes = (
{
closed = 1;
nodes = (
(245,465,ls),
(258,487,o),
(278,500,o),
(304,500,cs),
(463,500,ls),
(519,500,o),
(554,483,o),
(570,454,cs),
(574,447,o),
(580,430,o),
(566,422,cs),
(554,415,o),
(542,416,o),
(533,427,cs),
(520,443,o),
(506,453,o),
(460,453,c),
(415,361,l),
(440,361,o),
(525,338,o),
(525,246,cs),
(525,156,o),
(438,111,o),
(356,122,cs),
(341,124,o),
(335,138,o),
(338,150,cs),
(341,160,o),
(350,168,o),
(360,167,cs),
(411,160,o),
(479,177,o),
(479,243,cs),
(479,291,o),
(439,314,o),
(396,314,c),
(346,203,o),
(306,122,o),
(185,122,cs),
(111,122,o),
(46,176,o),
(46,238,cs),
(46,287,o),
(81,365,o),
(186,365,c)
);
},
{
closed = 1;
nodes = (
(237,367,o),
(243,365,o),
(251,365,cs),
(368,361,l),
(414,453,l),
(306,453,ls),
(290,453,o),
(278,439,o),
(274,432,cs),
(242,376,ls)
);
},
{
closed = 1;
nodes = (
(109,318,o),
(91,267,o),
(91,242,cs),
(91,203,o),
(129,167,o),
(188,167,cs),
(287,167,o),
(310,242,o),
(347,311,cs),
(351,319,o),
(349,318,o),
(338,318,cs),
(334,318,o),
(246,318,o),
(227,318,cs),
(217,318,o),
(213,314,o),
(209,305,cs),
(177,237,ls),
(171,224,o),
(157,218,o),
(143,224,cs),
(134,228,o),
(127,240,o),
(133,252,cs),
(166,318,l)
);
}
);
width = 568;
}
);
unicode = 2965;
}
{
color = 0;
glyphname = tmTa;
layers = (
{
anchors = (
{
name = "Anchor-0";
pos = (301,476);
},
{
name = "Anchor-3";
pos = (309,355);
}
);
layerId = "F0029E70-666A-46B3-82F3-BCA8DA6C0FED";
shapes = (
{
closed = 1;
nodes = (
(585,485,ls),
(589,494,o),
(594,500,o),
(604,500,cs),
(803,500,ls),
(859,500,o),
(894,483,o),
(910,454,cs),
(914,447,o),
(920,430,o),
(906,422,cs),
(894,415,o),
(882,416,o),
(873,427,cs),
(860,443,o),
(846,453,o),
(800,453,c),
(764,361,l),
(847,357,o),
(923,306,o),
(923,206,cs),
(923,27,o),
(746,-199,o),
(414,-199,cs),
(197,-199,o),
(30,-62,o),
(30,108,cs),
(30,358,o),
(266,500,o),
(526,500,cs),
(542,500,o),
(546,488,o),
(545,477,cs),
(544,464,o),
(535,454,o),
(526,454,cs),
(305,454,o),
(76,339,o),
(76,108,cs),
(76,-24,o),
(215,-154,o),
(415,-154,cs),
(683,-154,o),
(877,32,o),
(877,203,cs),
(877,250,o),
(832,314,o),
(746,314,c),
(704,203,o),
(636,122,o),
(515,122,cs),
(431,122,o),
(368,168,o),
(368,230,cs),
(368,298,o),
(421,365,o),
(526,365,c)
);
},
{
closed = 1;
nodes = (
(578,367,o),
(583,365,o),
(591,365,cs),
(717,361,l),
(754,453,l),
(618,453,l),
(582,376,ls)
);
},
{
closed = 1;
nodes = (
(449,318,o),
(415,278,o),
(415,234,cs),
(415,195,o),
(459,167,o),
(518,167,cs),
(617,167,o),
(668,242,o),
(697,311,cs),
(700,318,o),
(699,318,o),
(688,318,cs),
(684,318,o),
(586,318,o),
(567,318,cs),
(557,318,o),
(553,314,o),
(549,305,cs),
(517,237,ls),
(511,224,o),
(497,217,o),
(483,224,cs),
(474,228,o),
(467,240,o),
(473,252,cs),
(506,318,l)
);
}
);
width = 953;
}
);
unicode = 2980;
}
{
glyphname = anusvara;
layers = (
{
layerId = "F0029E70-666A-46B3-82F3-BCA8DA6C0FED";
shapes = (
{
closed = 1;
nodes = (
(236,48,o),
(187,-2,o),
(126,-2,cs),
(66,-2,o),
(17,48,o),
(17,109,cs),
(17,169,o),
(66,218,o),
(126,218,cs),
(187,218,o),
(236,169,o),
(236,109,cs)
);
},
{
closed = 1;
nodes = (
(50,65,o),
(85,31,o),
(126,31,cs),
(169,31,o),
(203,65,o),
(203,109,cs),
(203,150,o),
(169,185,o),
(126,185,cs),
(85,185,o),
(50,150,o),
(50,109,cs)
);
}
);
width = 253;
}
);
unicode = 3458;
}
{
glyphname = visarga;
layers = (
{
layerId = "F0029E70-666A-46B3-82F3-BCA8DA6C0FED";
shapes = (
{
closed = 1;
nodes = (
(151,30,o),
(121,0,o),
(83,0,cs),
(47,0,o),
(17,30,o),
(17,67,cs),
(17,104,o),
(47,135,o),
(83,135,cs),
(121,135,o),
(151,104,o),
(151,67,cs)
);
},
{
closed = 1;
nodes = (
(49,46,o),
(64,31,o),
(83,31,cs),
(104,31,o),
(119,46,o),
(119,67,cs),
(119,87,o),
(104,102,o),
(83,102,cs),
(64,102,o),
(49,87,o),
(49,67,cs)
);
},
{
closed = 1;
nodes = (
(151,201,o),
(121,171,o),
(83,171,cs),
(47,171,o),
(17,201,o),
(17,238,cs),
(17,275,o),
(47,306,o),
(83,306,cs),
(121,306,o),
(151,275,o),
(151,238,cs)
);
},
{
closed = 1;
nodes = (
(49,217,o),
(64,202,o),
(83,202,cs),
(104,202,o),
(119,217,o),
(119,238,cs),
(119,258,o),
(104,273,o),
(83,273,cs),
(64,273,o),
(49,258,o),
(49,238,cs)
);
}
);
width = 168;
}
);
unicode = 3459;
}
{
glyphname = sinA;
layers = (
{
layerId = "F0029E70-666A-46B3-82F3-BCA8DA6C0FED";
shapes = (
{
closed = 1;
nodes = (
(219,236,o),
(204,266,o),
(138,266,cs),
(100,266,o),
(49,235,o),
(49,157,cs),
(49,64,o),
(107,-1,o),
(212,-1,cs),
(276,-1,o),
(315,32,o),
(338,59,c),
(338,99,o),
(338,132,o),
(338,160,cs),
(338,199,o),
(338,230,o),
(337,257,c),
(327,246,o),
(310,236,o),
(280,236,cs)
);
},
{
closed = 1;
nodes = (
(372,301,o),
(377,300,o),
(383,300,cs),
(409,300,o),
(421,315,o),
(444,315,cs),
(466,315,o),
(493,298,o),
(493,259,cs),
(493,210,o),
(460,172,o),
(416,172,cs),
(394,172,o),
(378,179,o),
(365,188,c),
(365,130,ls),
(365,20,o),
(375,-68,o),
(375,-178,cs),
(375,-205,o),
(341,-205,o),
(341,-179,cs),
(339,-104,o),
(340,-58,o),
(339,17,c),
(324,-1,o),
(286,-31,o),
(216,-31,cs),
(89,-31,o),
(17,44,o),
(17,160,cs),
(17,256,o),
(88,298,o),
(146,298,cs),
(162,298,o),
(188,291,o),
(202,281,c),
(198,288,o),
(194,302,o),
(194,310,cs),
(194,329,o),
(208,339,o),
(227,339,cs),
(248,339,o),
(263,326,o),
(292,326,cs),
(315,326,o),
(314,292,o),
(290,292,cs),
(270,292,o),
(254,306,o),
(239,306,cs),
(231,306,o),
(228,302,o),
(228,298,cs),
(228,273,o),
(260,265,o),
(285,265,cs),
(313,265,o),
(332,279,o),
(334,312,cs),
(336,338,o),
(370,338,o),
(367,305,c)
);
},
{
closed = 1;
nodes = (
(415,285,o),
(406,273,o),
(386,273,cs),
(377,273,o),
(371,275,o),
(367,278,c),
(366,259,o),
(366,239,o),
(366,219,c),
(375,210,o),
(391,200,o),
(412,200,cs),
(443,200,o),
(462,223,o),
(462,254,cs),
(462,278,o),
(449,285,o),
(435,285,cs)
);
}
);
width = 510;
}
);
unicode = 3461;
}
{
glyphname = sinI;
layers = (
{
layerId = "F0029E70-666A-46B3-82F3-BCA8DA6C0FED";
shapes = (
{
closed = 1;
nodes = (
(152,-58,o),
(164,-59,o),
(175,-59,cs),
(303,-59,o),
(393,31,o),
(393,149,cs),
(393,249,o),
(328,323,o),
(212,323,cs),
(132,323,o),
(49,272,o),
(49,169,cs),
(49,97,o),
(94,33,o),
(175,33,cs),
(237,33,o),
(274,80,o),
(274,122,cs),
(274,177,o),
(248,197,o),
(207,197,cs),
(199,197,o),
(190,193,o),
(185,186,c),
(194,186,o),
(200,176,o),
(200,166,cs),
(200,155,o),
(193,143,o),
(175,143,cs),
(158,143,o),
(147,159,o),
(147,176,cs),
(147,207,o),
(179,227,o),
(207,227,cs),
(277,227,o),
(307,184,o),
(307,120,cs),
(307,65,o),
(263,1,o),
(177,1,cs),
(75,1,o),
(17,77,o),
(17,170,cs),
(17,287,o),
(105,354,o),
(212,354,cs),
(348,354,o),
(423,262,o),
(423,150,cs),
(423,51,o),
(373,-61,o),
(228,-87,c),
(268,-109,o),
(275,-138,o),
(275,-183,cs),
(275,-209,o),
(243,-208,o),
(243,-181,cs),
(243,-137,o),
(224,-100,o),
(141,-88,cs),
(118,-85,o),
(119,-58,o),
(140,-58,cs)
);
}
);
width = 440;
}
);
unicode = 3465;
}
{
glyphname = sinIi;
layers = (
{
layerId = "F0029E70-666A-46B3-82F3-BCA8DA6C0FED";
shapes = (
{
closed = 1;
nodes = (
(377,385,o),
(347,354,o),
(309,354,cs),
(273,354,o),
(243,385,o),
(243,421,cs),
(243,459,o),
(273,489,o),
(309,489,cs),
(347,489,o),
(377,459,o),
(377,421,cs)
);
},
{
closed = 1;
nodes = (
(275,401,o),
(290,385,o),
(309,385,cs),
(330,385,o),
(345,401,o),
(345,421,cs),
(345,441,o),
(330,457,o),
(309,457,cs),
(290,457,o),
(275,441,o),
(275,421,cs)
);
},
{
closed = 1;
nodes = (
(164,465,o),
(133,435,o),
(96,435,cs),
(59,435,o),
(29,465,o),
(29,501,cs),
(29,539,o),
(59,569,o),
(96,569,cs),
(133,569,o),
(164,539,o),
(164,501,cs)
);
},
{
closed = 1;
nodes = (
(61,481,o),
(77,466,o),
(96,466,cs),
(116,466,o),
(131,481,o),
(131,501,cs),
(131,522,o),
(116,537,o),
(96,537,cs),
(77,537,o),
(61,522,o),
(61,501,cs)
);
},
{
closed = 1;
nodes = (
(295,-7,o),
(373,73,o),
(373,174,cs),
(373,276,o),
(301,349,o),
(196,349,cs),
(147,349,o),
(114,331,o),
(96,312,c),
(129,363,o),
(211,464,o),
(313,552,cs),
(332,568,o),
(311,591,o),
(293,575,cs),
(196,488,o),
(115,393,o),
(73,331,cs),
(38,277,o),
(17,235,o),
(17,170,cs),
(17,72,o),
(96,-7,o),
(196,-7,cs)
);
},
{
closed = 1;
nodes = (
(114,25,o),
(49,89,o),
(49,172,cs),
(49,251,o),
(111,318,o),
(196,318,cs),
(278,318,o),
(341,257,o),
(341,173,cs),
(341,90,o),
(278,25,o),
(196,25,cs)
);
}
);
width = 394;
}
);
unicode = 3466;
}
{
glyphname = sinU;
layers = (
{
layerId = "F0029E70-666A-46B3-82F3-BCA8DA6C0FED";
shapes = (
{
closed = 1;
nodes = (
(199,298,o),
(231,291,o),
(246,281,c),
(241,288,o),
(237,302,o),
(237,310,cs),
(237,329,o),
(251,339,o),
(270,339,cs),
(291,339,o),
(306,326,o),
(335,326,cs),
(358,326,o),
(358,292,o),
(333,292,cs),
(313,292,o),
(298,306,o),
(282,306,cs),
(275,306,o),
(272,302,o),
(272,298,cs),
(272,273,o),
(300,264,o),
(323,264,cs),
(330,264,o),
(338,266,o),
(344,266,cs),
(358,267,o),
(361,250,o),
(351,242,cs),
(345,238,o),
(336,236,o),
(323,236,cs),
(262,236,o),
(248,266,o),
(182,266,cs),
(95,266,o),
(52,204,o),
(51,101,cs),
(51,-23,o),
(135,-117,o),
(264,-117,cs),
(302,-117,o),
(336,-112,o),
(361,-104,cs),
(387,-97,o),
(396,-127,o),
(368,-136,cs),
(348,-142,o),
(304,-149,o),
(264,-149,cs),
(108,-149,o),
(18,-30,o),
(17,101,cs),
(15,220,o),
(75,298,o),
(182,298,cs)
);
}
);
width = 401;
}
);
unicode = 3467;
}
{
glyphname = sinvocalicR;
layers = (
{
layerId = "F0029E70-666A-46B3-82F3-BCA8DA6C0FED";
shapes = (
{
closed = 1;
nodes = (
(238,25,o),
(195,-3,o),
(142,-3,cs),
(75,-3,o),
(17,41,o),
(17,127,cs),
(17,204,o),
(61,257,o),
(131,257,c),
(122,264,o),
(114,277,o),
(114,293,cs),
(114,313,o),
(130,332,o),
(161,332,cs),
(193,332,o),
(202,313,o),
(222,313,cs),
(241,313,o),
(242,285,o),
(222,285,cs),
(195,285,o),
(187,306,o),
(162,306,cs),
(152,306,o),
(142,299,o),
(142,289,cs),
(142,264,o),
(167,261,o),
(190,252,cs),
(212,244,o),
(203,217,o),
(181,225,cs),
(167,230,o),
(158,231,o),
(136,231,cs),
(82,231,o),
(46,186,o),
(46,127,cs),
(46,63,o),
(91,27,o),
(142,27,cs),
(203,27,o),
(238,67,o),
(238,127,cs),
(238,151,o),
(267,151,o),
(267,127,cs),
(267,67,o),
(301,27,o),
(362,27,cs),
(414,27,o),
(460,64,o),
(460,128,cs),
(460,187,o),
(423,233,o),
(368,233,cs),
(343,233,o),
(338,227,o),
(320,224,cs),
(298,221,o),
(295,249,o),
(317,254,cs),
(344,260,o),
(359,257,o),
(359,288,cs),
(359,293,o),
(358,300,o),
(355,308,cs),
(347,329,o),
(375,336,o),
(383,315,cs),
(386,307,o),
(388,298,o),
(388,288,cs),
(388,277,o),
(385,265,o),
(378,258,c),
(449,258,o),
(490,197,o),
(490,128,cs),
(490,43,o),
(429,-3,o),
(362,-3,cs),
(314,-3,o),
(263,23,o),
(252,64,c)
);
},
{
pos = (479,0);
ref = sinMatraR;
}
);
width = 698;
}
);
unicode = 3469;
}
{
glyphname = sinvocalicL;
layers = (
{
layerId = "F0029E70-666A-46B3-82F3-BCA8DA6C0FED";
shapes = (
{
closed = 1;
nodes = (
(17,263,o),
(84,335,o),
(194,335,cs),
(240,335,o),
(250,317,o),
(267,317,cs),
(283,317,o),
(283,290,o),
(267,290,cs),
(245,290,o),
(237,306,o),
(218,306,cs),
(207,306,o),
(199,301,o),
(199,291,cs),
(199,269,o),
(218,267,o),
(238,264,cs),
(256,260,o),
(254,236,o),
(237,236,cs),
(226,236,o),
(210,238,o),
(198,238,cs),
(157,238,o),
(134,197,o),
(134,146,cs),
(134,67,o),
(205,23,o),
(296,23,cs),
(388,23,o),
(461,67,o),
(461,146,cs),
(461,197,o),
(436,238,o),
(396,238,cs),
(383,238,o),
(373,236,o),
(362,236,cs),
(347,236,o),
(344,257,o),
(358,263,cs),
(369,268,o),
(382,270,o),
(383,288,cs),
(383,304,o),
(375,306,o),
(375,318,cs),
(375,334,o),
(398,333,o),
(414,333,cs),
(501,333,o),
(577,270,o),
(577,152,cs),
(577,49,o),
(510,0,o),
(468,0,cs),
(451,0,o),
(450,22,o),
(467,27,cs),
(520,41,o),
(546,92,o),
(546,152,cs),
(546,244,o),
(485,313,o),
(408,301,c),
(412,289,o),
(410,273,o),
(402,264,c),
(457,264,o),
(492,207,o),
(492,146,cs),
(492,51,o),
(405,-7,o),
(296,-7,cs),
(188,-7,o),
(103,51,o),
(103,146,cs),
(103,207,o),
(127,248,o),
(186,263,c),
(178,267,o),
(167,283,o),
(171,302,c),
(115,308,o),
(47,253,o),
(47,149,cs),
(47,78,o),
(84,36,o),
(125,27,cs),
(142,23,o),
(141,0,o),
(123,0,cs),
(81,0,o),
(17,49,o),
(17,149,cs)
);
}
);
width = 593;
}
);
unicode = 3471;
}
{
glyphname = sinE;
layers = (
{
layerId = "F0029E70-666A-46B3-82F3-BCA8DA6C0FED";
shapes = (
{
closed = 1;
nodes = (
(294,364,o),
(266,348,o),
(234,348,cs),
(197,348,o),
(162,372,o),
(162,419,cs),
(162,470,o),
(191,493,o),
(212,512,c),
(231,490,l),
(209,475,o),
(189,454,o),
(189,419,cs),
(189,388,o),
(211,373,o),
(235,373,cs),
(258,373,o),
(281,388,o),
(294,406,c),
(313,384,l)
);
},
{
closed = 1;
nodes = (
(188,529,o),
(210,546,o),
(222,530,cs),
(266,476,o),
(407,314,o),
(407,172,cs),
(407,66,o),
(342,-7,o),
(226,-7,cs),
(117,-7,o),
(49,41,o),
(49,124,cs),
(49,197,o),
(88,228,o),
(106,230,c),
(98,232,o),
(91,231,o),
(85,231,cs),
(64,231,o),
(51,227,o),
(39,224,cs),
(16,218,o),
(9,246,o),
(28,254,cs),
(38,258,o),
(54,259,o),
(67,259,cs),
(89,259,o),
(111,255,o),
(128,247,c),
(121,256,o),
(118,265,o),
(118,275,cs),
(118,294,o),
(132,311,o),
(158,311,cs),
(189,311,o),
(200,290,o),
(214,290,cs),
(231,290,o),
(229,264,o),
(210,264,cs),
(190,264,o),
(183,283,o),
(165,283,cs),
(155,283,o),
(147,278,o),
(147,270,cs),
(147,248,o),
(169,241,o),
(186,237,cs),
(203,234,o),
(202,209,o),
(182,209,cs),
(166,209,o),
(157,214,o),
(142,214,cs),
(104,214,o),
(78,172,o),
(78,124,cs),
(78,62,o),
(135,23,o),
(226,23,cs),
(319,23,o),
(378,89,o),
(378,172,cs),
(378,303,o),
(247,457,o),
(202,512,cs)
);
}
);
width = 424;
}
);
unicode = 3473;
}
{
glyphname = sinEe;
layers = (
{
layerId = "F0029E70-666A-46B3-82F3-BCA8DA6C0FED";
shapes = (
{
closed = 1;
nodes = (
(294,607,o),
(324,607,o),
(324,581,c),
(329,577,o),
(334,576,o),
(340,576,cs),
(365,576,o),
(378,591,o),
(401,591,cs),
(423,591,o),
(450,573,o),
(450,535,cs),
(450,486,o),
(417,448,o),
(373,448,cs),
(351,448,o),
(335,455,o),
(322,464,c),
(322,464,o),
(322,451,o),
(322,442,cs),
(322,393,o),
(322,418,o),
(322,385,c),
(307,397,o),
(302,403,o),
(294,409,c),
(294,466,o),
(294,524,o),
(294,581,cs)
);
},
{
closed = 1;
nodes = (
(372,561,o),
(363,548,o),
(343,548,cs),
(334,548,o),
(328,551,o),
(323,554,c),
(323,535,o),
(323,515,o),
(323,495,c),
(332,486,o),
(348,476,o),
(369,476,cs),
(400,476,o),
(419,499,o),
(419,530,cs),
(419,554,o),
(406,561,o),
(392,561,cs)
);
},
{
ref = sinE;
}
);
width = 467;
}
);
unicode = 3474;
}
{
glyphname = sinO;
layers = (
{
layerId = "F0029E70-666A-46B3-82F3-BCA8DA6C0FED";
shapes = (
{
closed = 1;
nodes = (
(151,205,o),
(170,186,o),
(194,186,cs),
(217,186,o),
(236,205,o),
(236,228,cs),
(236,252,o),
(217,271,o),
(194,271,cs),
(170,271,o),
(151,252,o),
(151,228,cs)
);
},
{
closed = 1;
nodes = (
(227,26,o),
(192,-4,o),
(140,-4,cs),
(70,-4,o),
(14,49,o),
(14,149,cs),
(14,244,o),
(80,310,o),
(165,310,cs),
(217,310,o),
(267,284,o),
(267,228,cs),
(267,189,o),
(234,156,o),
(194,156,cs),
(152,156,o),
(122,185,o),
(122,228,cs),
(122,251,o),
(132,268,o),
(148,280,c),
(88,275,o),
(43,211,o),
(43,149,cs),
(43,73,o),
(82,26,o),
(140,26,cs),
(189,26,o),
(220,66,o),
(220,118,cs),
(220,142,o),
(254,142,o),
(254,118,cs),
(254,67,o),
(281,26,o),
(333,26,cs),
(391,26,o),
(428,75,o),
(428,169,cs),
(428,330,o),
(320,457,o),
(154,457,cs),
(117,457,o),
(66,450,o),
(38,443,cs),
(15,438,o),
(7,468,o),
(32,475,cs),
(60,482,o),
(110,488,o),
(154,488,cs),
(331,488,o),
(458,359,o),
(458,167,cs),
(458,63,o),
(408,-4,o),
(333,-4,cs),
(280,-4,o),
(245,27,o),
(238,60,c)
);
}
);
width = 475;
}
);
unicode = 3476;
}
{
glyphname = sinOo;
layers = (
{
layerId = "F0029E70-666A-46B3-82F3-BCA8DA6C0FED";
shapes = (
{
closed = 1;
nodes = (
(458,64,o),
(408,-4,o),
(333,-4,cs),
(280,-4,o),
(245,27,o),
(238,60,c),
(227,26,o),
(192,-4,o),
(140,-4,cs),
(70,-4,o),
(10,48,o),
(10,148,cs),
(10,243,o),
(80,310,o),
(165,310,cs),
(217,310,o),
(267,284,o),
(267,228,cs),
(267,189,o),
(234,156,o),
(194,156,cs),
(152,156,o),
(122,185,o),
(122,228,cs),
(122,251,o),
(132,268,o),
(148,280,c),
(88,275,o),
(40,210,o),
(40,148,cs),
(40,72,o),
(82,26,o),
(140,26,cs),
(189,26,o),
(220,66,o),
(220,118,cs),
(220,143,o),
(254,143,o),
(254,118,cs),
(254,67,o),
(281,26,o),
(333,26,cs),
(391,26,o),
(428,74,o),
(428,168,c),
(428,346,o),
(304,459,o),
(134,459,cs),
(94,459,ls),
(80,459,o),
(59,454,o),
(46,454,cs),
(25,454,o),
(25,482,o),
(46,485,cs),
(70,490,o),
(77,508,o),
(77,530,cs),
(77,551,o),
(67,569,o),
(49,569,cs),
(25,569,o),
(23,600,o),
(52,600,cs),
(114,600,ls),
(196,600,o),
(301,555,o),
(327,431,c),
(404,374,o),
(458,288,o),
(458,168,c)
);
},
{
closed = 1;
nodes = (
(185,490,o),
(243,475,o),
(293,451,c),
(273,514,o),
(204,578,o),
(93,571,c),
(111,550,o),
(115,511,o),
(94,490,c),
(134,490,ls)
);
},
{
closed = 1;
nodes = (
(151,205,o),
(170,186,o),
(194,186,cs),
(217,186,o),
(236,205,o),
(236,228,cs),
(236,252,o),
(217,271,o),
(194,271,cs),
(170,271,o),
(151,252,o),
(151,228,cs)
);
}
);
width = 475;
}
);
unicode = 3477;
}
{
glyphname = sinAu;
layers = (
{
layerId = "F0029E70-666A-46B3-82F3-BCA8DA6C0FED";
shapes = (
{
closed = 0;
nodes = (
(237,232,l)
);
},
{
ref = sinO;
},
{
pos = (471,0);
ref = sinMatraLs;
}
);
width = 744;
}
);
unicode = 3478;
}
{
glyphname = sinKa;
layers = (
{
layerId = "F0029E70-666A-46B3-82F3-BCA8DA6C0FED";
shapes = (
{
closed = 1;
nodes = (
(393,30,o),
(400,29,o),
(407,29,cs),
(454,29,o),
(504,70,o),
(504,136,cs),
(504,225,o),
(440,302,o),
(328,302,cs),
(278,302,o),
(234,290,o),
(196,272,c),
(317,272,o),
(372,186,o),
(372,110,cs),
(372,46,o),
(331,-5,o),
(275,-5,cs),
(231,-5,o),
(206,14,o),
(196,40,c),
(188,14,o),
(160,-4,o),
(122,-4,cs),
(70,-4,o),
(30,34,o),
(17,126,c),
(41,176,o),
(74,211,o),
(117,254,cs),
(122,259,o),
(132,269,o),
(132,276,cs),
(132,298,o),
(112,309,o),
(94,309,cs),
(65,309,o),
(50,294,o),
(50,270,cs),
(50,264,o),
(52,259,o),
(52,254,cs),
(54,240,o),
(33,233,o),
(25,249,cs),
(22,255,o),
(20,262,o),
(20,270,cs),
(20,318,o),
(59,336,o),
(94,336,cs),
(128,336,o),
(156,317,o),
(159,285,c),
(206,314,o),
(262,331,o),
(328,331,cs),
(457,331,o),
(535,244,o),
(535,136,cs),
(535,39,o),
(464,-2,o),
(407,-2,cs),
(397,-2,o),
(387,-2,o),
(380,2,cs),
(365,9,o),
(371,30,o),
(387,30,cs)
);
},
{
closed = 1;
nodes = (
(79,174,o),
(61,150,o),
(47,126,c),
(48,78,o),
(76,24,o),
(122,24,cs),
(163,24,o),
(181,54,o),
(181,86,cs),
(181,113,o),
(210,112,o),
(210,86,cs),
(210,56,o),
(231,25,o),
(275,25,cs),
(315,25,o),
(341,68,o),
(341,110,cs),
(341,176,o),
(283,245,o),
(200,245,cs),
(169,245,o),
(135,235,o),
(99,196,cs)
);
}
);
width = 551;
}
);
unicode = 3482;
}
{
glyphname = sinKha;
layers = (
{
layerId = "F0029E70-666A-46B3-82F3-BCA8DA6C0FED";
shapes = (
{
closed = 1;
nodes = (
(234,28,o),
(244,41,o),
(254,41,cs),
(295,41,o),
(297,0,o),
(347,0,cs),
(404,0,o),
(457,50,o),
(457,183,cs),
(457,364,o),
(322,490,o),
(152,490,cs),
(112,490,o),
(69,482,o),
(29,469,cs),
(7,461,o),
(14,433,o),
(39,440,cs),
(74,451,o),
(117,459,o),
(154,459,cs),
(309,459,o),
(427,346,o),
(427,183,cs),
(427,86,o),
(393,30,o),
(347,30,cs),
(313,30,o),
(298,66,o),
(262,66,cs),
(257,66,o),
(251,65,o),
(246,64,c),
(253,104,o),
(285,132,o),
(285,201,cs),
(285,262,o),
(228,306,o),
(165,306,cs),
(77,306,o),
(25,238,o),
(25,140,cs),
(25,94,o),
(31,0,o),
(118,0,cs),
(157,0,o),
(185,35,o),
(185,73,cs),
(185,117,o),
(157,149,o),
(118,149,cs),
(86,149,o),
(64,133,o),
(53,112,c),
(52,122,o),
(51,130,o),
(51,140,cs),
(51,197,o),
(78,277,o),
(165,277,cs),
(212,277,o),
(256,247,o),
(256,201,cs),
(256,117,o),
(204,107,o),
(204,10,cs),
(204,-11,o),
(234,-13,o),
(234,8,cs)
);
},
{
closed = 1;
nodes = (
(70,98,o),
(89,117,o),
(112,117,cs),
(136,117,o),
(156,98,o),
(156,73,cs),
(156,50,o),
(136,30,o),
(112,30,cs),
(89,30,o),
(70,50,o),
(70,73,cs)
);
}
);
width = 473;
}
);
unicode = 3483;
}
{
glyphname = sinGa;
layers = (
{
layerId = "F0029E70-666A-46B3-82F3-BCA8DA6C0FED";
shapes = (
{
closed = 1;
nodes = (
(319,2,o),
(349,0,o),
(366,0,cs),
(449,1,o),
(507,71,o),
(507,157,cs),
(507,272,o),
(432,328,o),
(357,328,cs),
(242,328,o),
(203,232,o),
(196,173,cs),
(194,159,o),
(204,152,o),
(218,152,cs),
(248,152,o),
(265,139,o),
(265,101,cs),
(265,61,o),
(230,27,o),
(170,27,cs),
(94,27,o),
(31,74,o),
(31,162,cs),
(31,244,o),
(100,297,o),
(159,297,cs),
(183,297,o),
(196,293,o),
(203,291,cs),
(221,287,o),
(230,314,o),
(209,320,cs),
(199,323,o),
(189,327,o),
(159,327,cs),
(81,327,o),
(1,263,o),
(1,162,cs),
(1,54,o),
(83,-3,o),
(170,-3,cs),
(257,-3,o),
(294,53,o),
(294,101,cs),
(294,148,o),
(273,177,o),
(227,180,c),
(231,212,o),
(260,300,o),
(357,299,cs),
(425,298,o),
(478,246,o),
(478,157,cs),
(478,78,o),
(423,30,o),
(366,30,cs),
(350,30,o),
(333,31,o),
(319,37,cs),
(298,45,o),
(288,24,o),
(304,12,cs)
);
}
);
width = 535;
}
);
unicode = 3484;
}
{
glyphname = sinGha;
layers = (
{
layerId = "F0029E70-666A-46B3-82F3-BCA8DA6C0FED";
shapes = (
{
closed = 1;
nodes = (
(53,278,o),
(36,278,o),
(26,272,cs),
(13,266,o),
(14,243,o),
(33,243,cs),
(51,243,o),
(60,251,o),
(85,251,cs),
(91,251,o),
(98,251,o),
(106,250,c),
(77,250,o),
(21,207,o),
(21,128,cs),
(21,42,o),
(80,-2,o),
(147,-2,cs),
(208,-2,o),
(230,25,o),
(230,43,cs),
(230,66,o),
(217,72,o),
(217,100,cs),
(217,120,o),
(231,139,o),
(257,139,cs),
(282,139,o),
(296,120,o),
(296,100,cs),
(296,72,o),
(285,66,o),
(285,43,cs),
(285,25,o),
(306,-2,o),
(367,-2,cs),
(434,-2,o),
(493,42,o),
(493,128,cs),
(493,193,o),
(452,257,o),
(383,257,c),
(390,265,o),
(393,276,o),
(393,287,cs),
(393,296,o),
(391,306,o),
(389,314,cs),
(381,333,o),
(353,326,o),
(360,307,cs),
(363,299,o),
(364,293,o),
(364,287,cs),
(364,263,o),
(342,259,o),
(320,254,cs),
(299,249,o),
(304,224,o),
(320,224,cs),
(339,224,o),
(347,232,o),
(373,232,cs),
(427,232,o),
(463,183,o),
(463,128,cs),
(463,64,o),
(419,27,o),
(367,27,cs),
(342,27,o),
(314,34,o),
(314,48,cs),
(314,60,o),
(325,70,o),
(325,100,cs),
(325,140,o),
(293,168,o),
(257,168,cs),
(220,168,o),
(188,140,o),
(188,100,cs),
(188,70,o),
(200,60,o),
(200,48,cs),
(200,34,o),
(172,27,o),
(147,27,cs),
(96,27,o),
(50,64,o),
(50,128,cs),
(50,183,o),
(86,232,o),
(141,232,cs),
(169,232,o),
(175,222,o),
(196,222,cs),
(212,222,o),
(216,244,o),
(201,251,cs),
(180,260,o),
(147,260,o),
(147,290,cs),
(147,299,o),
(156,306,o),
(167,306,cs),
(192,306,o),
(198,280,o),
(228,280,cs),
(244,280,o),
(244,307,o),
(228,307,cs),
(208,307,o),
(198,333,o),
(166,333,cs),
(135,333,o),
(119,314,o),
(119,293,cs),
(119,283,o),
(122,274,o),
(128,266,c),
(111,274,o),
(89,278,o),
(67,278,cs)
);
}
);
width = 509;
}
);
unicode = 3485;
}
{
glyphname = sinNga;
layers = (
{
layerId = "F0029E70-666A-46B3-82F3-BCA8DA6C0FED";
shapes = (
{
closed = 1;
nodes = (
(149,220,o),
(137,227,o),
(120,227,c),
(77,224,o),
(43,181,o),
(43,135,cs),
(43,62,o),
(89,26,o),
(136,26,cs),
(192,26,o),
(223,71,o),
(223,136,cs),
(223,158,o),
(254,159,o),
(254,136,cs),
(254,71,o),
(285,26,o),
(341,26,cs),
(408,26,o),
(449,82,o),
(449,186,cs),
(449,354,o),
(315,467,o),
(143,466,cs),
(109,466,o),
(74,457,o),
(40,448,cs),
(15,442,o),
(9,471,o),
(30,478,cs),
(66,490,o),
(104,497,o),
(142,497,cs),
(329,497,o),
(481,373,o),
(481,186,cs),
(481,69,o),
(431,-5,o),
(341,-5,cs),
(296,-5,o),
(250,23,o),
(239,65,c),
(226,24,o),
(185,-5,o),
(136,-5,cs),
(73,-5,o),
(12,40,o),
(12,135,cs),
(12,204,o),
(70,254,o),
(113,254,cs),
(115,254,l),
(102,263,o),
(98,273,o),
(98,286,cs),
(98,309,o),
(115,331,o),
(145,331,cs),
(178,331,o),
(190,306,o),
(210,306,cs),
(226,306,o),
(227,277,o),
(210,277,cs),
(180,277,o),
(173,304,o),
(147,304,cs),
(135,304,o),
(125,296,o),
(125,286,cs),
(125,267,o),
(148,256,o),
(167,251,cs),
(187,246,o),
(183,220,o),
(165,220,cs)
);
}
);
width = 493;
}
);
unicode = 3486;
}
{
glyphname = sinNnga;
layers = (
{
layerId = "F0029E70-666A-46B3-82F3-BCA8DA6C0FED";
shapes = (
{
closed = 1;
nodes = (
(392,30,o),
(412,28,o),
(423,28,cs),
(480,28,o),
(540,72,o),
(540,159,cs),
(540,253,o),
(474,296,o),
(414,296,cs),
(346,296,o),
(305,241,o),
(295,176,c),
(336,172,o),
(361,151,o),
(361,100,cs),
(361,54,o),
(322,0,o),
(233,0,cs),
(161,0,o),
(78,44,o),
(78,162,cs),
(78,224,o),
(109,273,o),
(149,300,c),
(90,294,o),
(38,231,o),
(38,150,cs),
(38,81,o),
(59,35,o),
(102,23,cs),
(117,19,o),
(114,-2,o),
(96,0,cs),
(58,5,o),
(8,41,o),
(8,150,cs),
(8,265,o),
(86,326,o),
(186,327,cs),
(212,327,o),
(247,323,o),
(267,312,cs),
(281,305,o),
(274,282,o),
(257,288,cs),
(248,290,o),
(234,293,o),
(222,293,cs),
(165,293,o),
(109,249,o),
(109,162,cs),
(109,68,o),
(173,30,o),
(233,30,cs),
(296,30,o),
(331,69,o),
(332,100,cs),
(333,130,o),
(317,148,o),
(291,148,cs),
(274,148,o),
(264,151,o),
(266,167,cs),
(278,267,o),
(330,325,o),
(414,325,cs),
(486,325,o),
(570,277,o),
(570,159,cs),
(570,64,o),
(499,0,o),
(423,0,cs),
(408,0,o),
(382,4,o),
(372,8,cs),
(354,15,o),
(362,40,o),
(383,33,cs)
);
}
);
width = 562;
}
);
unicode = 3487;
}
{
glyphname = sinCa;
layers = (
{
layerId = "F0029E70-666A-46B3-82F3-BCA8DA6C0FED";
shapes = (
{
closed = 1;
nodes = (
(89,276,o),
(111,272,o),
(128,264,c),
(121,273,o),
(118,283,o),
(118,292,cs),
(118,312,o),
(134,330,o),
(164,330,cs),
(198,330,o),
(207,306,o),
(228,306,cs),
(246,306,o),
(247,278,o),
(228,278,cs),
(199,278,o),
(189,304,o),
(168,304,cs),
(157,304,o),
(148,296,o),
(148,286,cs),
(148,262,o),
(173,262,o),
(190,251,cs),
(206,241,o),
(199,220,o),
(180,225,cs),
(167,228,o),
(156,230,o),
(143,230,c),
(101,228,o),
(70,191,o),
(70,144,cs),
(70,71,o),
(128,24,o),
(220,24,cs),
(330,24,o),
(377,119,o),
(377,204,cs),
(377,364,o),
(275,452,o),
(133,452,cs),
(106,452,o),
(79,448,o),
(52,440,c),
(28,432,o),
(19,461,o),
(42,469,cs),
(72,480,o),
(102,485,o),
(133,485,cs),
(290,485,o),
(407,372,o),
(407,204,cs),
(407,101,o),
(343,-6,o),
(220,-6,cs),
(111,-6,o),
(41,50,o),
(41,144,cs),
(41,215,o),
(86,245,o),
(107,248,c),
(99,249,o),
(91,249,o),
(85,249,cs),
(64,249,o),
(51,244,o),
(39,241,cs),
(16,234,o),
(9,265,o),
(30,272,cs),
(40,276,o),
(55,276,o),
(67,276,cs)
);
}
);
width = 424;
}
);
unicode = 3488;
}
{
glyphname = sinCha;
layers = (
{
layerId = "F0029E70-666A-46B3-82F3-BCA8DA6C0FED";
shapes = (
{
closed = 1;
nodes = (
(405,234,o),
(356,280,o),
(317,278,c),
(328,287,o),
(334,302,o),
(334,315,cs),
(334,366,o),
(223,378,o),
(223,446,cs),
(223,485,o),
(268,505,o),
(332,505,cs),
(357,505,o),
(358,535,o),
(332,535,cs),
(249,535,o),
(194,507,o),
(194,446,cs),
(194,364,o),
(306,349,o),
(306,315,cs),
(306,302,o),
(289,292,o),
(268,285,cs),
(238,275,o),
(211,259,o),
(211,217,cs),
(211,178,o),
(242,154,o),
(281,154,cs),
(319,154,o),
(345,179,o),
(345,214,cs),
(345,228,o),
(338,244,o),
(326,254,c),
(348,248,o),
(376,215,o),
(376,164,cs),
(376,87,o),
(310,24,o),
(213,24,cs),
(117,24,o),
(46,76,o),
(46,154,cs),
(46,207,o),
(68,243,o),
(109,243,cs),
(123,243,o),
(135,243,o),
(147,238,cs),
(163,231,o),
(176,257,o),
(158,265,cs),
(138,273,o),
(114,279,o),
(114,300,cs),
(114,310,o),
(123,317,o),
(135,317,cs),
(158,317,o),
(160,296,o),
(189,296,cs),
(206,296,o),
(205,324,o),
(189,324,cs),
(169,324,o),
(164,343,o),
(133,343,cs),
(104,343,o),
(88,321,o),
(88,300,cs),
(88,288,o),
(92,278,o),
(104,269,c),
(48,269,o),
(16,218,o),
(16,154,cs),
(16,60,o),
(99,-6,o),
(213,-6,cs),
(327,-6,o),
(405,71,o),
(405,164,cs)
);
},
{
closed = 1;
nodes = (
(236,243,o),
(255,254,o),
(278,254,cs),
(302,254,o),
(322,236,o),
(322,214,cs),
(322,191,o),
(303,178,o),
(281,178,cs),
(256,178,o),
(236,194,o),
(236,218,cs)
);
}
);
width = 422;
}
);
unicode = 3489;
}
{
glyphname = sinJa;
layers = (
{
layerId = "F0029E70-666A-46B3-82F3-BCA8DA6C0FED";
shapes = (
{
closed = 1;
nodes = (
(401,207,o),
(372,256,o),
(315,265,c),
(325,274,o),
(327,285,o),
(327,297,cs),
(327,352,o),
(219,366,o),
(219,444,cs),
(219,485,o),
(264,505,o),
(328,505,cs),
(351,505,o),
(352,535,o),
(328,535,cs),
(244,535,o),
(190,502,o),
(190,444,cs),
(190,350,o),
(299,334,o),
(299,297,cs),
(299,275,o),
(286,270,o),
(262,263,cs),
(247,259,o),
(248,236,o),
(265,236,cs),
(280,236,o),
(281,242,o),
(307,242,cs),
(344,242,o),
(372,198,o),
(370,144,cs),
(366,68,o),
(299,23,o),
(208,23,cs),
(117,23,o),
(46,73,o),
(46,151,cs),
(46,206,o),
(72,242,o),
(113,242,cs),
(126,242,o),
(138,236,o),
(151,236,cs),
(169,236,o),
(171,259,o),
(154,263,cs),
(131,269,o),
(114,276,o),
(114,299,cs),
(114,309,o),
(123,316,o),
(134,316,cs),
(157,316,o),
(163,292,o),
(190,292,cs),
(210,292,o),
(209,320,o),
(190,320,cs),
(172,320,o),
(161,343,o),
(132,343,cs),
(104,343,o),
(87,320,o),
(87,299,cs),
(87,287,o),
(91,274,o),
(100,265,c),
(48,258,o),
(17,215,o),
(17,151,cs),
(17,57,o),
(99,-6,o),
(208,-6,cs),
(316,-6,o),
(395,52,o),
(399,144,cs)
);
}
);
width = 415;
}
);
unicode = 3490;
}
{
glyphname = sinJha;
layers = (
{
layerId = "F0029E70-666A-46B3-82F3-BCA8DA6C0FED";
shapes = (
{
closed = 1;
nodes = (
(64,174,o),
(46,150,o),
(32,126,c),
(33,78,o),
(61,24,o),
(107,24,cs),
(148,24,o),
(166,54,o),
(166,86,cs),
(166,113,o),
(196,112,o),
(196,86,cs),
(196,56,o),
(217,25,o),
(260,25,cs),
(300,25,o),
(327,68,o),
(327,110,cs),
(327,176,o),
(268,245,o),
(185,245,cs),
(154,245,o),
(121,235,o),
(85,196,cs)
);
},
{
closed = 1;
nodes = (
(348,238,o),
(394,272,o),
(441,274,c),
(402,296,o),
(359,302,o),
(313,302,cs),
(263,302,o),
(219,290,o),
(181,272,c),
(303,272,o),
(357,186,o),
(357,110,cs),
(357,46,o),
(316,-5,o),
(260,-5,cs),
(217,-5,o),
(191,14,o),
(181,40,c),
(173,14,o),
(146,-4,o),
(107,-4,cs),
(55,-4,o),
(15,34,o),
(2,126,c),
(26,176,o),
(60,211,o),
(102,254,cs),
(107,259,o),
(117,269,o),
(117,276,cs),
(117,298,o),
(98,309,o),
(79,309,cs),
(51,309,o),
(35,294,o),
(35,270,cs),
(35,264,o),
(37,259,o),
(38,254,cs),
(40,240,o),
(19,233,o),
(10,249,cs),
(7,255,o),
(6,262,o),
(6,270,cs),
(6,318,o),
(44,336,o),
(79,336,cs),
(114,336,o),
(141,317,o),
(144,285,c),
(191,314,o),
(248,331,o),
(313,331,cs),
(410,331,o),
(463,293,o),
(498,259,cs),
(509,248,o),
(504,235,o),
(491,235,cs),
(482,235,o),
(474,244,o),
(441,244,cs),
(394,244,o),
(356,201,o),
(356,138,cs),
(356,66,o),
(399,25,o),
(444,25,cs),
(497,25,o),
(536,68,o),
(536,131,cs),
(536,152,o),
(565,152,o),
(565,131,cs),
(565,68,o),
(594,25,o),
(648,25,cs),
(710,25,o),
(743,79,o),
(743,179,cs),
(743,344,o),
(601,453,o),
(451,453,cs),
(418,453,o),
(385,447,o),
(352,436,cs),
(329,427,o),
(320,456,o),
(341,464,cs),
(377,478,o),
(414,482,o),
(449,482,cs),
(614,482,o),
(773,362,o),
(773,179,cs),
(773,67,o),
(733,-4,o),
(648,-4,cs),
(605,-4,o),
(561,22,o),
(551,62,c),
(540,23,o),
(491,-4,o),
(444,-4,cs),
(405,-4,o),
(369,16,o),
(348,55,c),
(333,185,l)
);
}
);
width = 786;
}
);
unicode = 3491;
}
{
glyphname = sinNya;
layers = (
{
layerId = "F0029E70-666A-46B3-82F3-BCA8DA6C0FED";
shapes = (
{
closed = 1;
nodes = (
(669,183,o),
(684,194,o),
(684,217,cs),
(684,292,o),
(573,318,o),
(491,318,cs),
(432,318,o),
(343,312,o),
(258,249,c),
(272,254,o),
(286,257,o),
(299,257,cs),
(351,257,o),
(393,234,o),
(416,193,c),
(431,225,o),
(462,251,o),
(512,251,cs),
(588,251,o),
(601,183,o),
(649,183,cs)
);
},
{
closed = 1;
nodes = (
(124,79,o),
(147,28,o),
(190,28,cs),
(230,28,o),
(248,59,o),
(248,91,cs),
(248,114,o),
(277,115,o),
(277,91,cs),
(277,59,o),
(295,28,o),
(338,28,cs),
(378,28,o),
(404,72,o),
(404,117,cs),
(404,197,o),
(360,231,o),
(293,231,cs),
(272,231,o),
(229,231,o),
(208,219,cs),
(169,194,o),
(127,125,o),
(127,125,c)
);
},
{
closed = 1;
nodes = (
(95,315,o),
(131,338,o),
(170,338,cs),
(204,337,o),
(241,321,o),
(238,267,c),
(315,332,o),
(429,346,o),
(491,346,cs),
(595,346,o),
(712,312,o),
(712,217,cs),
(712,179,o),
(685,155,o),
(649,155,cs),
(581,155,o),
(573,222,o),
(512,222,cs),
(456,222,o),
(436,175,o),
(436,146,cs),
(436,74,o),
(481,30,o),
(565,30,cs),
(633,30,o),
(660,57,o),
(680,80,cs),
(694,96,o),
(714,87,o),
(708,67,cs),
(689,0,o),
(666,-58,o),
(666,-94,cs),
(666,-133,o),
(685,-154,o),
(709,-167,cs),
(725,-175,o),
(715,-203,o),
(694,-194,c),
(652,-173,o),
(635,-141,o),
(636,-96,cs),
(636,-53,o),
(651,-19,o),
(675,39,c),
(661,26,o),
(615,0,o),
(565,0,cs),
(496,0,o),
(451,25,o),
(426,66,c),
(415,27,o),
(386,0,o),
(338,0,cs),
(301,0,o),
(269,25,o),
(263,53,c),
(257,25,o),
(228,0,o),
(190,0,cs),
(135,0,o),
(93,54,o),
(93,125,c),
(93,125,o),
(111,156,o),
(132,185,c),
(102,182,o),
(82,189,o),
(70,211,c),
(54,195,o),
(44,159,o),
(44,127,cs),
(44,78,o),
(53,40,o),
(85,27,cs),
(101,20,o),
(93,-1,o),
(78,2,cs),
(46,8,o),
(17,46,o),
(17,127,cs),
(17,183,o),
(38,229,o),
(67,256,cs),
(78,267,o),
(94,257,o),
(91,244,cs),
(90,240,o),
(88,237,o),
(88,234,cs),
(83,210,o),
(129,200,o),
(155,214,c),
(154,214,o),
(154,214,o),
(153,214,cs),
(130,214,o),
(100,233,o),
(98,267,cs)
);
},
{
closed = 1;
nodes = (
(207,295,o),
(196,311,o),
(164,310,cs),
(139,309,o),
(126,290,o),
(126,271,cs),
(127,251,o),
(143,238,o),
(169,237,cs),
(192,237,o),
(207,257,o),
(207,277,cs)
);
}
);
width = 731;
}
);
unicode = 3492;
}
{
glyphname = sinJnya;
layers = (
{
layerId = "F0029E70-666A-46B3-82F3-BCA8DA6C0FED";
shapes = (
{
closed = 1;
nodes = (
(633,162,o),
(612,136,o),
(576,136,cs),
(498,136,o),
(506,215,o),
(434,215,cs),
(378,215,o),
(357,169,o),
(357,139,cs),
(357,68,o),
(403,23,o),
(486,23,cs),
(554,23,o),
(579,51,o),
(600,71,cs),
(614,85,o),
(635,75,o),
(628,56,cs),
(605,-19,o),
(584,-67,o),
(584,-113,cs),
(584,-141,o),
(600,-157,o),
(615,-165,cs),
(635,-174,o),
(623,-202,o),
(603,-193,cs),
(581,-184,o),
(554,-154,o),
(554,-113,cs),
(554,-54,o),
(584,6,o),
(597,32,c),
(582,20,o),
(537,-6,o),
(486,-6,cs),
(419,-6,o),
(373,18,o),
(348,58,c),
(332,27,o),
(293,1,o),
(231,1,cs),
(159,1,o),
(81,45,o),
(81,162,cs),
(81,217,o),
(105,270,o),
(151,297,c),
(77,295,o),
(43,221,o),
(43,153,cs),
(43,87,o),
(58,41,o),
(103,24,cs),
(118,18,o),
(113,-4,o),
(93,1,cs),
(57,10,o),
(14,51,o),
(14,153,cs),
(13,269,o),
(84,328,o),
(169,328,cs),
(243,328,o),
(272,319,o),
(290,309,cs),
(307,301,o),
(296,276,o),
(277,285,cs),
(260,292,o),
(244,296,o),
(227,296,cs),
(172,296,o),
(111,249,o),
(111,162,cs),
(111,69,o),
(171,31,o),
(231,31,cs),
(294,31,o),
(330,69,o),
(330,101,cs),
(330,133,o),
(310,149,o),
(285,147,cs),
(273,146,o),
(261,151,o),
(264,169,cs),
(277,270,o),
(351,328,o),
(459,328,cs),
(553,328,o),
(633,279,o),
(633,196,cs)
);
},
{
closed = 1;
nodes = (
(595,166,o),
(604,176,o),
(604,196,cs),
(604,252,o),
(548,299,o),
(459,299,cs),
(363,299,o),
(309,251,o),
(292,175,c),
(303,177,o),
(319,175,o),
(331,167,c),
(341,208,o),
(375,244,o),
(434,244,cs),
(525,244,o),
(517,167,o),
(577,166,cs)
);
}
);
width = 650;
}
);
unicode = 3493;
}
{
glyphname = sinNdja;
layers = (
{
layerId = "F0029E70-666A-46B3-82F3-BCA8DA6C0FED";
shapes = (
{
closed = 1;
nodes = (
(481,210,o),
(451,260,o),
(395,260,c),
(407,269,o),
(412,282,o),
(412,295,cs),
(412,359,o),
(303,377,o),
(303,446,cs),
(303,486,o),
(343,507,o),
(410,507,cs),
(435,507,o),
(433,536,o),
(409,536,cs),
(327,536,o),
(272,506,o),
(272,446,cs),
(272,360,o),
(383,338,o),
(383,295,cs),
(383,273,o),
(364,264,o),
(344,257,cs),
(327,252,o),
(332,226,o),
(352,229,cs),
(364,231,o),
(376,234,o),
(390,234,cs),
(431,234,o),
(452,200,o),
(452,151,cs),
(452,73,o),
(382,24,o),
(290,24,cs),
(199,24,o),
(127,72,o),
(127,150,cs),
(127,199,o),
(149,235,o),
(191,235,cs),
(205,235,o),
(216,234,o),
(228,232,cs),
(248,228,o),
(252,255,o),
(235,259,cs),
(216,264,o),
(196,269,o),
(196,288,cs),
(196,298,o),
(205,304,o),
(215,304,cs),
(236,304,o),
(241,286,o),
(262,286,cs),
(282,286,o),
(280,314,o),
(264,314,cs),
(246,314,o),
(242,333,o),
(179,333,cs),
(84,333,o),
(17,267,o),
(17,155,cs),
(17,51,o),
(66,2,o),
(111,2,cs),
(129,2,o),
(129,26,o),
(112,29,cs),
(67,37,o),
(46,87,o),
(46,155,cs),
(46,233,o),
(88,302,o),
(172,307,c),
(157,290,o),
(168,267,o),
(185,260,c),
(129,260,o),
(98,210,o),
(98,150,cs),
(98,56,o),
(182,-5,o),
(290,-5,cs),
(399,-5,o),
(481,56,o),
(481,151,cs)
);
}
);
width = 498;
}
);
unicode = 3494;
}
{
glyphname = sinTta;
layers = (
{
layerId = "F0029E70-666A-46B3-82F3-BCA8DA6C0FED";
shapes = (
{
closed = 1;
nodes = (
(397,377,o),
(260,485,o),
(119,485,cs),
(89,485,o),
(58,480,o),
(29,470,cs),
(7,462,o),
(14,434,o),
(39,441,cs),
(66,448,o),
(92,453,o),
(119,453,cs),
(244,453,o),
(364,368,o),
(364,208,cs),
(364,123,o),
(312,25,o),
(201,25,cs),
(102,25,o),
(56,93,o),
(56,147,cs),
(55,212,o),
(90,247,o),
(141,247,cs),
(163,247,o),
(178,241,o),
(186,239,cs),
(207,234,o),
(214,259,o),
(196,267,cs),
(188,270,o),
(168,276,o),
(143,276,cs),
(79,276,o),
(27,236,o),
(27,147,cs),
(27,79,o),
(83,-6,o),
(201,-6,cs),
(330,-6,o),
(392,104,o),
(394,208,cs)
);
}
);
width = 410;
}
);
unicode = 3495;
}
{
glyphname = sinTtha;
layers = (
{
layerId = "F0029E70-666A-46B3-82F3-BCA8DA6C0FED";
shapes = (
{
closed = 1;
nodes = (
(243,26,o),
(286,-3,o),
(330,-3,cs),
(410,-3,o),
(449,64,o),
(449,167,cs),
(449,306,o),
(337,423,o),
(277,500,cs),
(270,509,o),
(266,515,o),
(259,522,cs),
(240,544,o),
(216,520,o),
(235,502,c),
(209,473,o),
(165,429,o),
(165,383,cs),
(165,330,o),
(205,304,o),
(247,304,cs),
(285,304,o),
(323,323,o),
(346,365,c),
(371,331,o),
(418,265,o),
(418,167,cs),
(418,76,o),
(387,28,o),
(330,28,cs),
(288,28,o),
(249,72,o),
(249,122,cs),
(249,147,o),
(217,148,o),
(217,122,cs),
(217,72,o),
(179,28,o),
(137,28,cs),
(91,28,o),
(48,74,o),
(48,144,cs),
(48,223,o),
(91,265,o),
(140,265,cs),
(162,265,o),
(176,261,o),
(186,257,cs),
(204,248,o),
(217,273,o),
(200,283,cs),
(187,290,o),
(168,297,o),
(140,297,cs),
(78,297,o),
(16,248,o),
(16,144,cs),
(16,52,o),
(70,-3,o),
(137,-3,cs),
(186,-3,o),
(221,27,o),
(233,69,c)
);
},
{
closed = 1;
nodes = (
(193,419,o),
(228,454,o),
(256,481,c),
(274,459,o),
(307,422,o),
(325,392,c),
(314,353,o),
(281,331,o),
(248,331,cs),
(220,331,o),
(193,348,o),
(193,383,cs)
);
}
);
width = 465;
}
);
unicode = 3496;
}
{
glyphname = sinDda;
layers = (
{
layerId = "F0029E70-666A-46B3-82F3-BCA8DA6C0FED";
shapes = (
{
closed = 1;
nodes = (
(54,271,o),
(38,271,o),
(28,267,cs),
(9,259,o),
(15,231,o),
(39,236,c),
(51,240,o),
(64,244,o),
(85,244,cs),
(91,244,o),
(98,244,o),
(106,243,c),
(77,243,o),
(21,207,o),
(21,127,cs),
(21,41,o),
(74,-3,o),
(135,-3,cs),
(181,-3,o),
(219,25,o),
(231,64,c),
(241,23,o),
(282,-3,o),
(323,-3,cs),
(402,-3,o),
(440,69,o),
(440,180,cs),
(440,363,o),
(294,483,o),
(141,483,cs),
(105,483,o),
(69,478,o),
(33,465,cs),
(13,458,o),
(20,431,o),
(43,437,cs),
(76,448,o),
(110,454,o),
(143,454,cs),
(281,454,o),
(410,345,o),
(410,180,cs),
(410,80,o),
(380,27,o),
(323,27,cs),
(273,27,o),
(246,69,o),
(246,132,cs),
(246,156,o),
(216,156,o),
(216,132,cs),
(216,69,o),
(187,27,o),
(135,27,cs),
(90,27,o),
(50,63,o),
(50,127,cs),
(50,183,o),
(86,225,o),
(141,225,cs),
(169,225,o),
(175,217,o),
(196,215,cs),
(213,214,o),
(216,241,o),
(201,244,cs),
(176,248,o),
(147,256,o),
(147,283,cs),
(147,293,o),
(156,299,o),
(167,299,cs),
(188,300,o),
(200,273,o),
(226,273,cs),
(246,273,o),
(244,301,o),
(228,301,cs),
(208,301,o),
(198,326,o),
(166,326,cs),
(135,326,o),
(119,307,o),
(119,286,cs),
(119,277,o),
(122,267,o),
(128,259,c),
(111,267,o),
(89,271,o),
(67,271,cs)
);
}
);
width = 456;
}
);
unicode = 3497;
}
{
glyphname = sinDdha;
layers = (
{
layerId = "F0029E70-666A-46B3-82F3-BCA8DA6C0FED";
shapes = (
{
closed = 1;
nodes = (
(259,81,o),
(279,28,o),
(339,28,cs),
(391,28,o),
(419,69,o),
(419,141,cs),
(419,235,o),
(363,331,o),
(327,380,c),
(307,351,o),
(278,337,o),
(239,337,cs),
(196,337,o),
(169,369,o),
(169,410,cs),
(169,453,o),
(208,488,o),
(230,508,c),
(215,526,o),
(237,548,o),
(256,524,cs),
(326,436,o),
(450,297,o),
(450,141,cs),
(450,52,o),
(413,-2,o),
(339,-2,cs),
(292,-2,o),
(250,27,o),
(238,70,c),
(225,28,o),
(183,-2,o),
(131,-2,cs),
(75,-2,o),
(24,37,o),
(24,120,cs),
(24,199,o),
(83,237,o),
(114,237,c),
(105,238,o),
(96,238,o),
(90,238,cs),
(67,238,o),
(54,232,o),
(40,230,cs),
(16,226,o),
(8,252,o),
(27,261,cs),
(38,267,o),
(57,267,o),
(70,267,cs),
(94,267,o),
(119,264,o),
(137,255,c),
(130,264,o),
(127,273,o),
(127,284,cs),
(127,306,o),
(144,327,o),
(178,327,cs),
(209,327,o),
(219,301,o),
(239,301,cs),
(260,301,o),
(258,272,o),
(239,272,cs),
(210,272,o),
(204,298,o),
(180,298,cs),
(167,298,o),
(157,291,o),
(157,280,cs),
(157,252,o),
(185,244,o),
(209,238,cs),
(230,233,o),
(222,204,o),
(202,210,cs),
(184,215,o),
(181,219,o),
(151,219,cs),
(93,219,o),
(56,173,o),
(56,120,cs),
(56,60,o),
(92,29,o),
(131,29,cs),
(189,29,o),
(226,76,o),
(222,141,cs),
(221,167,o),
(252,169,o),
(254,144,cs)
);
},
{
closed = 1;
nodes = (
(198,384,o),
(219,366,o),
(239,366,cs),
(271,366,o),
(295,381,o),
(310,403,c),
(290,432,o),
(264,466,o),
(249,484,c),
(227,464,o),
(198,445,o),
(198,410,cs)
);
}
);
width = 464;
}
);
unicode = 3498;
}
{
glyphname = sinNna;
layers = (
{
layerId = "F0029E70-666A-46B3-82F3-BCA8DA6C0FED";
shapes = (
{
closed = 1;
nodes = (
(285,336,o),
(331,313,o),
(359,273,c),
(369,305,o),
(398,333,o),
(440,333,cs),
(474,333,o),
(497,310,o),
(502,275,c),
(506,310,o),
(529,332,o),
(563,332,cs),
(618,332,o),
(659,288,o),
(659,182,cs),
(659,73,o),
(591,-3,o),
(497,-3,cs),
(444,-3,o),
(410,22,o),
(395,37,cs),
(380,51,o),
(394,72,o),
(412,60,cs),
(425,50,o),
(451,27,o),
(497,27,cs),
(560,27,o),
(629,76,o),
(629,182,cs),
(629,231,o),
(615,302,o),
(564,302,cs),
(527,302,o),
(521,272,o),
(521,252,cs),
(521,228,o),
(489,230,o),
(485,252,cs),
(482,274,o),
(472,304,o),
(438,304,cs),
(414,304,o),
(384,280,o),
(384,246,cs),
(384,218,o),
(390,199,o),
(390,173,cs),
(390,56,o),
(311,-4,o),
(222,-4,cs),
(137,-4,o),
(107,37,o),
(67,77,cs),
(54,90,o),
(43,96,o),
(35,96,cs),
(11,96,o),
(10,131,o),
(37,131,cs),
(48,131,o),
(60,144,o),
(63,159,cs),
(95,315,o),
(206,422,o),
(367,560,cs),
(387,577,o),
(405,553,o),
(386,537,cs),
(222,398,o),
(116,285,o),
(91,146,cs),
(87,128,o),
(75,115,o),
(62,115,c),
(74,111,o),
(89,100,o),
(99,87,cs),
(129,53,o),
(156,27,o),
(222,27,cs),
(294,27,o),
(360,78,o),
(360,173,cs),
(360,244,o),
(306,306,o),
(233,306,cs),
(174,306,o),
(130,270,o),
(130,220,cs),
(130,181,o),
(152,149,o),
(194,149,cs),
(228,149,o),
(241,168,o),
(241,190,cs),
(241,196,o),
(237,203,o),
(234,204,c),
(233,194,o),
(223,188,o),
(214,188,cs),
(202,188,o),
(190,196,o),
(190,212,cs),
(190,231,o),
(206,241,o),
(223,241,cs),
(253,241,o),
(270,214,o),
(270,190,cs),
(270,146,o),
(244,119,o),
(194,119,cs),
(140,119,o),
(101,157,o),
(101,220,cs),
(101,291,o),
(162,336,o),
(233,336,cs)
);
}
);
width = 675;
}
);
unicode = 3499;
}
{
glyphname = sinNndda;
layers = (
{
layerId = "F0029E70-666A-46B3-82F3-BCA8DA6C0FED";
shapes = (
{
closed = 1;
nodes = (
(244,302,o),
(235,296,o),
(235,286,cs),
(235,259,o),
(260,257,o),
(281,254,cs),
(299,252,o),
(296,223,o),
(274,228,cs),
(259,232,o),
(243,235,o),
(223,235,cs),
(212,235,ls),
(168,235,o),
(138,190,o),
(138,130,cs),
(138,66,o),
(178,30,o),
(223,30,cs),
(276,30,o),
(306,72,o),
(306,135,cs),
(306,157,o),
(335,159,o),
(336,135,cs),
(338,72,o),
(365,30,o),
(417,30,cs),
(483,30,o),
(510,83,o),
(510,183,cs),
(510,348,o),
(374,457,o),
(224,457,cs),
(191,457,o),
(157,450,o),
(125,440,cs),
(101,433,o),
(91,459,o),
(114,469,cs),
(149,483,o),
(187,486,o),
(223,486,cs),
(386,486,o),
(540,366,o),
(540,183,cs),
(540,72,o),
(506,0,o),
(417,0,cs),
(375,0,o),
(331,27,o),
(321,67,c),
(310,28,o),
(270,0,o),
(223,0,cs),
(162,0,o),
(109,44,o),
(109,130,cs),
(109,199,o),
(138,233,o),
(166,246,c),
(158,246,ls),
(135,246,o),
(121,234,o),
(104,227,cs),
(84,220,o),
(74,244,o),
(89,253,cs),
(104,262,o),
(133,267,o),
(148,267,cs),
(154,267,o),
(161,267,o),
(169,267,c),
(154,274,o),
(131,300,o),
(103,300,cs),
(69,300,o),
(46,227,o),
(46,155,cs),
(46,78,o),
(65,33,o),
(94,23,cs),
(107,19,o),
(107,-1,o),
(90,0,cs),
(58,2,o),
(17,46,o),
(17,155,cs),
(17,248,o),
(46,329,o),
(102,329,cs),
(158,329,o),
(173,284,o),
(212,267,c),
(208,273,o),
(206,281,o),
(206,290,cs),
(206,310,o),
(222,329,o),
(253,329,cs),
(285,329,o),
(296,310,o),
(316,310,cs),
(333,310,o),
(335,283,o),
(314,283,cs),
(286,283,o),
(281,302,o),
(255,302,cs)
);
}
);
width = 556;
}
);
unicode = 3500;
}
{
glyphname = sinTa;
layers = (
{
layerId = "F0029E70-666A-46B3-82F3-BCA8DA6C0FED";
shapes = (
{
closed = 1;
nodes = (
(179,260,o),
(190,261,o),
(201,261,cs),
(265,261,o),
(323,207,o),
(323,128,cs),
(323,52,o),
(269,-3,o),
(190,-3,cs),
(80,-3,o),
(33,75,o),
(17,115,c),
(32,156,o),
(59,198,o),
(95,234,cs),
(105,246,o),
(114,258,o),
(114,270,cs),
(114,288,o),
(106,304,o),
(82,304,cs),
(57,304,o),
(45,289,o),
(45,269,cs),
(45,262,o),
(47,260,o),
(47,255,cs),
(49,238,o),
(31,235,o),
(24,247,cs),
(20,252,o),
(18,260,o),
(18,269,cs),
(18,309,o),
(46,330,o),
(82,330,cs),
(115,330,o),
(138,311,o),
(139,273,c),
(185,307,o),
(240,330,o),
(298,330,cs),
(437,330,o),
(496,230,o),
(496,140,cs),
(496,65,o),
(449,-3,o),
(373,-3,cs),
(348,-3,o),
(331,0,o),
(311,11,cs),
(294,21,o),
(307,45,o),
(324,36,cs),
(339,29,o),
(354,25,o),
(373,25,cs),
(430,25,o),
(467,79,o),
(467,140,cs),
(467,214,o),
(419,301,o),
(298,301,cs),
(252,301,o),
(208,284,o),
(170,258,c)
);
},
{
closed = 1;
nodes = (
(85,177,o),
(65,146,o),
(52,117,c),
(62,81,o),
(106,27,o),
(190,27,cs),
(251,27,o),
(295,67,o),
(295,128,cs),
(295,194,o),
(257,235,o),
(201,235,cs),
(158,235,o),
(138,233,o),
(110,205,cs)
);
}
);
width = 512;
}
);
unicode = 3501;
}
{
glyphname = sinTha;
layers = (
{
layerId = "F0029E70-666A-46B3-82F3-BCA8DA6C0FED";
shapes = (
{
closed = 1;
nodes = (
(352,98,o),
(296,23,o),
(194,23,cs),
(111,23,o),
(47,77,o),
(47,149,cs),
(47,209,o),
(80,246,o),
(125,246,cs),
(148,246,o),
(162,240,o),
(172,238,cs),
(192,234,o),
(197,262,o),
(178,267,cs),
(169,269,o),
(147,275,o),
(125,275,cs),
(61,275,o),
(17,231,o),
(17,149,cs),
(17,79,o),
(74,-6,o),
(194,-6,cs),
(314,-6,o),
(382,78,o),
(382,184,cs),
(382,330,o),
(261,459,o),
(206,526,cs),
(188,547,o),
(164,531,o),
(178,510,c),
(159,493,o),
(125,458,o),
(125,407,cs),
(125,348,o),
(168,323,o),
(209,323,cs),
(242,323,o),
(271,339,o),
(290,366,c),
(325,311,o),
(352,248,o),
(352,184,cs)
);
},
{
closed = 1;
nodes = (
(261,371,o),
(240,352,o),
(209,352,cs),
(180,352,o),
(154,371,o),
(154,407,cs),
(154,437,o),
(174,469,o),
(197,487,c),
(219,462,o),
(247,429,o),
(273,392,c)
);
}
);
width = 399;
}
);
unicode = 3502;
}
{
glyphname = sinDa;
layers = (
{
layerId = "F0029E70-666A-46B3-82F3-BCA8DA6C0FED";
shapes = (
{
closed = 1;
nodes = (
(83,-31,o),
(17,52,o),
(17,156,cs),
(17,232,o),
(64,298,o),
(140,298,cs),
(157,298,o),
(189,291,o),
(204,281,c),
(199,288,o),
(195,302,o),
(195,310,cs),
(195,329,o),
(209,339,o),
(228,339,cs),
(249,339,o),
(264,326,o),
(293,326,cs),
(316,326,o),
(316,292,o),
(291,292,cs),
(271,292,o),
(256,306,o),
(240,306,cs),
(233,306,o),
(230,302,o),
(230,298,cs),
(230,272,o),
(261,265,o),
(286,265,cs),
(292,265,o),
(298,266,o),
(302,266,cs),
(315,266,o),
(318,250,o),
(308,242,cs),
(303,238,o),
(294,236,o),
(281,236,cs),
(220,236,o),
(206,266,o),
(140,266,cs),
(76,266,o),
(48,204,o),
(48,152,cs),
(48,64,o),
(113,0,o),
(210,0,cs),
(255,0,o),
(286,12,o),
(301,23,cs),
(317,35,o),
(336,19,o),
(325,0,cs),
(300,-44,o),
(287,-75,o),
(287,-104,cs),
(287,-142,o),
(303,-157,o),
(322,-171,cs),
(338,-183,o),
(323,-207,o),
(304,-196,cs),
(278,-181,o),
(257,-153,o),
(257,-104,cs),
(257,-74,o),
(271,-41,o),
(286,-17,c),
(276,-22,o),
(251,-31,o),
(211,-31,cs)
);
}
);
width = 347;
}
);
unicode = 3503;
}
{
glyphname = sinDha;
layers = (
{
layerId = "F0029E70-666A-46B3-82F3-BCA8DA6C0FED";
shapes = (
{
closed = 1;
nodes = (
(240,27,o),
(280,0,o),
(323,0,cs),
(399,0,o),
(440,72,o),
(440,183,cs),
(440,366,o),
(299,486,o),
(140,486,cs),
(105,486,o),
(68,482,o),
(33,470,cs),
(7,462,o),
(16,431,o),
(42,440,cs),
(76,451,o),
(109,455,o),
(142,455,cs),
(285,455,o),
(409,348,o),
(409,183,cs),
(409,83,o),
(379,30,o),
(323,30,cs),
(270,30,o),
(244,72,o),
(244,135,cs),
(244,157,o),
(215,157,o),
(215,135,cs),
(215,72,o),
(187,30,o),
(135,30,cs),
(90,30,o),
(44,65,o),
(44,137,cs),
(44,201,o),
(85,244,o),
(132,244,cs),
(156,244,o),
(168,239,o),
(181,236,cs),
(200,232,o),
(205,259,o),
(188,263,cs),
(178,265,o),
(155,274,o),
(132,274,cs),
(69,274,o),
(15,223,o),
(15,137,cs),
(15,44,o),
(74,0,o),
(135,0,cs),
(180,0,o),
(216,28,o),
(229,67,c)
);
}
);
width = 456;
}
);
unicode = 3504;
}
{
glyphname = sinNa;
layers = (
{
layerId = "F0029E70-666A-46B3-82F3-BCA8DA6C0FED";
shapes = (
{
closed = 1;
nodes = (
(70,222,o),
(52,218,o),
(44,229,cs),
(39,236,o),
(35,246,o),
(35,258,cs),
(35,294,o),
(63,329,o),
(111,329,cs),
(160,329,o),
(189,299,o),
(189,251,cs),
(189,250,o),
(189,250,o),
(189,249,c),
(228,291,o),
(275,330,o),
(345,330,cs),
(454,330,o),
(530,273,o),
(530,146,cs),
(530,60,o),
(470,-6,o),
(404,-6,cs),
(378,-5,o),
(353,0,o),
(343,7,cs),
(323,19,o),
(338,43,o),
(358,35,cs),
(365,32,o),
(381,25,o),
(404,25,cs),
(452,25,o),
(499,80,o),
(499,146,cs),
(499,240,o),
(450,299,o),
(345,299,cs),
(288,299,o),
(248,269,o),
(213,232,c),
(216,233,o),
(219,234,o),
(222,234,cs),
(280,234,o),
(325,196,o),
(325,117,cs),
(325,33,o),
(254,-5,o),
(179,-5,cs),
(99,-5,o),
(45,55,o),
(18,125,cs),
(14,136,o),
(22,143,o),
(28,143,cs),
(36,143,o),
(43,141,o),
(51,141,cs),
(80,141,o),
(105,158,o),
(128,182,c),
(153,213,o),
(157,229,o),
(157,251,cs),
(157,282,o),
(133,301,o),
(111,301,cs),
(81,301,o),
(65,276,o),
(65,258,cs),
(65,248,o),
(70,245,o),
(70,236,cs)
);
},
{
closed = 1;
nodes = (
(132,144,o),
(99,114,o),
(54,114,c),
(70,72,o),
(124,26,o),
(179,26,cs),
(245,26,o),
(294,64,o),
(294,117,cs),
(294,175,o),
(261,204,o),
(222,204,cs),
(204,204,o),
(183,194,o),
(165,179,c)
);
}
);
width = 544;
}
);
unicode = 3505;
}
{
glyphname = sinNda;
layers = (
{
layerId = "F0029E70-666A-46B3-82F3-BCA8DA6C0FED";
shapes = (
{
closed = 1;
nodes = (
(390,-208,o),
(406,-184,o),
(388,-171,cs),
(369,-156,o),
(356,-146,o),
(353,-103,cs),
(351,-73,o),
(366,-33,o),
(386,15,cs),
(395,36,o),
(373,49,o),
(358,35,cs),
(341,20,o),
(301,6,o),
(241,10,cs),
(169,15,o),
(124,62,o),
(121,152,cs),
(119,204,o),
(150,289,o),
(226,289,cs),
(278,289,o),
(299,245,o),
(356,240,cs),
(364,239,o),
(373,239,o),
(379,242,cs),
(389,246,o),
(387,262,o),
(376,264,cs),
(372,265,o),
(367,265,o),
(362,266,cs),
(348,268,o),
(325,280,o),
(325,296,cs),
(325,301,o),
(328,306,o),
(334,306,cs),
(355,306,o),
(365,293,o),
(378,293,cs),
(395,293,o),
(396,320,o),
(379,320,cs),
(365,320,o),
(352,335,o),
(331,335,cs),
(311,335,o),
(295,327,o),
(295,307,cs),
(295,301,o),
(297,294,o),
(300,289,c),
(293,294,o),
(256,317,o),
(227,317,cs),
(206,317,o),
(186,312,o),
(170,305,c),
(158,311,o),
(140,316,o),
(123,316,cs),
(49,316,o),
(17,236,o),
(17,155,cs),
(17,58,o),
(50,11,o),
(83,2,cs),
(107,-5,o),
(113,19,o),
(94,27,cs),
(67,38,o),
(46,88,o),
(46,155,cs),
(46,218,o),
(70,286,o),
(123,286,cs),
(127,286,o),
(132,286,o),
(140,285,c),
(105,254,o),
(89,203,o),
(90,156,cs),
(93,47,o),
(140,-14,o),
(241,-21,cs),
(282,-24,o),
(336,-10,o),
(349,0,c),
(336,-36,o),
(322,-67,o),
(323,-105,cs),
(326,-160,o),
(346,-182,o),
(372,-198,cs)
);
}
);
width = 412;
}
);
unicode = 3507;
}
{
glyphname = sinPa;
layers = (
{
layerId = "F0029E70-666A-46B3-82F3-BCA8DA6C0FED";
shapes = (
{
closed = 1;
nodes = (
(256,233,o),
(254,260,o),
(272,263,cs),
(289,265,o),
(296,274,o),
(296,293,cs),
(296,303,o),
(293,307,o),
(293,315,cs),
(293,334,o),
(317,333,o),
(322,317,cs),
(323,313,o),
(324,307,o),
(324,301,cs),
(324,286,o),
(319,269,o),
(309,264,c),
(364,258,o),
(401,212,o),
(401,149,cs),
(401,57,o),
(320,-6,o),
(209,-6,cs),
(98,-6,o),
(17,57,o),
(17,149,cs),
(17,219,o),
(56,251,o),
(98,262,c),
(90,269,o),
(81,278,o),
(81,294,cs),
(81,319,o),
(98,336,o),
(130,336,cs),
(153,336,o),
(166,316,o),
(180,316,cs),
(194,316,o),
(195,290,o),
(178,290,cs),
(161,290,o),
(148,309,o),
(132,309,cs),
(117,309,o),
(111,302,o),
(111,293,cs),
(111,271,o),
(129,264,o),
(150,262,cs),
(166,261,o),
(164,235,o),
(148,236,cs),
(140,237,o),
(134,238,o),
(114,238,cs),
(87,238,o),
(46,210,o),
(46,149,cs),
(46,73,o),
(115,23,o),
(209,23,cs),
(306,23,o),
(372,75,o),
(372,149,cs),
(372,196,o),
(346,238,o),
(298,238,cs),
(291,238,o),
(283,237,o),
(275,236,cs)
);
}
);
width = 417;
}
);
unicode = 3508;
}
{
glyphname = sinPha;
layers = (
{
layerId = "F0029E70-666A-46B3-82F3-BCA8DA6C0FED";
shapes = (
{
closed = 1;
nodes = (
(357,83,o),
(306,22,o),
(202,22,cs),
(107,22,o),
(47,71,o),
(47,148,cs),
(47,186,o),
(72,219,o),
(107,219,cs),
(122,219,o),
(136,216,o),
(149,214,cs),
(168,210,o),
(175,237,o),
(155,242,cs),
(135,247,o),
(111,249,o),
(111,272,cs),
(111,280,o),
(118,287,o),
(126,287,cs),
(138,287,o),
(162,267,o),
(179,267,cs),
(202,267,o),
(199,296,o),
(180,296,cs),
(167,296,o),
(151,316,o),
(126,316,cs),
(98,316,o),
(82,298,o),
(81,281,cs),
(80,266,o),
(83,253,o),
(91,244,c),
(51,238,o),
(17,209,o),
(17,148,cs),
(17,50,o),
(89,-8,o),
(202,-8,cs),
(327,-8,o),
(388,60,o),
(388,175,cs),
(388,314,o),
(247,483,o),
(207,532,c),
(190,549,o),
(171,528,o),
(184,513,cs),
(218,474,o),
(357,307,o),
(357,175,cs)
);
},
{
closed = 1;
nodes = (
(168,498,o),
(130,460,o),
(130,409,cs),
(130,371,o),
(154,327,o),
(215,327,cs),
(257,327,o),
(292,357,o),
(304,376,c),
(287,402,l),
(281,383,o),
(247,357,o),
(215,357,cs),
(183,357,o),
(160,377,o),
(160,409,cs),
(160,449,o),
(187,479,o),
(212,493,c),
(194,515,l)
);
}
);
width = 404;
}
);
unicode = 3509;
}
{
glyphname = sinBa;
layers = (
{
layerId = "F0029E70-666A-46B3-82F3-BCA8DA6C0FED";
shapes = (
{
closed = 1;
nodes = (
(177,35,o),
(151,0,o),
(104,0,cs),
(24,0,o),
(17,94,o),
(17,140,cs),
(17,238,o),
(66,306,o),
(157,306,cs),
(220,306,o),
(277,262,o),
(277,201,cs),
(277,132,o),
(238,128,o),
(238,82,cs),
(238,64,o),
(248,30,o),
(304,30,cs),
(368,30,o),
(419,86,o),
(419,183,cs),
(419,346,o),
(306,459,o),
(158,459,cs),
(122,459,o),
(83,453,o),
(43,440,cs),
(19,432,o),
(11,461,o),
(33,469,cs),
(76,483,o),
(116,490,o),
(156,490,cs),
(319,490,o),
(449,364,o),
(449,183,cs),
(449,50,o),
(380,0,o),
(304,0,cs),
(233,0,o),
(204,44,o),
(204,82,cs),
(204,140,o),
(248,143,o),
(248,201,cs),
(248,247,o),
(204,276,o),
(157,276,cs),
(70,276,o),
(44,196,o),
(44,140,cs),
(44,129,o),
(44,120,o),
(45,112,c),
(50,126,o),
(71,149,o),
(104,149,cs),
(146,149,o),
(177,122,o),
(177,73,cs)
);
},
{
closed = 1;
nodes = (
(61,50,o),
(81,30,o),
(104,30,cs),
(128,30,o),
(147,50,o),
(147,73,cs),
(147,98,o),
(128,117,o),
(104,117,cs),
(81,117,o),
(61,98,o),
(61,73,cs)
);
}
);
width = 465;
}
);
unicode = 3510;
}
{
glyphname = sinBha;
layers = (
{
layerId = "F0029E70-666A-46B3-82F3-BCA8DA6C0FED";
shapes = (
{
closed = 1;
nodes = (
(314,143,o),
(293,175,o),
(257,175,cs),
(254,175,o),
(251,175,o),
(246,175,c),
(256,241,o),
(297,297,o),
(370,297,cs),
(427,297,o),
(485,257,o),
(485,161,cs),
(485,73,o),
(427,29,o),
(369,30,cs),
(356,30,o),
(342,31,o),
(331,35,cs),
(306,43,o),
(298,14,o),
(319,6,cs),
(334,1,o),
(352,1,o),
(369,0,cs),
(447,-2,o),
(515,64,o),
(515,161,cs),
(515,281,o),
(440,327,o),
(370,327,cs),
(285,327,o),
(233,271,o),
(219,174,cs),
(217,157,o),
(221,145,o),
(248,148,cs),
(273,151,o),
(284,134,o),
(284,100,cs),
(284,69,o),
(252,30,o),
(190,30,cs),
(129,30,o),
(63,64,o),
(63,139,cs),
(63,188,o),
(96,230,o),
(132,233,cs),
(145,234,o),
(162,230,o),
(170,228,cs),
(188,222,o),
(198,246,o),
(183,254,cs),
(173,260,o),
(165,261,o),
(158,263,cs),
(143,266,o),
(137,276,o),
(137,290,cs),
(137,299,o),
(145,306,o),
(155,306,cs),
(181,306,o),
(194,281,o),
(214,281,cs),
(233,281,o),
(233,311,o),
(215,311,cs),
(198,311,o),
(187,333,o),
(156,333,cs),
(125,333,o),
(109,314,o),
(109,294,cs),
(109,284,o),
(112,275,o),
(119,267,c),
(102,275,o),
(79,278,o),
(56,278,cs),
(45,278,o),
(34,277,o),
(22,276,cs),
(2,273,o),
(2,244,o),
(23,244,cs),
(41,244,o),
(51,251,o),
(75,251,cs),
(82,251,o),
(89,251,o),
(97,251,c),
(77,251,o),
(34,212,o),
(34,139,cs),
(34,42,o),
(117,0,o),
(190,0,cs),
(250,0,o),
(314,38,o),
(314,100,cs)
);
}
);
width = 519;
}
);
unicode = 3511;
}
{
glyphname = sinMa;
layers = (
{
layerId = "F0029E70-666A-46B3-82F3-BCA8DA6C0FED";
shapes = (
{
closed = 1;
nodes = (
(133,202,o),
(153,185,o),
(177,185,cs),
(202,185,o),
(221,206,o),
(221,229,cs),
(221,256,o),
(202,277,o),
(177,277,cs),
(147,277,o),
(133,251,o),
(133,229,cs)
);
},
{
closed = 1;
nodes = (
(263,500,o),
(406,406,o),
(406,223,cs),
(406,105,o),
(337,-6,o),
(194,-6,cs),
(86,-6,o),
(17,70,o),
(17,165,cs),
(17,252,o),
(77,313,o),
(160,313,cs),
(206,313,o),
(249,286,o),
(249,229,cs),
(249,193,o),
(219,155,o),
(177,155,cs),
(138,155,o),
(105,185,o),
(105,229,cs),
(105,246,o),
(110,267,o),
(115,275,c),
(78,267,o),
(46,220,o),
(46,165,cs),
(46,83,o),
(106,22,o),
(194,22,cs),
(308,22,o),
(377,107,o),
(377,223,cs),
(377,382,o),
(256,468,o),
(131,468,cs),
(103,468,o),
(73,465,o),
(43,459,cs),
(21,454,o),
(16,484,o),
(36,489,cs),
(67,496,o),
(97,499,o),
(131,499,cs)
);
}
);
width = 423;
}
);
unicode = 3512;
}
{
glyphname = sinMba;
layers = (
{
layerId = "F0029E70-666A-46B3-82F3-BCA8DA6C0FED";
shapes = (
{
closed = 1;
nodes = (
(151,224,o),
(169,204,o),
(193,204,cs),
(215,204,o),
(235,224,o),
(235,246,cs),
(235,270,o),
(215,288,o),
(193,288,cs),
(169,288,o),
(151,270,o),
(151,246,cs)
);
},
{
closed = 1;
nodes = (
(229,319,o),
(264,294,o),
(264,246,cs),
(264,214,o),
(238,178,o),
(193,178,cs),
(146,178,o),
(123,212,o),
(123,246,cs),
(123,263,o),
(128,276,o),
(136,287,c),
(85,277,o),
(46,231,o),
(46,155,cs),
(46,114,o),
(64,30,o),
(133,30,cs),
(154,30,o),
(176,35,o),
(176,48,cs),
(176,61,o),
(165,73,o),
(165,102,cs),
(165,142,o),
(195,169,o),
(235,169,cs),
(281,169,o),
(305,136,o),
(305,102,cs),
(305,72,o),
(293,61,o),
(293,48,cs),
(293,35,o),
(313,30,o),
(331,30,cs),
(389,30,o),
(420,98,o),
(420,183,cs),
(420,347,o),
(288,456,o),
(144,456,cs),
(111,456,o),
(62,452,o),
(45,449,cs),
(20,444,o),
(13,474,o),
(40,479,cs),
(63,483,o),
(102,486,o),
(144,486,cs),
(302,486,o),
(451,366,o),
(451,183,cs),
(451,92,o),
(415,0,o),
(331,0,cs),
(281,0,o),
(264,26,o),
(264,46,cs),
(264,68,o),
(276,73,o),
(276,102,cs),
(276,123,o),
(260,140,o),
(235,140,cs),
(212,140,o),
(194,123,o),
(194,102,cs),
(194,74,o),
(206,69,o),
(206,46,cs),
(206,28,o),
(187,0,o),
(133,0,cs),
(46,0,o),
(17,91,o),
(17,155,cs),
(17,265,o),
(76,319,o),
(183,319,cs)
);
}
);
width = 467;
}
);
unicode = 3513;
}
{
glyphname = sinYa;
layers = (
{
layerId = "F0029E70-666A-46B3-82F3-BCA8DA6C0FED";
shapes = (
{
closed = 1;
nodes = (
(391,334,o),
(394,325,o),
(394,317,cs),
(394,306,o),
(391,296,o),
(383,290,c),
(457,290,o),
(501,225,o),
(501,152,cs),
(501,52,o),
(436,0,o),
(363,0,cs),
(316,0,o),
(271,23,o),
(259,57,c),
(246,23,o),
(205,0,o),
(155,0,cs),
(77,0,o),
(15,53,o),
(15,150,cs),
(15,246,o),
(82,296,o),
(146,296,cs),
(171,296,o),
(183,293,o),
(193,291,cs),
(216,288,o),
(214,259,o),
(191,261,cs),
(180,262,o),
(172,267,o),
(145,267,cs),
(96,267,o),
(45,222,o),
(45,150,cs),
(45,72,o),
(92,30,o),
(155,30,cs),
(212,30,o),
(244,67,o),
(244,98,cs),
(244,121,o),
(273,121,o),
(273,98,cs),
(273,66,o),
(307,30,o),
(363,30,cs),
(421,30,o),
(471,74,o),
(471,152,cs),
(471,216,o),
(433,264,o),
(373,264,cs),
(346,264,o),
(343,260,o),
(323,258,cs),
(302,256,o),
(299,287,o),
(319,289,cs),
(346,291,o),
(364,292,o),
(364,317,cs),
(364,322,o),
(360,331,o),
(360,339,cs),
(360,356,o),
(385,356,o),
(389,342,cs)
);
}
);
width = 517;
}
);
unicode = 3514;
}
{
glyphname = sinRa;
layers = (
{
layerId = "F0029E70-666A-46B3-82F3-BCA8DA6C0FED";
shapes = (
{
closed = 1;
nodes = (
(377,75,o),
(296,-6,o),
(197,-6,cs),
(97,-6,o),
(17,75,o),
(17,174,cs),
(17,239,o),
(39,282,o),
(74,336,cs),
(114,397,o),
(191,487,o),
(279,575,cs),
(297,593,o),
(319,569,o),
(300,552,cs),
(209,473,o),
(116,359,o),
(87,310,c),
(115,336,o),
(153,354,o),
(197,354,cs),
(301,354,o),
(377,274,o),
(377,174,cs)
);
},
{
closed = 1;
nodes = (
(48,90,o),
(114,25,o),
(197,25,cs),
(281,25,o),
(346,91,o),
(346,174,cs),
(346,256,o),
(277,325,o),
(197,325,cs),
(115,325,o),
(48,264,o),
(48,174,cs)
);
}
);
width = 393;
}
);
unicode = 3515;
}
{
glyphname = sinLa;
layers = (
{
layerId = "F0029E70-666A-46B3-82F3-BCA8DA6C0FED";
shapes = (
{
closed = 1;
nodes = (
(390,-137,o),
(331,-154,o),
(278,-154,cs),
(115,-154,o),
(17,-37,o),
(17,98,cs),
(17,261,o),
(138,341,o),
(247,341,cs),
(374,341,o),
(454,264,o),
(454,156,cs),
(454,67,o),
(390,11,o),
(304,11,cs),
(234,11,o),
(181,52,o),
(181,122,cs),
(181,180,o),
(231,207,o),
(266,207,cs),
(301,207,o),
(333,188,o),
(333,151,cs),
(333,128,o),
(317,110,o),
(298,110,cs),
(279,110,o),
(269,120,o),
(269,134,cs),
(269,145,o),
(277,155,o),
(289,155,cs),
(297,155,o),
(303,151,o),
(306,144,c),
(306,146,o),
(306,148,o),
(306,149,cs),
(306,168,o),
(288,177,o),
(266,177,cs),
(238,177,o),
(212,153,o),
(212,122,cs),
(212,68,o),
(249,41,o),
(304,41,cs),
(377,41,o),
(422,85,o),
(423,156,cs),
(425,267,o),
(334,311,o),
(247,311,cs),
(151,311,o),
(48,243,o),
(48,98,cs),
(48,-24,o),
(136,-124,o),
(278,-124,cs),
(330,-124,o),
(372,-113,o),
(410,-89,cs),
(430,-76,o),
(447,-100,o),
(423,-115,cs)
);
}
);
width = 471;
}
);
unicode = 3517;
}
{
glyphname = sinVa;
layers = (
{
layerId = "F0029E70-666A-46B3-82F3-BCA8DA6C0FED";
shapes = (
{
closed = 1;
nodes = (
(394,99,o),
(333,-7,o),
(206,-7,cs),
(98,-7,o),
(30,47,o),
(30,139,cs),
(30,205,o),
(81,246,o),
(123,246,c),
(112,255,o),
(106,268,o),
(106,279,cs),
(106,304,o),
(124,321,o),
(152,321,cs),
(180,321,o),
(194,296,o),
(209,296,cs),
(227,296,o),
(227,269,o),
(209,269,cs),
(182,269,o),
(173,294,o),
(154,294,cs),
(143,294,o),
(134,286,o),
(134,277,cs),
(134,257,o),
(157,249,o),
(174,243,cs),
(193,237,o),
(187,209,o),
(162,215,cs),
(151,218,o),
(140,220,o),
(129,220,cs),
(88,217,o),
(59,183,o),
(59,139,cs),
(59,68,o),
(115,23,o),
(206,23,cs),
(313,23,o),
(364,122,o),
(364,206,cs),
(364,366,o),
(244,451,o),
(119,451,cs),
(92,451,o),
(65,447,o),
(38,439,c),
(15,432,o),
(6,460,o),
(29,468,cs),
(59,478,o),
(88,483,o),
(119,483,cs),
(260,483,o),
(394,375,o),
(394,206,cs)
);
}
);
width = 410;
}
);
unicode = 3520;
}
{
glyphname = sinSha;
layers = (
{
layerId = "F0029E70-666A-46B3-82F3-BCA8DA6C0FED";
shapes = (
{
closed = 1;
nodes = (
(331,87,o),
(348,104,o),
(367,104,cs),
(393,103,o),
(406,90,o),
(406,67,cs),
(406,49,o),
(395,30,o),
(370,30,cs),
(350,30,o),
(331,45,o),
(331,68,cs)
);
},
{
closed = 1;
nodes = (
(238,328,o),
(191,246,o),
(191,165,cs),
(191,146,o),
(201,141,o),
(215,141,cs),
(240,141,o),
(254,127,o),
(254,97,cs),
(254,65,o),
(220,27,o),
(160,27,cs),
(99,27,o),
(28,62,o),
(28,159,cs),
(28,248,o),
(98,299,o),
(155,299,cs),
(167,299,o),
(178,297,o),
(191,292,cs),
(213,283,o),
(221,310,o),
(205,318,cs),
(188,327,o),
(171,328,o),
(155,328,cs),
(79,328,o),
(-2,257,o),
(-2,159,cs),
(-2,38,o),
(86,-2,o),
(160,-2,cs),
(223,-2,o),
(283,38,o),
(283,97,cs),
(283,143,o),
(256,168,o),
(222,168,c),
(222,227,o),
(257,299,o),
(338,299,cs),
(404,299,o),
(464,267,o),
(464,163,cs),
(464,125,o),
(452,88,o),
(433,64,c),
(433,69,o),
(433,74,o),
(433,78,cs),
(433,109,o),
(406,132,o),
(368,132,cs),
(332,132,o),
(303,111,o),
(303,65,cs),
(303,29,o),
(328,0,o),
(380,-1,cs),
(430,-1,o),
(493,68,o),
(493,163,cs),
(493,277,o),
(425,328,o),
(338,328,cs)
);
}
);
width = 494;
}
);
unicode = 3521;
}
{
glyphname = sinSsa;
layers = (
{
layerId = "F0029E70-666A-46B3-82F3-BCA8DA6C0FED";
shapes = (
{
closed = 1;
nodes = (
(238,44,o),
(208,44,o),
(208,67,cs),
(208,101,o),
(207,129,o),
(207,140,cs),
(207,155,o),
(194,171,o),
(187,174,cs),
(176,180,o),
(174,203,o),
(191,203,cs),
(200,203,o),
(210,196,o),
(217,214,cs),
(238,263,o),
(231,343,o),
(310,338,cs),
(348,336,o),
(354,308,o),
(354,295,cs),
(354,273,o),
(338,260,o),
(320,257,c),
(381,257,o),
(419,205,o),
(419,151,cs),
(419,53,o),
(338,-5,o),
(222,-5,cs),
(105,-5,o),
(17,53,o),
(17,151,cs),
(17,205,o),
(49,257,o),
(107,257,cs),
(109,257,l),
(96,267,o),
(91,278,o),
(91,291,cs),
(91,314,o),
(109,338,o),
(140,338,cs),
(171,338,o),
(182,310,o),
(202,310,cs),
(217,310,o),
(219,281,o),
(202,281,cs),
(173,281,o),
(166,309,o),
(142,309,cs),
(130,309,o),
(120,302,o),
(120,291,cs),
(120,274,o),
(142,265,o),
(156,256,cs),
(169,246,o),
(171,225,o),
(151,225,cs),
(137,225,o),
(127,229,o),
(114,229,cs),
(70,229,o),
(49,194,o),
(49,151,cs),
(49,71,o),
(124,27,o),
(222,27,cs),
(320,27,o),
(387,71,o),
(387,151,cs),
(387,197,o),
(363,236,o),
(298,236,cs),
(278,236,o),
(273,258,o),
(288,269,cs),
(302,277,o),
(326,278,o),
(326,296,cs),
(326,302,o),
(322,311,o),
(308,311,cs),
(239,311,o),
(264,205,o),
(219,179,c),
(225,172,o),
(238,157,o),
(238,132,cs),
(238,67,ls)
);
}
);
width = 435;
}
);
unicode = 3522;
}
{
glyphname = sinSa;
layers = (
{
layerId = "F0029E70-666A-46B3-82F3-BCA8DA6C0FED";
shapes = (
{
closed = 1;
nodes = (
(243,24,o),
(199,-4,o),
(147,-4,cs),
(80,-4,o),
(22,42,o),
(22,129,cs),
(22,212,o),
(77,249,o),
(107,249,c),
(98,249,o),
(91,249,o),
(85,249,cs),
(61,249,o),
(50,242,o),
(33,242,cs),
(9,242,o),
(12,267,o),
(32,272,cs),
(43,275,o),
(56,277,o),
(67,277,cs),
(89,277,o),
(111,273,o),
(128,265,c),
(122,273,o),
(119,282,o),
(119,292,cs),
(119,312,o),
(135,331,o),
(166,331,cs),
(198,331,o),
(212,306,o),
(228,306,cs),
(243,306,o),
(244,280,o),
(227,280,cs),
(206,280,o),
(192,305,o),
(167,305,cs),
(157,305,o),
(147,298,o),
(147,288,cs),
(147,279,o),
(150,273,o),
(157,267,cs),
(165,260,o),
(180,254,o),
(200,249,cs),
(214,246,o),
(212,221,o),
(196,221,cs),
(175,221,o),
(169,231,o),
(141,231,cs),
(87,231,o),
(51,186,o),
(51,129,cs),
(51,63,o),
(96,26,o),
(147,26,cs),
(207,26,o),
(241,63,o),
(241,118,cs),
(241,142,o),
(270,141,o),
(270,118,cs),
(270,63,o),
(304,26,o),
(362,26,cs),
(414,26,o),
(459,63,o),
(459,129,cs),
(459,186,o),
(423,231,o),
(368,231,cs),
(341,231,o),
(334,221,o),
(313,221,cs),
(298,221,o),
(293,245,o),
(310,249,cs),
(325,253,o),
(339,258,o),
(347,263,cs),
(354,267,o),
(360,275,o),
(360,286,cs),
(360,291,o),
(358,298,o),
(355,306,cs),
(348,325,o),
(376,333,o),
(383,314,cs),
(386,305,o),
(389,296,o),
(389,286,cs),
(389,275,o),
(385,264,o),
(378,256,c),
(385,256,ls),
(449,256,o),
(488,191,o),
(488,129,cs),
(488,42,o),
(429,-4,o),
(362,-4,cs),
(315,-4,o),
(267,23,o),
(256,63,c)
);
}
);
width = 505;
}
);
unicode = 3523;
}
{
glyphname = sinHa;
layers = (
{
layerId = "F0029E70-666A-46B3-82F3-BCA8DA6C0FED";
shapes = (
{
closed = 1;
nodes = (
(175,306,o),
(180,280,o),
(209,280,cs),
(228,280,o),
(227,308,o),
(210,308,cs),
(190,308,o),
(179,333,o),
(148,333,cs),
(119,333,o),
(102,315,o),
(102,294,cs),
(102,281,o),
(107,268,o),
(119,259,c),
(68,259,o),
(17,218,o),
(17,138,cs),
(17,43,o),
(89,-3,o),
(169,-3,cs),
(229,-3,o),
(305,25,o),
(305,110,cs),
(305,163,o),
(277,195,o),
(235,189,c),
(246,240,o),
(286,291,o),
(360,291,cs),
(426,291,o),
(479,251,o),
(479,152,cs),
(479,69,o),
(423,27,o),
(367,27,cs),
(351,27,o),
(337,28,o),
(325,32,cs),
(304,38,o),
(296,14,o),
(315,6,cs),
(332,0,o),
(346,-3,o),
(367,-3,cs),
(443,-3,o),
(509,59,o),
(509,152,cs),
(509,275,o),
(433,321,o),
(360,321,cs),
(273,321,o),
(224,270,o),
(206,186,cs),
(203,170,o),
(214,158,o),
(234,162,cs),
(257,167,o),
(275,146,o),
(275,110,cs),
(275,62,o),
(238,27,o),
(169,27,cs),
(102,27,o),
(46,65,o),
(46,138,cs),
(46,190,o),
(73,233,o),
(124,233,cs),
(138,233,o),
(149,232,o),
(162,228,cs),
(182,221,o),
(189,248,o),
(171,256,cs),
(151,264,o),
(130,266,o),
(130,290,cs),
(130,300,o),
(138,306,o),
(149,306,cs)
);
}
);
width = 523;
}
);
unicode = 3524;
}
{
glyphname = sinLla;
layers = (
{
layerId = "F0029E70-666A-46B3-82F3-BCA8DA6C0FED";
shapes = (
{
closed = 1;
nodes = (
(148,264,o),
(194,277,o),
(242,277,cs),
(293,277,o),
(329,268,o),
(347,254,c),
(350,262,o),
(354,273,o),
(357,281,c),
(343,294,o),
(307,319,o),
(247,319,cs),
(181,319,o),
(134,285,o),
(110,239,c)
);
},
{
closed = 1;
nodes = (
(84,286,o),
(158,348,o),
(247,348,cs),
(331,348,o),
(375,309,o),
(391,284,c),
(385,267,o),
(378,252,o),
(372,238,c),
(381,232,o),
(386,227,o),
(389,222,cs),
(399,206,o),
(381,190,o),
(367,203,cs),
(343,224,o),
(317,248,o),
(242,248,cs),
(184,248,o),
(130,227,o),
(93,188,c),
(89,110,o),
(135,33,o),
(211,33,cs),
(261,33,o),
(284,61,o),
(284,101,cs),
(284,114,o),
(278,125,o),
(264,130,c),
(267,128,o),
(268,124,o),
(268,120,cs),
(268,108,o),
(259,99,o),
(246,99,cs),
(233,99,o),
(223,111,o),
(223,123,cs),
(223,141,o),
(239,157,o),
(257,157,cs),
(289,157,o),
(310,131,o),
(310,99,cs),
(310,48,o),
(273,4,o),
(212,4,cs),
(131,4,o),
(78,63,o),
(67,152,c),
(52,125,o),
(44,93,o),
(44,56,cs),
(44,-56,o),
(136,-135,o),
(254,-131,cs),
(344,-128,o),
(388,-73,o),
(415,-46,cs),
(432,-30,o),
(448,-49,o),
(435,-64,cs),
(407,-94,o),
(343,-159,o),
(254,-159,cs),
(109,-159,o),
(17,-69,o),
(17,56,cs),
(17,116,o),
(36,165,o),
(67,202,c)
);
}
);
width = 459;
}
);
unicode = 3525;
}
{
glyphname = sinFa;
layers = (
{
layerId = "F0029E70-666A-46B3-82F3-BCA8DA6C0FED";
shapes = (
{
closed = 1;
nodes = (
(98,28,o),
(46,86,o),
(46,161,cs),
(46,251,o),
(97,302,o),
(154,302,cs),
(211,302,o),
(244,264,o),
(244,209,cs),
(244,187,o),
(273,186,o),
(273,209,cs),
(273,264,o),
(302,302,o),
(355,302,cs),
(416,302,o),
(470,251,o),
(470,161,cs),
(470,86,o),
(417,28,o),
(347,28,cs),
(326,28,o),
(323,-2,o),
(347,-2,cs),
(435,-2,o),
(499,69,o),
(499,161,cs),
(499,273,o),
(431,331,o),
(355,331,cs),
(309,331,o),
(271,309,o),
(259,277,c),
(248,309,o),
(200,331,o),
(154,331,cs),
(81,331,o),
(17,273,o),
(17,161,cs),
(17,69,o),
(81,-2,o),
(168,-2,cs),
(193,-2,o),
(188,28,o),
(168,28,cs)
);
}
);
width = 516;
}
);
unicode = 3526;
}
{
glyphname = sinVirama;
layers = (
{
layerId = "F0029E70-666A-46B3-82F3-BCA8DA6C0FED";
shapes = (
{
closed = 1;
nodes = (
(22,606,o),
(52,605,o),
(52,581,c),
(57,578,o),
(62,577,o),
(69,577,cs),
(94,577,o),
(106,591,o),
(129,591,cs),
(151,591,o),
(178,574,o),
(178,535,cs),
(178,487,o),
(146,448,o),
(101,448,cs),
(80,448,o),
(64,456,o),
(51,465,c),
(51,410,ls),
(51,309,l),
(23,312,l),
(22,359,o),
(22,404,o),
(22,436,cs),
(22,484,o),
(22,534,o),
(22,581,cs)
);
},
{
closed = 1;
nodes = (
(101,562,o),
(91,549,o),
(71,549,cs),
(62,549,o),
(56,552,o),
(52,554,c),
(51,535,o),
(51,515,o),
(51,496,c),
(60,486,o),
(76,477,o),
(98,477,cs),
(128,477,o),
(147,500,o),
(147,531,cs),
(147,555,o),
(134,562,o),
(120,562,cs)
);
}
);
width = 204;
}
);
unicode = 3530;
}
{
glyphname = sinMatraAa;
layers = (
{
layerId = "F0029E70-666A-46B3-82F3-BCA8DA6C0FED";
shapes = (
{
closed = 1;
nodes = (
(39,209,o),
(12,228,o),
(12,264,cs),
(12,307,o),
(46,332,o),
(87,332,cs),
(151,332,o),
(183,267,o),
(183,168,cs),
(183,67,o),
(148,0,o),
(83,0,cs),
(58,0,o),
(43,7,o),
(36,11,cs),
(20,22,o),
(32,47,o),
(51,37,cs),
(58,33,o),
(68,30,o),
(83,30,cs),
(130,30,o),
(153,89,o),
(153,168,cs),
(153,226,o),
(138,303,o),
(87,303,cs),
(61,303,o),
(41,290,o),
(41,264,cs),
(41,248,o),
(51,237,o),
(62,237,cs),
(81,237,o),
(83,209,o),
(61,209,cs)
);
}
);
width = 199;
}
);
unicode = 3535;
}
{
glyphname = sinMatraAe;
layers = (
{
layerId = "F0029E70-666A-46B3-82F3-BCA8DA6C0FED";
shapes = (
{
closed = 1;
nodes = (
(333,83,o),
(273,0,o),
(160,0,cs),
(86,0,o),
(45,54,o),
(22,115,cs),
(14,136,o),
(40,148,o),
(50,123,cs),
(70,74,o),
(106,29,o),
(160,29,cs),
(243,29,o),
(297,85,o),
(332,154,cs),
(342,173,o),
(366,163,o),
(358,143,cs)
);
}
);
width = 380;
}
);
unicode = 3536;
}
{
glyphname = sinMatraAae;
layers = (
{
layerId = "F0029E70-666A-46B3-82F3-BCA8DA6C0FED";
shapes = (
{
closed = 1;
nodes = (
(71,113,l),
(98,160,l),
(104,173,o),
(111,182,o),
(127,182,cs),
(142,182,o),
(151,169,o),
(151,152,cs),
(151,82,o),
(164,30,o),
(238,30,cs),
(308,30,o),
(371,95,o),
(396,178,cs),
(401,198,o),
(429,195,o),
(423,171,cs),
(405,89,o),
(330,0,o),
(238,0,cs),
(128,0,o),
(123,88,o),
(123,147,c),
(119,137,o),
(92,90,o),
(86,81,cs),
(79,68,o),
(62,66,o),
(54,83,cs),
(19,154,ls),
(8,176,o),
(37,188,o),
(46,166,c)
);
}
);
width = 442;
}
);
unicode = 3537;
}
{
glyphname = sinMatraI;
layers = (
{
layerId = "F0029E70-666A-46B3-82F3-BCA8DA6C0FED";
shapes = (
{
closed = 1;
nodes = (
(215,331,o),
(199,330,o),
(185,330,cs),
(75,330,o),
(18,393,o),
(17,467,cs),
(15,552,o),
(83,600,o),
(154,600,cs),
(237,600,o),
(291,554,o),
(291,487,cs),
(291,417,o),
(242,392,o),
(209,392,cs),
(188,392,o),
(164,397,o),
(151,412,cs),
(141,426,o),
(154,442,o),
(169,433,cs),
(186,422,o),
(197,420,o),
(209,420,cs),
(233,420,o),
(262,439,o),
(262,487,cs),
(262,535,o),
(225,570,o),
(154,570,cs),
(93,570,o),
(43,531,o),
(44,467,cs),
(44,411,o),
(90,358,o),
(185,358,cs),
(200,358,o),
(211,358,o),
(228,360,cs),
(249,363,o),
(255,336,o),
(231,333,cs)
);
}
);
width = 307;
}
);
unicode = 3538;
}
{
glyphname = sinMatraIi;
layers = (
{
layerId = "F0029E70-666A-46B3-82F3-BCA8DA6C0FED";
shapes = (
{
closed = 1;
nodes = (
(221,330,o),
(195,327,o),
(175,327,cs),
(74,327,o),
(17,388,o),
(17,467,cs),
(17,554,o),
(86,600,o),
(161,600,cs),
(236,600,o),
(294,559,o),
(294,481,cs),
(295,409,o),
(236,379,o),
(190,379,cs),
(150,379,o),
(119,401,o),
(119,443,cs),
(119,473,o),
(143,501,o),
(179,501,cs),
(217,501,o),
(240,473,o),
(240,443,cs),
(240,434,o),
(235,418,o),
(235,418,c),
(235,418,o),
(267,437,o),
(267,478,cs),
(267,532,o),
(228,570,o),
(161,570,cs),
(103,570,o),
(46,533,o),
(46,467,cs),
(46,400,o),
(97,357,o),
(176,357,cs),
(196,357,o),
(216,359,o),
(239,363,cs),
(260,367,o),
(268,339,o),
(244,335,cs)
);
},
{
closed = 1;
nodes = (
(148,421,o),
(161,409,o),
(179,409,cs),
(198,409,o),
(212,420,o),
(212,441,cs),
(212,459,o),
(199,473,o),
(179,473,cs),
(161,473,o),
(148,459,o),
(148,441,cs)
);
}
);
width = 311;
}
);
unicode = 3539;
}
{
glyphname = sinMatraU;
layers = (
{
layerId = "F0029E70-666A-46B3-82F3-BCA8DA6C0FED";
shapes = (
{
closed = 1;
nodes = (
(134,-267,ls),
(52,-267,o),
(17,-220,o),
(17,-149,cs),
(17,-106,o),
(30,-59,o),
(52,-16,cs),
(61,4,o),
(86,-9,o),
(78,-28,cs),
(58,-72,o),
(46,-110,o),
(46,-151,cs),
(46,-209,o),
(72,-237,o),
(134,-237,cs),
(307,-237,ls),
(318,-237,o),
(321,-231,o),
(321,-218,cs),
(321,25,l),
(350,25,l),
(350,-245,ls),
(350,-259,o),
(340,-267,o),
(326,-267,cs)
);
}
);
width = 367;
}
);
unicode = 3540;
}
{
glyphname = sinMatraUu;
layers = (
{
layerId = "F0029E70-666A-46B3-82F3-BCA8DA6C0FED";
shapes = (
{
closed = 1;
nodes = (
(376,-269,o),
(351,-272,o),
(338,-259,cs),
(307,-227,o),
(262,-183,o),
(241,-162,c),
(245,-214,o),
(208,-267,o),
(131,-267,cs),
(62,-267,o),
(17,-217,o),
(17,-142,cs),
(17,-97,o),
(39,-51,o),
(59,-12,cs),
(69,9,o),
(96,-3,o),
(85,-25,cs),
(64,-66,o),
(45,-104,o),
(45,-146,cs),
(45,-205,o),
(82,-237,o),
(131,-237,cs),
(174,-237,o),
(212,-212,o),
(212,-167,cs),
(212,-157,o),
(212,-148,o),
(212,-136,cs),
(212,-120,o),
(233,-115,o),
(244,-126,cs),
(267,-148,o),
(320,-200,o),
(346,-227,c),
(346,31,l),
(376,31,l),
(376,-246,ls)
);
}
);
width = 393;
}
);
unicode = 3542;
}
{
glyphname = sinMatraR;
layers = (
{
layerId = "F0029E70-666A-46B3-82F3-BCA8DA6C0FED";
shapes = (
{
closed = 1;
nodes = (
(128,91,o),
(111,110,o),
(88,110,cs),
(65,110,o),
(49,91,o),
(49,71,cs),
(49,48,o),
(67,31,o),
(87,31,cs),
(110,31,o),
(128,47,o),
(128,70,cs)
);
},
{
closed = 1;
nodes = (
(88,238,o),
(90,210,o),
(68,210,cs),
(41,210,o),
(17,227,o),
(17,260,cs),
(17,295,o),
(40,328,o),
(94,328,cs),
(166,328,o),
(206,251,o),
(206,176,cs),
(206,46,o),
(144,0,o),
(91,0,cs),
(48,0,o),
(20,29,o),
(20,71,cs),
(20,115,o),
(54,140,o),
(88,140,cs),
(135,140,o),
(156,101,o),
(156,73,c),
(166,86,o),
(177,128,o),
(177,177,cs),
(177,234,o),
(151,298,o),
(94,298,cs),
(72,298,o),
(47,290,o),
(47,260,cs),
(47,250,o),
(54,238,o),
(69,238,cs)
);
}
);
width = 222;
}
);
unicode = 3544;
}
{
glyphname = sinMatraE;
layers = (
{
layerId = "F0029E70-666A-46B3-82F3-BCA8DA6C0FED";
shapes = (
{
closed = 1;
nodes = (
(287,41,o),
(236,-6,o),
(164,-6,cs),
(75,-6,o),
(17,65,o),
(17,151,cs),
(17,259,o),
(112,331,o),
(197,331,cs),
(230,331,o),
(246,329,o),
(275,322,cs),
(298,316,o),
(290,285,o),
(266,293,cs),
(247,298,o),
(231,302,o),
(199,302,cs),
(129,302,o),
(46,241,o),
(46,153,cs),
(46,88,o),
(88,25,o),
(165,25,cs),
(213,25,o),
(255,56,o),
(255,105,cs),
(255,150,o),
(228,172,o),
(201,172,cs),
(177,172,o),
(160,159,o),
(160,142,cs),
(160,138,o),
(161,136,o),
(162,133,c),
(162,142,o),
(169,151,o),
(183,151,cs),
(198,151,o),
(206,140,o),
(206,124,cs),
(206,107,o),
(191,96,o),
(173,96,cs),
(152,97,o),
(131,112,o),
(131,141,cs),
(131,180,o),
(167,202,o),
(200,202,cs),
(244,202,o),
(287,167,o),
(287,106,cs)
);
}
);
width = 307;
}
);
unicode = 3545;
}
{
glyphname = sinMatraLs;
layers = (
{
layerId = "F0029E70-666A-46B3-82F3-BCA8DA6C0FED";
shapes = (
{
closed = 1;
nodes = (
(94,31,o),
(116,27,o),
(135,30,cs),
(189,40,o),
(214,101,o),
(219,160,cs),
(222,197,o),
(218,280,o),
(167,280,cs),
(146,280,o),
(133,262,o),
(129,235,c),
(152,234,o),
(164,216,o),
(164,191,cs),
(164,162,o),
(148,127,o),
(94,127,cs),
(51,127,o),
(17,154,o),
(17,223,cs),
(17,279,o),
(52,310,o),
(79,310,cs),
(91,310,o),
(100,308,o),
(106,304,cs),
(116,298,o),
(114,280,o),
(99,280,cs),
(92,279,o),
(90,282,o),
(79,282,cs),
(66,282,o),
(45,266,o),
(45,223,cs),
(45,177,o),
(65,156,o),
(94,156,cs),
(125,156,o),
(136,175,o),
(136,191,cs),
(136,201,o),
(131,206,o),
(122,206,cs),
(105,206,o),
(99,205,o),
(99,224,c),
(101,281,o),
(130,310,o),
(165,311,cs),
(238,313,o),
(251,217,o),
(248,160,cs),
(244,86,o),
(208,4,o),
(134,0,cs),
(112,-1,o),
(85,1,o),
(72,10,cs),
(55,20,o),
(66,43,o),
(85,35,cs)
);
}
);
width = 265;
}
);
unicode = 3551;
}
{
glyphname = LithZero;
layers = (
{
layerId = "F0029E70-666A-46B3-82F3-BCA8DA6C0FED";
shapes = (
{
closed = 1;
nodes = (
(130,0,l),
(130,97,l),
(143,88,o),
(159,81,o),
(184,81,cs),
(237,81,o),
(275,127,o),
(275,185,cs),
(275,243,o),
(239,282,o),
(187,282,cs),
(162,282,o),
(144,273,o),
(130,264,c),
(130,321,ls),
(130,329,o),
(122,332,o),
(118,334,cs),
(62,353,o),
(17,319,o),
(17,273,cs),
(16,236,o),
(47,209,o),
(79,209,cs),
(88,209,o),
(94,210,o),
(100,212,c),
(100,0,l)
);
},
{
closed = 1;
nodes = (
(100,242,l),
(95,239,o),
(89,238,o),
(80,238,cs),
(70,238,o),
(48,248,o),
(48,270,cs),
(48,304,o),
(80,312,o),
(100,304,c)
);
},
{
closed = 1;
nodes = (
(130,231,l),
(147,243,o),
(162,252,o),
(186,252,cs),
(223,252,o),
(245,222,o),
(245,186,cs),
(245,146,o),
(220,111,o),
(184,111,cs),
(160,111,o),
(144,118,o),
(130,129,c)
);
}
);
width = 291;
}
);
unicode = 3558;
}
{
glyphname = LithOne;
layers = (
{
layerId = "F0029E70-666A-46B3-82F3-BCA8DA6C0FED";
shapes = (
{
closed = 1;
nodes = (
(286,165,o),
(246,202,o),
(200,202,cs),
(167,202,o),
(131,180,o),
(131,141,cs),
(131,109,o),
(152,97,o),
(173,96,cs),
(189,96,o),
(205,107,o),
(206,121,cs),
(208,138,o),
(199,152,o),
(181,151,cs),
(169,151,o),
(162,142,o),
(162,133,c),
(161,136,o),
(160,139,o),
(160,142,cs),
(160,160,o),
(177,172,o),
(201,172,cs),
(229,172,o),
(255,148,o),
(253,101,cs),
(251,54,o),
(211,25,o),
(165,25,cs),
(88,24,o),
(46,88,o),
(46,153,cs),
(46,242,o),
(118,304,o),
(213,304,cs),
(306,304,o),
(360,238,o),
(370,161,cs),
(377,110,o),
(364,49,o),
(353,20,cs),
(348,8,o),
(352,-4,o),
(365,-6,cs),
(375,-8,o),
(381,-1,o),
(385,12,cs),
(395,42,o),
(409,110,o),
(402,159,cs),
(387,267,o),
(317,333,o),
(211,333,cs),
(91,333,o),
(17,260,o),
(17,151,cs),
(17,64,o),
(76,-8,o),
(166,-6,cs),
(238,-5,o),
(282,39,o),
(284,100,cs)
);
}
);
width = 420;
}
);
unicode = 3559;
}
{
glyphname = LithTwo;
layers = (
{
layerId = "F0029E70-666A-46B3-82F3-BCA8DA6C0FED";
shapes = (
{
closed = 1;
nodes = (
(286,165,o),
(246,202,o),
(200,202,cs),
(167,202,o),
(131,180,o),
(131,141,cs),
(131,109,o),
(152,97,o),
(173,96,cs),
(189,96,o),
(205,107,o),
(206,121,cs),
(208,138,o),
(199,152,o),
(181,151,cs),
(169,151,o),
(162,142,o),
(162,133,c),
(161,136,o),
(160,139,o),
(160,142,cs),
(160,160,o),
(177,172,o),
(201,172,cs),
(229,172,o),
(255,148,o),
(253,101,cs),
(251,54,o),
(211,25,o),
(165,25,cs),
(88,24,o),
(46,88,o),
(46,153,cs),
(46,242,o),
(118,304,o),
(213,304,cs),
(306,304,o),
(370,222,o),
(370,102,cs),
(370,48,o),
(370,75,o),
(370,25,cs),
(370,11,o),
(373,0,o),
(386,0,cs),
(396,0,o),
(401,10,o),
(401,25,cs),
(401,47,o),
(401,73,o),
(401,102,cs),
(401,194,o),
(427,299,o),
(493,299,cs),
(567,299,o),
(584,209,o),
(584,98,cs),
(584,39,o),
(584,80,o),
(584,21,cs),
(584,7,o),
(590,0,o),
(599,0,cs),
(610,0,o),
(615,9,o),
(615,21,cs),
(615,81,o),
(615,38,o),
(615,98,cs),
(615,225,o),
(594,329,o),
(493,329,cs),
(441,329,o),
(394,293,o),
(382,194,c),
(362,282,o),
(292,333,o),
(211,333,cs),
(91,333,o),
(17,260,o),
(17,151,cs),
(17,64,o),
(76,-8,o),
(166,-6,cs),
(238,-5,o),
(282,39,o),
(284,100,cs)
);
}
);
width = 632;
}
);
unicode = 3560;
}
{
glyphname = LithThree;
layers = (
{
layerId = "F0029E70-666A-46B3-82F3-BCA8DA6C0FED";
shapes = (
{
closed = 1;
nodes = (
(586,273,o),
(587,260,o),
(594,256,cs),
(598,253,o),
(607,251,o),
(618,265,cs),
(633,285,o),
(648,300,o),
(677,300,cs),
(723,300,o),
(757,235,o),
(757,164,cs),
(757,94,o),
(735,30,o),
(686,30,cs),
(655,30,o),
(637,43,o),
(628,56,cs),
(619,69,o),
(617,79,o),
(607,78,cs),
(592,78,o),
(592,60,o),
(596,52,cs),
(612,25,o),
(633,0,o),
(685,0,cs),
(752,0,o),
(784,67,o),
(784,163,cs),
(784,257,o),
(740,328,o),
(677,328,cs),
(634,328,o),
(614,310,o),
(597,288,cs)
);
},
{
closed = 1;
nodes = (
(286,165,o),
(246,202,o),
(200,202,cs),
(167,202,o),
(131,180,o),
(131,141,cs),
(131,109,o),
(152,97,o),
(173,96,cs),
(189,96,o),
(205,107,o),
(206,121,cs),
(208,138,o),
(199,152,o),
(181,151,cs),
(169,151,o),
(162,142,o),
(162,133,c),
(161,136,o),
(160,139,o),
(160,142,cs),
(160,160,o),
(177,172,o),
(201,172,cs),
(229,172,o),
(255,148,o),
(253,101,cs),
(251,54,o),
(211,25,o),
(165,25,cs),
(88,24,o),
(46,88,o),
(46,153,cs),
(46,242,o),
(118,304,o),
(213,304,cs),
(306,304,o),
(370,222,o),
(370,102,cs),
(370,48,o),
(370,75,o),
(370,25,cs),
(370,11,o),
(373,0,o),
(386,0,cs),
(396,0,o),
(401,10,o),
(401,25,cs),
(401,47,o),
(401,73,o),
(401,102,cs),
(401,194,o),
(426,299,o),
(475,299,cs),
(526,299,o),
(547,209,o),
(547,98,cs),
(547,39,o),
(547,80,o),
(547,21,cs),
(547,7,o),
(552,0,o),
(562,0,cs),
(573,0,o),
(578,9,o),
(578,21,cs),
(578,81,o),
(578,38,o),
(578,98,cs),
(578,225,o),
(554,329,o),
(474,329,cs),
(431,329,o),
(394,293,o),
(382,194,c),
(362,282,o),
(292,333,o),
(211,333,cs),
(91,333,o),
(17,260,o),
(17,151,cs),
(17,64,o),
(76,-8,o),
(166,-6,cs),
(238,-5,o),
(282,39,o),
(284,100,cs)
);
}
);
width = 801;
}
);
unicode = 3561;
}
{
glyphname = LithFour;
layers = (
{
layerId = "F0029E70-666A-46B3-82F3-BCA8DA6C0FED";
shapes = (
{
closed = 1;
nodes = (
(109,305,o),
(98,299,o),
(98,285,cs),
(98,266,o),
(112,254,o),
(122,239,cs),
(127,230,o),
(122,221,o),
(117,218,cs),
(108,212,o),
(95,212,o),
(83,205,cs),
(67,196,o),
(46,181,o),
(46,143,cs),
(46,67,o),
(112,23,o),
(206,23,cs),
(312,23,o),
(372,70,o),
(372,148,cs),
(372,170,o),
(360,199,o),
(344,212,cs),
(331,222,o),
(314,233,o),
(281,233,cs),
(273,233,o),
(266,238,o),
(262,244,cs),
(258,251,o),
(258,262,o),
(263,271,cs),
(303,343,o),
(369,463,o),
(404,522,cs),
(410,532,o),
(421,535,o),
(428,530,cs),
(436,526,o),
(437,516,o),
(431,506,cs),
(398,449,o),
(333,333,o),
(296,269,cs),
(294,264,o),
(295,261,o),
(300,260,cs),
(322,257,o),
(340,250,o),
(358,238,cs),
(381,223,o),
(403,190,o),
(402,148,cs),
(401,50,o),
(333,-6,o),
(206,-6,cs),
(90,-6,o),
(16,50,o),
(16,143,cs),
(16,212,o),
(59,231,o),
(84,239,c),
(75,249,o),
(62,272,o),
(67,296,cs),
(70,319,o),
(92,335,o),
(120,333,cs),
(158,331,o),
(170,291,o),
(178,279,cs),
(183,272,o),
(181,261,o),
(175,257,cs),
(166,252,o),
(157,257,o),
(152,264,cs),
(144,275,o),
(136,301,o),
(119,304,cs)
);
}
);
width = 442;
}
);
unicode = 3562;
}
{
glyphname = LithFive;
layers = (
{
layerId = "F0029E70-666A-46B3-82F3-BCA8DA6C0FED";
shapes = (
{
closed = 1;
nodes = (
(270,-189,o),
(278,-181,o),
(275,-172,cs),
(273,-164,o),
(266,-161,o),
(257,-162,cs),
(248,-164,o),
(238,-168,o),
(214,-168,cs),
(167,-168,o),
(127,-145,o),
(127,-99,cs),
(127,-67,o),
(156,-46,o),
(185,-37,cs),
(193,-34,o),
(219,-30,o),
(238,-30,cs),
(249,-30,o),
(257,-24,o),
(257,-14,cs),
(257,-1,o),
(248,3,o),
(238,3,cs),
(211,3,o),
(184,-1,o),
(160,4,cs),
(96,15,o),
(48,52,o),
(48,117,cs),
(48,191,o),
(109,221,o),
(173,221,cs),
(203,221,o),
(220,218,o),
(235,218,cs),
(245,218,o),
(253,224,o),
(253,233,cs),
(253,244,o),
(245,250,o),
(236,250,cs),
(220,250,o),
(200,251,o),
(189,256,cs),
(169,263,o),
(165,274,o),
(165,283,cs),
(165,292,o),
(172,304,o),
(202,304,cs),
(218,304,o),
(239,298,o),
(247,298,cs),
(255,298,o),
(262,302,o),
(262,312,cs),
(262,322,o),
(256,328,o),
(247,328,cs),
(236,328,o),
(213,333,o),
(200,333,cs),
(165,333,o),
(133,317,o),
(133,285,cs),
(133,269,o),
(141,253,o),
(149,248,c),
(94,248,o),
(17,210,o),
(17,117,cs),
(17,35,o),
(77,-12,o),
(143,-21,c),
(123,-33,o),
(96,-53,o),
(96,-100,cs),
(96,-164,o),
(151,-198,o),
(214,-198,cs),
(233,-198,o),
(250,-195,o),
(260,-192,cs)
);
}
);
width = 286;
}
);
unicode = 3563;
}
{
glyphname = LithSix;
layers = (
{
layerId = "F0029E70-666A-46B3-82F3-BCA8DA6C0FED";
shapes = (
{
closed = 1;
nodes = (
(304,301,o),
(396,298,o),
(438,191,cs),
(468,115,o),
(421,62,o),
(404,47,c),
(407,51,o),
(411,59,o),
(411,79,cs),
(411,114,o),
(382,149,o),
(337,149,cs),
(294,149,o),
(264,114,o),
(264,78,cs),
(264,27,o),
(302,1,o),
(351,1,cs),
(425,1,o),
(518,82,o),
(468,200,cs),
(426,300,o),
(349,332,o),
(238,332,cs),
(128,332,o),
(52,275,o),
(27,200,cs),
(-13,78,o),
(71,1,o),
(145,1,cs),
(193,1,o),
(231,27,o),
(231,78,cs),
(231,114,o),
(202,149,o),
(159,149,cs),
(113,149,o),
(85,114,o),
(85,79,cs),
(85,59,o),
(89,51,o),
(91,47,c),
(74,62,o),
(33,113,o),
(57,191,cs),
(82,273,o),
(172,301,o),
(238,301,cs)
);
},
{
closed = 1;
nodes = (
(201,50,o),
(184,34,o),
(159,34,cs),
(134,34,o),
(114,49,o),
(114,76,cs),
(114,101,o),
(131,118,o),
(159,118,cs),
(184,118,o),
(201,101,o),
(201,76,cs)
);
},
{
closed = 1;
nodes = (
(295,101,o),
(312,118,o),
(337,118,cs),
(364,118,o),
(381,101,o),
(381,76,cs),
(381,49,o),
(362,34,o),
(337,34,cs),
(312,34,o),
(295,50,o),
(295,76,cs)
);
}
);
width = 499;
}
);
unicode = 3564;
}
{
glyphname = LithSeven;
layers = (
{
layerId = "F0029E70-666A-46B3-82F3-BCA8DA6C0FED";
shapes = (
{
closed = 1;
nodes = (
(334,-192,o),
(336,-180,o),
(335,-174,cs),
(333,-165,o),
(325,-162,o),
(315,-164,cs),
(290,-167,o),
(272,-170,o),
(233,-170,cs),
(136,-170,o),
(47,-107,o),
(47,33,cs),
(47,148,o),
(119,188,o),
(167,202,cs),
(212,215,o),
(254,206,o),
(284,206,cs),
(294,206,o),
(301,212,o),
(301,222,cs),
(301,233,o),
(295,240,o),
(284,240,cs),
(269,240,o),
(244,242,o),
(233,246,cs),
(215,252,o),
(205,261,o),
(205,278,cs),
(205,294,o),
(221,302,o),
(240,302,cs),
(256,302,o),
(281,298,o),
(298,298,cs),
(307,298,o),
(313,304,o),
(314,311,cs),
(314,321,o),
(309,330,o),
(298,330,cs),
(282,330,o),
(263,333,o),
(240,333,cs),
(203,333,o),
(170,315,o),
(170,280,cs),
(170,258,o),
(179,244,o),
(186,238,c),
(176,236,o),
(158,233,o),
(149,230,cs),
(98,213,o),
(14,158,o),
(14,33,cs),
(14,-112,o),
(108,-199,o),
(233,-199,cs),
(275,-199,o),
(296,-198,o),
(322,-194,cs)
);
}
);
width = 345;
}
);
unicode = 3565;
}
{
glyphname = LithEight;
layers = (
{
layerId = "F0029E70-666A-46B3-82F3-BCA8DA6C0FED";
shapes = (
{
closed = 1;
nodes = (
(180,369,o),
(249,443,o),
(301,499,cs),
(307,504,o),
(309,511,o),
(309,516,cs),
(309,524,o),
(302,529,o),
(294,529,cs),
(290,529,o),
(284,529,o),
(280,524,cs),
(223,464,o),
(158,392,o),
(112,341,cs),
(56,280,o),
(10,231,o),
(17,147,cs),
(25,58,o),
(92,-5,o),
(186,-5,cs),
(278,-5,o),
(353,69,o),
(353,162,cs),
(353,249,o),
(294,322,o),
(215,320,cs),
(179,319,o),
(147,308,o),
(127,281,cs),
(121,272,o),
(117,260,o),
(122,254,cs),
(129,249,o),
(142,254,o),
(146,257,cs),
(163,270,o),
(178,287,o),
(215,290,cs),
(269,295,o),
(323,231,o),
(323,162,cs),
(323,85,o),
(263,25,o),
(186,25,cs),
(109,25,o),
(48,85,o),
(48,162,cs),
(48,230,o),
(89,268,o),
(119,302,cs),
(143,330,l)
);
}
);
width = 369;
}
);
unicode = 3566;
}
{
glyphname = LithNine;
layers = (
{
layerId = "F0029E70-666A-46B3-82F3-BCA8DA6C0FED";
shapes = (
{
closed = 1;
nodes = (
(356,327,o),
(349,334,o),
(339,331,cs),
(321,327,o),
(311,321,o),
(299,327,cs),
(264,335,o),
(243,368,o),
(242,405,cs),
(241,466,o),
(299,504,o),
(370,504,cs),
(445,504,o),
(498,463,o),
(498,409,cs),
(498,344,o),
(466,326,o),
(441,326,cs),
(432,326,o),
(423,324,o),
(411,331,cs),
(404,336,o),
(391,336,o),
(391,324,cs),
(391,320,o),
(392,316,o),
(395,313,cs),
(406,302,o),
(424,299,o),
(441,299,cs),
(503,299,o),
(528,361,o),
(527,406,cs),
(526,481,o),
(469,533,o),
(370,533,cs),
(290,533,o),
(215,488,o),
(215,405,cs),
(216,349,o),
(254,304,o),
(301,299,cs),
(314,297,o),
(325,299,o),
(337,303,cs),
(350,307,o),
(356,311,o),
(356,320,cs)
);
},
{
closed = 1;
nodes = (
(286,165,o),
(246,202,o),
(200,202,cs),
(167,202,o),
(131,180,o),
(131,141,cs),
(131,109,o),
(152,97,o),
(173,96,cs),
(189,96,o),
(205,107,o),
(206,121,cs),
(208,138,o),
(199,152,o),
(181,151,cs),
(169,151,o),
(162,142,o),
(162,133,c),
(161,136,o),
(160,139,o),
(160,142,cs),
(160,160,o),
(177,172,o),
(201,172,cs),
(229,172,o),
(255,148,o),
(253,101,cs),
(251,54,o),
(211,25,o),
(165,25,cs),
(88,24,o),
(46,88,o),
(46,153,cs),
(46,242,o),
(118,304,o),
(213,304,cs),
(306,304,o),
(370,222,o),
(370,102,cs),
(370,48,o),
(370,75,o),
(370,25,cs),
(370,11,o),
(373,0,o),
(386,0,cs),
(396,0,o),
(401,10,o),
(401,25,cs),
(401,47,o),
(401,73,o),
(401,102,cs),
(401,194,o),
(426,299,o),
(475,299,cs),
(526,299,o),
(547,209,o),
(547,98,cs),
(547,39,o),
(547,80,o),
(547,21,cs),
(547,7,o),
(552,0,o),
(562,0,cs),
(573,0,o),
(578,9,o),
(578,21,cs),
(578,81,o),
(578,38,o),
(578,98,cs),
(578,225,o),
(554,329,o),
(474,329,cs),
(431,329,o),
(394,293,o),
(382,194,c),
(362,282,o),
(292,333,o),
(211,333,cs),
(91,333,o),
(17,260,o),
(17,151,cs),
(17,64,o),
(76,-8,o),
(166,-6,cs),
(238,-5,o),
(282,39,o),
(284,100,cs)
);
}
);
width = 595;
}
);
unicode = 3567;
}
{
glyphname = sinMatraLl;
layers = (
{
layerId = "F0029E70-666A-46B3-82F3-BCA8DA6C0FED";
shapes = (
{
closed = 1;
nodes = (
(89,281,o),
(90,282,o),
(79,282,cs),
(66,282,o),
(45,265,o),
(45,222,cs),
(45,177,o),
(67,156,o),
(97,156,cs),
(127,156,o),
(136,175,o),
(136,191,cs),
(136,201,o),
(131,206,o),
(122,206,cs),
(106,206,o),
(97,209,o),
(99,224,cs),
(109,283,o),
(130,311,o),
(165,311,cs),
(232,311,o),
(247,216,o),
(247,163,cs),
(247,111,o),
(228,0,o),
(137,0,cs),
(106,0,o),
(81,17,o),
(81,51,cs),
(81,74,o),
(102,94,o),
(126,94,cs),
(157,94,o),
(170,74,o),
(170,56,cs),
(170,48,o),
(170,36,o),
(162,28,c),
(210,50,o),
(218,133,o),
(218,163,cs),
(218,199,o),
(213,280,o),
(164,280,cs),
(146,280,o),
(133,262,o),
(129,235,c),
(152,234,o),
(164,216,o),
(164,191,cs),
(164,162,o),
(150,127,o),
(97,127,cs),
(54,127,o),
(17,153,o),
(17,222,cs),
(17,278,o),
(52,310,o),
(79,310,cs),
(93,310,o),
(102,309,o),
(108,303,cs),
(116,295,o),
(113,281,o),
(99,281,cs)
);
},
{
closed = 1;
nodes = (
(148,62,o),
(137,69,o),
(129,69,cs),
(117,69,o),
(109,61,o),
(109,49,cs),
(109,36,o),
(118,30,o),
(129,30,cs),
(143,30,o),
(148,40,o),
(148,49,cs)
);
}
);
width = 264;
}
);
unicode = 3571;
}
{
glyphname = sinkundaliya;
layers = (
{
layerId = "F0029E70-666A-46B3-82F3-BCA8DA6C0FED";
shapes = (
{
closed = 1;
nodes = (
(1240,3,o),
(1273,18,o),
(1273,77,cs),
(1273,119,o),
(1244,132,o),
(1222,132,cs),
(1207,132,o),
(1194,126,o),
(1191,116,cs),
(1190,110,o),
(1193,105,o),
(1199,102,cs),
(1207,98,o),
(1214,104,o),
(1223,104,cs),
(1234,105,o),
(1249,99,o),
(1250,73,cs),
(1251,49,o),
(1233,29,o),
(1196,29,cs),
(1136,29,o),
(1093,82,o),
(1046,117,cs),
(1045,118,o),
(1043,119,o),
(1042,120,cs),
(1031,124,o),
(1018,117,o),
(1013,103,cs),
(1002,75,o),
(994,50,o),
(986,33,cs),
(984,29,o),
(981,27,o),
(979,28,cs),
(976,28,o),
(975,32,o),
(976,36,cs),
(988,70,o),
(996,100,o),
(1009,141,cs),
(1015,158,o),
(1007,175,o),
(988,184,cs),
(979,189,o),
(961,184,o),
(952,161,cs),
(931,108,o),
(923,72,o),
(906,33,cs),
(906,31,o),
(904,28,o),
(900,29,cs),
(897,30,o),
(897,33,o),
(897,35,cs),
(911,76,o),
(929,144,o),
(944,188,cs),
(952,208,o),
(951,225,o),
(930,235,cs),
(917,241,o),
(901,239,o),
(896,225,cs),
(868,154,o),
(849,82,o),
(827,33,cs),
(826,30,o),
(824,29,o),
(822,29,cs),
(819,30,o),
(818,33,o),
(819,36,cs),
(839,91,o),
(863,181,o),
(880,225,cs),
(889,249,o),
(887,266,o),
(866,275,cs),
(852,281,o),
(833,273,o),
(827,260,cs),
(805,203,o),
(770,84,o),
(749,35,cs),
(748,31,o),
(744,30,o),
(742,31,cs),
(741,31,o),
(739,34,o),
(740,36,cs),
(759,87,o),
(792,208,o),
(809,255,cs),
(816,273,o),
(817,290,o),
(797,301,cs),
(796,302,o),
(795,303,o),
(794,303,cs),
(780,308,o),
(761,300,o),
(751,272,cs),
(729,215,o),
(696,90,o),
(673,35,cs),
(672,32,o),
(669,31,o),
(666,32,cs),
(664,33,o),
(663,35,o),
(664,37,cs),
(684,92,o),
(712,212,o),
(732,267,cs),
(741,291,o),
(744,311,o),
(721,325,cs),
(707,333,o),
(690,321,o),
(679,294,cs),
(651,222,o),
(622,98,o),
(596,36,cs),
(595,33,o),
(592,31,o),
(590,32,cs),
(588,32,o),
(586,35,o),
(587,38,cs),
(612,100,o),
(629,211,o),
(657,286,cs),
(660,292,o),
(662,299,o),
(663,305,cs),
(666,321,o),
(662,334,o),
(647,336,cs),
(628,339,o),
(610,326,o),
(600,303,cs),
(560,210,o),
(547,108,o),
(516,38,cs),
(515,36,o),
(513,33,o),
(510,34,cs),
(507,35,o),
(507,38,o),
(508,39,cs),
(536,108,o),
(545,206,o),
(567,270,cs),
(572,283,o),
(573,294,o),
(572,301,cs),
(569,314,o),
(559,319,o),
(545,316,cs),
(524,312,o),
(507,298,o),
(495,273,cs),
(464,205,o),
(459,86,o),
(439,37,cs),
(438,35,o),
(436,33,o),
(433,34,cs),
(430,36,o),
(431,39,o),
(431,41,cs),
(447,92,o),
(452,191,o),
(460,216,cs),
(466,236,o),
(468,254,o),
(465,266,cs),
(463,277,o),
(457,282,o),
(445,280,cs),
(414,273,o),
(402,250,o),
(395,231,cs),
(354,126,o),
(378,81,o),
(363,39,cs),
(362,36,o),
(358,35,o),
(356,36,cs),
(353,37,o),
(354,40,o),
(354,43,cs),
(360,77,o),
(352,117,o),
(360,158,cs),
(364,176,o),
(367,192,o),
(365,202,cs),
(364,210,o),
(358,215,o),
(344,212,cs),
(315,206,o),
(293,176,o),
(289,152,cs),
(283,109,o),
(294,77,o),
(291,41,cs),
(291,38,o),
(289,35,o),
(287,35,cs),
(283,35,o),
(282,38,o),
(282,41,cs),
(280,67,o),
(276,84,o),
(273,107,cs),
(272,110,o),
(271,114,o),
(268,116,cs),
(265,119,o),
(261,120,o),
(256,119,cs),
(246,119,o),
(237,102,o),
(220,85,cs),
(202,67,o),
(153,27,o),
(109,27,cs),
(66,27,o),
(45,52,o),
(45,77,cs),
(45,89,o),
(53,100,o),
(70,102,cs),
(79,103,o),
(84,100,o),
(91,98,cs),
(97,97,o),
(101,98,o),
(104,101,cs),
(107,104,o),
(107,109,o),
(105,113,cs),
(100,125,o),
(84,131,o),
(69,131,cs),
(46,131,o),
(19,116,o),
(19,77,cs),
(19,24,o),
(63,2,o),
(109,2,cs),
(169,2,o),
(213,41,o),
(236,65,cs),
(240,69,o),
(242,72,o),
(247,72,cs),
(256,71,o),
(255,40,o),
(257,24,cs),
(258,15,o),
(264,2,o),
(285,2,cs),
(298,2,o),
(309,8,o),
(313,29,cs),
(322,79,o),
(306,116,o),
(322,158,cs),
(323,162,o),
(324,166,o),
(329,166,cs),
(330,166,o),
(331,165,o),
(331,165,cs),
(331,165,o),
(332,165,o),
(332,164,cs),
(333,162,o),
(331,159,o),
(331,159,cs),
(320,113,o),
(331,82,o),
(326,42,cs),
(326,40,o),
(326,38,o),
(326,36,cs),
(326,14,o),
(338,2,o),
(354,2,cs),
(367,2,o),
(375,5,o),
(382,18,cs),
(409,67,o),
(386,130,o),
(422,229,cs),
(423,232,o),
(426,234,o),
(429,234,cs),
(430,234,o),
(431,234,o),
(431,234,cs),
(432,234,o),
(432,233,o),
(432,233,cs),
(432,230,o),
(431,227,o),
(431,227,cs),
(431,227,o),
(431,227,o),
(431,227,cs),
(431,226,o),
(431,226,o),
(431,226,cs),
(405,132,o),
(412,82,o),
(403,43,cs),
(403,38,o),
(402,34,o),
(402,31,cs),
(402,10,o),
(416,2,o),
(431,2,cs),
(442,2,o),
(453,5,o),
(459,19,cs),
(500,108,o),
(500,208,o),
(522,257,cs),
(523,260,o),
(526,263,o),
(530,263,cs),
(534,263,o),
(534,258,o),
(533,255,cs),
(513,205,o),
(507,109,o),
(480,35,cs),
(479,32,o),
(478,29,o),
(478,26,cs),
(478,10,o),
(495,2,o),
(509,2,cs),
(521,2,o),
(534,6,o),
(539,19,cs),
(573,99,o),
(590,215,o),
(620,286,cs),
(622,290,o),
(625,293,o),
(628,291,cs),
(631,289,o),
(630,286,o),
(629,283,cs),
(601,211,o),
(583,98,o),
(558,36,cs),
(556,33,o),
(556,30,o),
(556,27,cs),
(556,12,o),
(573,2,o),
(588,2,cs),
(600,2,o),
(615,8,o),
(620,20,cs),
(650,95,o),
(676,216,o),
(701,279,cs),
(702,282,o),
(704,285,o),
(707,283,cs),
(710,281,o),
(710,278,o),
(709,277,cs),
(686,214,o),
(659,92,o),
(637,36,cs),
(636,32,o),
(636,29,o),
(635,27,cs),
(635,11,o),
(652,2,o),
(666,2,cs),
(678,2,o),
(687,4,o),
(693,18,cs),
(722,90,o),
(754,208,o),
(771,251,cs),
(772,254,o),
(774,257,o),
(778,256,cs),
(782,255,o),
(781,251,o),
(780,248,cs),
(763,202,o),
(730,85,o),
(712,36,cs),
(711,34,o),
(710,31,o),
(710,28,cs),
(710,12,o),
(729,2,o),
(744,2,cs),
(756,2,o),
(767,10,o),
(773,23,cs),
(799,87,o),
(829,194,o),
(842,225,cs),
(843,228,o),
(846,230,o),
(849,229,cs),
(852,227,o),
(851,223,o),
(851,222,cs),
(839,187,o),
(813,95,o),
(792,37,cs),
(791,34,o),
(790,31,o),
(790,29,cs),
(790,12,o),
(810,2,o),
(824,2,cs),
(837,2,o),
(847,10,o),
(852,23,cs),
(875,79,o),
(894,152,o),
(908,188,cs),
(909,191,o),
(912,192,o),
(914,192,cs),
(916,191,o),
(918,189,o),
(917,187,cs),
(904,147,o),
(885,77,o),
(867,29,cs),
(866,28,o),
(866,26,o),
(866,24,cs),
(866,13,o),
(882,2,o),
(901,2,cs),
(912,2,o),
(924,5,o),
(928,17,cs),
(951,72,o),
(953,91,o),
(968,130,cs),
(970,132,o),
(972,135,o),
(975,134,cs),
(978,133,o),
(979,130,o),
(978,127,cs),
(964,85,o),
(961,70,o),
(946,28,cs),
(946,26,o),
(945,25,o),
(945,24,cs),
(945,11,o),
(965,2,o),
(982,2,cs),
(993,2,o),
(1003,6,o),
(1009,16,cs),
(1017,31,o),
(1025,57,o),
(1031,75,cs),
(1034,83,o),
(1043,82,o),
(1047,79,cs),
(1087,45,o),
(1121,3,o),
(1197,3,cs)
);
}
);
width = 1291;
}
);
unicode = 3572;
}
{
glyphname = zwnj;
layers = (
{
layerId = "F0029E70-666A-46B3-82F3-BCA8DA6C0FED";
shapes = (
{
closed = 1;
nodes = (
(41,6,l),
(41,459,l),
(17,459,l),
(17,6,l)
);
}
);
width = 58;
}
);
unicode = 8204;
}
{
glyphname = zerowidthjoiner;
layers = (
{
layerId = "F0029E70-666A-46B3-82F3-BCA8DA6C0FED";
shapes = (
{
closed = 1;
nodes = (
(147,759,l),
(121,784,l),
(0,663,l),
(-121,784,l),
(-147,759,l),
(-26,640,l),
(-147,520,l),
(-121,493,l),
(-20,596,l),
(-20,10,l),
(20,10,l),
(20,596,l),
(121,493,l),
(147,520,l),
(26,640,l)
);
}
);
width = 0;
}
);
unicode = 8205;
}
{
glyphname = dottedcircle;
layers = (
{
layerId = "F0029E70-666A-46B3-82F3-BCA8DA6C0FED";
shapes = (
{
closed = 1;
nodes = (
(50,49,o),
(54,44,o),
(64,44,cs),
(73,44,o),
(77,49,o),
(77,58,cs),
(78,67,o),
(74,71,o),
(64,71,cs),
(55,71,o),
(51,67,o),
(51,58,cs)
);
},
{
closed = 1;
nodes = (
(24,90,o),
(28,85,o),
(38,85,cs),
(46,85,o),
(50,90,o),
(51,99,cs),
(51,108,o),
(48,112,o),
(38,112,cs),
(30,112,o),
(25,108,o),
(25,99,cs)
);
},
{
closed = 1;
nodes = (
(90,23,o),
(93,19,o),
(102,19,cs),
(111,19,o),
(116,23,o),
(117,32,cs),
(117,41,o),
(112,45,o),
(103,45,cs),
(94,45,o),
(91,41,o),
(90,32,cs)
);
},
{
closed = 1;
nodes = (
(135,13,o),
(140,9,o),
(149,9,cs),
(157,9,o),
(161,13,o),
(162,22,cs),
(162,31,o),
(159,36,o),
(149,36,cs),
(141,36,o),
(136,31,o),
(136,22,cs)
);
},
{
closed = 1;
nodes = (
(17,135,o),
(20,131,o),
(30,131,cs),
(38,131,o),
(43,135,o),
(43,144,cs),
(44,154,o),
(40,158,o),
(30,158,cs),
(20,158,o),
(17,154,o),
(17,144,cs)
);
},
{
closed = 1;
nodes = (
(26,181,o),
(31,177,o),
(41,177,cs),
(49,177,o),
(52,181,o),
(52,191,cs),
(53,200,o),
(50,204,o),
(41,204,cs),
(32,204,o),
(27,200,o),
(27,191,cs)
);
},
{
closed = 1;
nodes = (
(183,23,o),
(187,19,o),
(196,19,cs),
(205,19,o),
(209,23,o),
(210,32,cs),
(210,41,o),
(206,45,o),
(197,45,cs),
(188,45,o),
(184,41,o),
(183,32,cs)
);
},
{
closed = 1;
nodes = (
(53,223,o),
(57,219,o),
(67,219,cs),
(75,219,o),
(80,223,o),
(80,231,cs),
(81,240,o),
(77,244,o),
(68,244,cs),
(59,244,o),
(54,240,o),
(54,231,cs)
);
},
{
closed = 1;
nodes = (
(223,49,o),
(227,44,o),
(236,44,cs),
(245,44,o),
(249,49,o),
(250,58,cs),
(251,67,o),
(246,71,o),
(237,71,cs),
(228,71,o),
(225,67,o),
(224,58,cs)
);
},
{
closed = 1;
nodes = (
(93,249,o),
(98,244,o),
(107,244,cs),
(115,244,o),
(120,249,o),
(120,258,cs),
(121,267,o),
(117,271,o),
(107,271,cs),
(99,271,o),
(94,267,o),
(94,258,cs)
);
},
{
closed = 1;
nodes = (
(250,90,o),
(253,85,o),
(263,85,cs),
(272,85,o),
(277,90,o),
(278,99,cs),
(278,108,o),
(274,112,o),
(264,112,cs),
(255,112,o),
(251,108,o),
(251,99,cs)
);
},
{
closed = 1;
nodes = (
(140,257,o),
(144,253,o),
(154,253,cs),
(162,253,o),
(166,257,o),
(167,267,cs),
(167,276,o),
(163,280,o),
(154,280,cs),
(145,280,o),
(141,276,o),
(141,267,cs)
);
},
{
closed = 1;
nodes = (
(260,135,o),
(265,131,o),
(274,131,cs),
(283,131,o),
(286,135,o),
(287,144,cs),
(288,154,o),
(284,158,o),
(274,158,cs),
(265,158,o),
(260,154,o),
(260,144,cs)
);
},
{
closed = 1;
nodes = (
(186,249,o),
(191,244,o),
(201,244,cs),
(209,244,o),
(213,249,o),
(214,258,cs),
(214,267,o),
(210,271,o),
(201,271,cs),
(193,271,o),
(188,267,o),
(187,258,cs)
);
},
{
closed = 1;
nodes = (
(252,181,o),
(256,177,o),
(265,177,cs),
(274,177,o),
(279,181,o),
(280,191,cs),
(280,200,o),
(276,204,o),
(266,204,cs),
(257,204,o),
(253,200,o),
(252,191,cs)
);
},
{
closed = 1;
nodes = (
(226,223,o),
(230,219,o),
(240,219,cs),
(249,219,o),
(253,223,o),
(254,231,cs),
(254,240,o),
(250,244,o),
(240,244,cs),
(231,244,o),
(227,240,o),
(227,231,cs)
);
}
);
width = 304;
}
);
unicode = 9676;
}
{
glyphname = ArchaicOne;
layers = (
{
layerId = "F0029E70-666A-46B3-82F3-BCA8DA6C0FED";
shapes = (
{
closed = 1;
nodes = (
(403,288,o),
(391,256,o),
(380,209,c),
(360,283,o),
(289,333,o),
(211,333,cs),
(91,333,o),
(17,260,o),
(17,151,cs),
(17,64,o),
(76,-8,o),
(166,-6,cs),
(238,-5,o),
(282,39,o),
(284,100,cs),
(286,165,o),
(246,202,o),
(200,202,cs),
(167,202,o),
(131,180,o),
(131,141,cs),
(131,109,o),
(152,97,o),
(173,96,cs),
(189,96,o),
(205,107,o),
(206,121,cs),
(208,138,o),
(199,152,o),
(181,151,cs),
(169,151,o),
(162,142,o),
(162,133,c),
(161,136,o),
(160,139,o),
(160,142,cs),
(160,160,o),
(177,172,o),
(201,172,cs),
(229,172,o),
(255,148,o),
(253,101,cs),
(251,54,o),
(211,25,o),
(165,25,cs),
(88,24,o),
(46,88,o),
(46,153,cs),
(46,242,o),
(118,304,o),
(213,304,cs),
(306,304,o),
(370,222,o),
(370,102,cs),
(370,48,o),
(370,75,o),
(370,25,cs),
(370,11,o),
(373,0,o),
(386,0,cs),
(396,0,o),
(401,10,o),
(401,25,cs),
(401,47,o),
(401,73,o),
(401,102,cs),
(401,183,o),
(406,228,o),
(441,288,cs),
(451,305,o),
(427,320,o),
(415,304,cs)
);
}
);
width = 460;
}
);
unicode = 70113;
}
{
glyphname = ArchaicTwo;
layers = (
{
layerId = "F0029E70-666A-46B3-82F3-BCA8DA6C0FED";
shapes = (
{
closed = 1;
nodes = (
(286,165,o),
(246,202,o),
(200,202,cs),
(167,202,o),
(131,180,o),
(131,141,cs),
(131,109,o),
(152,97,o),
(173,96,cs),
(189,96,o),
(205,107,o),
(206,121,cs),
(208,138,o),
(199,152,o),
(181,151,cs),
(169,151,o),
(162,142,o),
(162,133,c),
(161,136,o),
(160,139,o),
(160,142,cs),
(160,160,o),
(177,172,o),
(201,172,cs),
(229,172,o),
(255,148,o),
(253,101,cs),
(251,54,o),
(211,25,o),
(165,25,cs),
(88,24,o),
(46,88,o),
(46,153,cs),
(46,242,o),
(118,304,o),
(213,304,cs),
(306,304,o),
(349,238,o),
(370,161,cs),
(392,83,o),
(440,14,o),
(506,4,cs),
(572,-7,o),
(617,30,o),
(668,83,cs),
(680,96,o),
(682,108,o),
(672,116,cs),
(664,123,o),
(651,120,o),
(636,104,cs),
(602,67,o),
(557,25,o),
(509,38,cs),
(455,53,o),
(426,86,o),
(404,159,cs),
(373,264,o),
(317,333,o),
(211,333,cs),
(91,333,o),
(17,260,o),
(17,151,cs),
(17,64,o),
(76,-8,o),
(166,-6,cs),
(238,-5,o),
(282,39,o),
(284,100,cs)
);
}
);
width = 694;
}
);
unicode = 70114;
}
{
glyphname = ArchaicThree;
layers = (
{
layerId = "F0029E70-666A-46B3-82F3-BCA8DA6C0FED";
shapes = (
{
closed = 1;
nodes = (
(623,10,o),
(679,62,o),
(707,103,cs),
(719,121,o),
(732,120,o),
(740,111,cs),
(746,104,o),
(745,92,o),
(736,83,cs),
(684,31,o),
(640,-21,o),
(574,4,cs),
(493,34,o),
(499,190,o),
(450,190,cs),
(415,190,o),
(401,143,o),
(401,102,cs),
(401,73,o),
(401,47,o),
(401,25,cs),
(401,10,o),
(396,0,o),
(386,0,cs),
(373,0,o),
(370,11,o),
(370,25,cs),
(370,75,o),
(370,48,o),
(370,102,cs),
(370,222,o),
(306,304,o),
(213,304,cs),
(118,304,o),
(46,242,o),
(46,153,cs),
(46,88,o),
(88,24,o),
(165,25,cs),
(211,25,o),
(251,54,o),
(253,101,cs),
(255,148,o),
(229,172,o),
(201,172,cs),
(177,172,o),
(160,160,o),
(160,142,cs),
(160,139,o),
(161,136,o),
(162,133,c),
(162,142,o),
(169,151,o),
(181,151,cs),
(199,152,o),
(208,138,o),
(206,121,cs),
(205,107,o),
(189,96,o),
(173,96,cs),
(152,97,o),
(131,109,o),
(131,141,cs),
(131,180,o),
(167,202,o),
(200,202,cs),
(246,202,o),
(286,165,o),
(284,100,cs),
(282,39,o),
(238,-5,o),
(166,-6,cs),
(76,-8,o),
(17,64,o),
(17,151,cs),
(17,260,o),
(91,333,o),
(211,333,cs),
(294,333,o),
(367,278,o),
(386,167,c),
(393,205,o),
(420,220,o),
(449,220,cs),
(535,220,o),
(514,69,o),
(580,33,cs)
);
}
);
width = 760;
}
);
unicode = 70115;
}
{
glyphname = ArchaicFour;
layers = (
{
layerId = "F0029E70-666A-46B3-82F3-BCA8DA6C0FED";
shapes = (
{
closed = 1;
nodes = (
(43,19,o),
(110,0,o),
(130,0,cs),
(143,0,o),
(154,6,o),
(154,17,cs),
(154,27,o),
(146,37,o),
(132,37,cs),
(100,37,o),
(68,57,o),
(55,102,cs),
(24,210,o),
(75,299,o),
(148,299,cs),
(182,299,o),
(208,275,o),
(208,246,cs),
(208,221,o),
(208,195,o),
(208,169,cs),
(208,155,o),
(213,148,o),
(223,148,cs),
(234,148,o),
(239,157,o),
(239,169,cs),
(239,198,o),
(239,221,o),
(239,255,cs),
(239,283,o),
(253,302,o),
(293,302,cs),
(324,302,o),
(346,278,o),
(346,249,cs),
(346,190,o),
(346,231,o),
(346,172,cs),
(346,158,o),
(352,151,o),
(363,151,cs),
(373,151,o),
(379,159,o),
(379,172,cs),
(379,231,o),
(379,190,o),
(379,249,cs),
(379,278,o),
(404,302,o),
(438,302,cs),
(511,302,o),
(527,230,o),
(527,105,cs),
(527,24,o),
(527,-121,o),
(527,-169,c),
(488,-169,o),
(445,-169,o),
(406,-169,cs),
(362,-169,o),
(337,-152,o),
(321,-125,cs),
(289,-71,o),
(321,-7,o),
(372,33,cs),
(384,42,o),
(386,48,o),
(380,57,cs),
(374,66,o),
(366,67,o),
(356,59,cs),
(291,12,o),
(252,-75,o),
(295,-144,cs),
(317,-182,o),
(354,-200,o),
(405,-200,cs),
(440,-200,o),
(480,-200,o),
(523,-200,cs),
(542,-200,o),
(557,-195,o),
(557,-175,cs),
(557,-152,o),
(557,-6,o),
(557,105,cs),
(557,238,o),
(536,332,o),
(439,332,cs),
(404,332,o),
(378,319,o),
(363,299,c),
(349,319,o),
(325,332,o),
(292,332,cs),
(253,332,o),
(231,319,o),
(219,300,c),
(204,318,o),
(179,329,o),
(147,329,cs),
(50,329,o),
(-4,226,o),
(24,102,cs)
);
}
);
width = 645;
}
);
unicode = 70116;
}
{
glyphname = ArchaicFive;
layers = (
{
layerId = "F0029E70-666A-46B3-82F3-BCA8DA6C0FED";
shapes = (
{
closed = 1;
nodes = (
(727,11,o),
(775,65,o),
(807,103,cs),
(820,119,o),
(833,120,o),
(838,116,cs),
(847,108,o),
(846,96,o),
(833,83,cs),
(783,30,o),
(734,-21,o),
(672,4,cs),
(609,28,o),
(607,181,o),
(564,192,cs),
(537,199,o),
(522,162,o),
(522,127,cs),
(522,89,o),
(522,54,o),
(522,25,cs),
(522,10,o),
(517,0,o),
(507,0,cs),
(495,0,o),
(491,11,o),
(491,25,cs),
(491,61,l),
(489,130,o),
(476,175,o),
(456,188,cs),
(430,204,o),
(401,169,o),
(401,102,cs),
(401,73,o),
(401,47,o),
(401,25,cs),
(401,10,o),
(396,0,o),
(386,0,cs),
(373,0,o),
(370,11,o),
(370,25,cs),
(370,75,o),
(370,48,o),
(370,102,cs),
(370,222,o),
(306,304,o),
(213,304,cs),
(118,304,o),
(46,242,o),
(46,153,cs),
(46,88,o),
(88,24,o),
(165,25,cs),
(211,25,o),
(251,54,o),
(253,101,cs),
(255,148,o),
(229,172,o),
(201,172,cs),
(177,172,o),
(160,160,o),
(160,142,cs),
(160,139,o),
(161,136,o),
(162,133,c),
(162,142,o),
(169,151,o),
(181,151,cs),
(199,152,o),
(208,138,o),
(206,121,cs),
(205,107,o),
(189,96,o),
(173,96,cs),
(152,97,o),
(131,109,o),
(131,141,cs),
(131,180,o),
(167,202,o),
(200,202,cs),
(246,202,o),
(286,165,o),
(284,100,cs),
(282,39,o),
(238,-5,o),
(166,-6,cs),
(76,-8,o),
(17,64,o),
(17,151,cs),
(17,260,o),
(91,333,o),
(211,333,cs),
(294,333,o),
(372,277,o),
(386,166,c),
(395,204,o),
(420,228,o),
(456,218,cs),
(474,213,o),
(488,196,o),
(498,172,c),
(504,200,o),
(537,225,o),
(567,221,cs),
(641,210,o),
(629,60,o),
(683,33,cs)
);
}
);
width = 860;
}
);
unicode = 70117;
}
{
glyphname = ArchaicSix;
layers = (
{
layerId = "F0029E70-666A-46B3-82F3-BCA8DA6C0FED";
shapes = (
{
closed = 1;
nodes = (
(399,-5,o),
(465,99,o),
(465,206,cs),
(465,375,o),
(334,483,o),
(196,483,cs),
(163,483,o),
(131,478,o),
(100,468,cs),
(91,465,o),
(88,459,o),
(88,453,cs),
(88,446,o),
(93,438,o),
(103,438,cs),
(106,438,o),
(107,438,o),
(109,439,cs),
(138,447,o),
(167,451,o),
(196,451,cs),
(319,451,o),
(435,366,o),
(435,206,cs),
(435,122,o),
(380,28,o),
(263,28,cs),
(195,28,o),
(131,72,o),
(131,136,cs),
(131,193,o),
(156,215,o),
(185,228,cs),
(193,232,o),
(195,229,o),
(202,222,cs),
(207,217,o),
(216,217,o),
(222,221,cs),
(228,226,o),
(229,236,o),
(224,242,cs),
(220,247,o),
(209,254,o),
(199,269,cs),
(193,277,o),
(195,291,o),
(204,296,cs),
(215,302,o),
(226,292,o),
(233,283,cs),
(242,273,o),
(245,270,o),
(250,265,cs),
(256,259,o),
(264,258,o),
(271,262,cs),
(277,267,o),
(280,278,o),
(273,285,cs),
(257,300,o),
(245,319,o),
(216,327,cs),
(158,344,o),
(28,312,o),
(28,145,cs),
(28,86,o),
(64,25,o),
(97,6,cs),
(104,2,o),
(119,-1,o),
(123,10,cs),
(127,19,o),
(121,25,o),
(113,30,cs),
(73,55,o),
(57,110,o),
(57,145,cs),
(57,244,o),
(110,293,o),
(173,300,c),
(161,288,o),
(166,265,o),
(174,252,c),
(133,233,o),
(101,206,o),
(101,136,cs),
(101,50,o),
(179,0,o),
(263,-2,cs)
);
}
);
width = 481;
}
);
unicode = 70118;
}
{
glyphname = ArchaicSeven;
layers = (
{
layerId = "F0029E70-666A-46B3-82F3-BCA8DA6C0FED";
shapes = (
{
closed = 1;
nodes = (
(437,4,o),
(441,-7,o),
(453,-7,cs),
(463,-7,o),
(468,3,o),
(468,17,cs),
(469,66,o),
(493,89,o),
(506,106,cs),
(522,128,o),
(497,145,o),
(480,122,cs),
(452,87,o),
(437,50,o),
(437,17,cs)
);
},
{
closed = 1;
nodes = (
(89,67,o),
(48,114,o),
(48,166,cs),
(48,251,o),
(109,301,o),
(194,301,cs),
(357,301,o),
(375,140,o),
(375,66,cs),
(375,-32,o),
(328,-169,o),
(225,-169,cs),
(172,-169,o),
(133,-141,o),
(133,-81,cs),
(133,-33,o),
(173,-7,o),
(211,-7,cs),
(290,-7,o),
(365,-7,o),
(451,-7,cs),
(460,-7,o),
(467,1,o),
(467,9,cs),
(468,18,o),
(461,27,o),
(452,27,cs),
(366,27,o),
(265,27,o),
(211,27,cs),
(158,27,o),
(102,-14,o),
(102,-81,cs),
(102,-154,o),
(148,-200,o),
(226,-200,cs),
(322,-200,o),
(407,-83,o),
(407,67,cs),
(407,170,o),
(362,333,o),
(193,332,cs),
(103,331,o),
(17,282,o),
(17,164,cs),
(17,79,o),
(85,35,o),
(144,43,cs),
(169,47,o),
(195,59,o),
(187,76,cs),
(182,86,o),
(173,85,o),
(147,79,cs)
);
}
);
width = 528;
}
);
unicode = 70119;
}
{
glyphname = ArchaicEight;
layers = (
{
layerId = "F0029E70-666A-46B3-82F3-BCA8DA6C0FED";
shapes = (
{
closed = 1;
nodes = (
(441,-196,o),
(450,-201,o),
(456,-198,cs),
(464,-193,o),
(470,-185,o),
(462,-174,cs),
(414,-106,o),
(309,-98,o),
(225,-98,cs),
(208,-98,o),
(199,-104,o),
(199,-113,cs),
(198,-125,o),
(206,-130,o),
(224,-130,cs),
(314,-130,o),
(387,-146,o),
(435,-191,cs)
);
},
{
closed = 1;
nodes = (
(376,-130,o),
(503,-101,o),
(545,44,cs),
(583,172,o),
(536,332,o),
(439,332,cs),
(404,332,o),
(378,319,o),
(363,299,c),
(349,319,o),
(325,332,o),
(292,332,cs),
(253,332,o),
(231,319,o),
(219,300,c),
(204,318,o),
(179,329,o),
(147,329,cs),
(50,329,o),
(-4,226,o),
(24,102,cs),
(43,19,o),
(110,0,o),
(130,0,cs),
(143,0,o),
(154,6,o),
(154,17,cs),
(154,27,o),
(146,37,o),
(132,37,cs),
(100,37,o),
(68,57,o),
(55,102,cs),
(24,210,o),
(75,299,o),
(148,299,cs),
(182,299,o),
(208,275,o),
(208,246,cs),
(208,173,ls),
(208,158,o),
(211,148,o),
(223,148,cs),
(234,148,o),
(239,157,o),
(239,169,cs),
(239,229,o),
(239,186,o),
(239,246,cs),
(239,278,o),
(248,302,o),
(293,302,cs),
(324,302,o),
(346,278,o),
(346,249,cs),
(346,190,o),
(346,231,o),
(346,172,cs),
(346,158,o),
(352,152,o),
(362,151,cs),
(373,151,o),
(379,158,o),
(379,172,cs),
(379,231,o),
(379,190,o),
(379,249,cs),
(379,278,o),
(404,302,o),
(438,302,cs),
(511,302,o),
(556,168,o),
(517,51,cs),
(469,-93,o),
(324,-98,o),
(216,-98,cs),
(206,-98,o),
(199,-107,o),
(199,-114,cs),
(199,-121,o),
(205,-130,o),
(216,-130,cs)
);
}
);
width = 575;
}
);
unicode = 70120;
}
{
glyphname = ArchaicNine;
layers = (
{
layerId = "F0029E70-666A-46B3-82F3-BCA8DA6C0FED";
shapes = (
{
closed = 1;
nodes = (
(779,48,o),
(779,75,o),
(779,25,cs),
(779,11,o),
(782,0,o),
(795,0,cs),
(805,0,o),
(810,10,o),
(810,25,cs),
(810,47,o),
(810,73,o),
(810,102,cs),
(810,183,o),
(815,228,o),
(850,288,cs),
(860,305,o),
(836,320,o),
(824,304,cs),
(813,288,o),
(800,256,o),
(789,209,c),
(779,102,ls)
);
},
{
closed = 1;
nodes = (
(721,202,o),
(696,344,o),
(568,344,cs),
(533,344,o),
(507,331,o),
(492,311,c),
(474,331,o),
(445,357,o),
(404,357,cs),
(355,357,o),
(326,332,o),
(311,313,c),
(296,330,o),
(271,341,o),
(239,341,cs),
(142,341,o),
(88,233,o),
(116,102,cs),
(135,4,o),
(202,-19,o),
(222,-19,cs),
(235,-19,o),
(246,-12,o),
(246,-2,cs),
(246,8,o),
(238,19,o),
(223,19,cs),
(191,19,o),
(160,45,o),
(147,102,cs),
(116,217,o),
(167,311,o),
(240,311,cs),
(274,311,o),
(299,288,o),
(299,259,cs),
(299,173,ls),
(299,158,o),
(303,148,o),
(315,148,cs),
(326,148,o),
(331,157,o),
(331,169,cs),
(331,239,o),
(331,189,o),
(331,259,cs),
(331,291,o),
(344,327,o),
(404,327,cs),
(446,327,o),
(475,291,o),
(475,262,cs),
(475,193,o),
(475,241,o),
(475,172,cs),
(475,158,o),
(481,152,o),
(491,151,cs),
(502,151,o),
(507,158,o),
(507,172,cs),
(507,241,o),
(507,193,o),
(507,262,cs),
(507,291,o),
(533,314,o),
(567,314,cs),
(673,314,o),
(692,172,o),
(681,86,cs),
(665,-37,o),
(580,-164,o),
(407,-169,cs),
(223,-175,o),
(49,-78,o),
(47,154,cs),
(45,381,o),
(225,498,o),
(394,498,cs),
(560,498,o),
(779,459,o),
(779,25,cs),
(810,25,ls),
(810,462,o),
(599,530,o),
(394,530,cs),
(205,530,o),
(17,419,o),
(17,153,cs),
(17,-102,o),
(196,-206,o),
(407,-200,cs),
(611,-194,o),
(701,-56,o),
(712,86,cs)
);
}
);
width = 869;
}
);
unicode = 70121;
}
{
glyphname = ArchaicTen;
layers = (
{
layerId = "F0029E70-666A-46B3-82F3-BCA8DA6C0FED";
shapes = (
{
closed = 1;
nodes = (
(206,228,o),
(212,226,o),
(216,222,cs),
(221,217,o),
(230,217,o),
(236,221,cs),
(242,226,o),
(243,236,o),
(238,242,cs),
(234,247,o),
(223,254,o),
(213,269,cs),
(207,277,o),
(209,291,o),
(218,296,cs),
(229,302,o),
(240,292,o),
(248,283,cs),
(256,273,o),
(259,270,o),
(264,265,cs),
(270,259,o),
(278,257,o),
(285,262,cs),
(291,267,o),
(294,278,o),
(287,285,cs),
(272,300,o),
(259,319,o),
(230,327,cs),
(172,344,o),
(42,312,o),
(42,145,cs),
(42,86,o),
(78,25,o),
(111,6,cs),
(119,2,o),
(133,-1,o),
(138,10,cs),
(141,19,o),
(135,25,o),
(127,30,cs),
(88,56,o),
(72,110,o),
(72,145,cs),
(72,244,o),
(125,293,o),
(187,300,c),
(175,288,o),
(181,265,o),
(188,252,c),
(152,252,o),
(102,223,o),
(102,144,cs),
(102,52,o),
(170,0,o),
(256,0,cs),
(319,0,o),
(382,41,o),
(382,106,cs),
(382,154,o),
(358,180,o),
(315,180,c),
(323,243,o),
(362,296,o),
(430,296,cs),
(493,296,o),
(560,259,o),
(560,151,cs),
(560,140,o),
(559,130,o),
(558,121,c),
(542,136,o),
(519,147,o),
(493,147,cs),
(451,147,o),
(414,117,o),
(414,72,cs),
(414,27,o),
(452,0,o),
(493,0,cs),
(525,0,o),
(552,15,o),
(569,46,c),
(581,52,o),
(589,38,o),
(589,21,cs),
(589,7,o),
(592,1,o),
(604,1,cs),
(609,1,o),
(612,2,o),
(615,5,cs),
(650,24,o),
(666,85,o),
(666,160,cs),
(666,260,o),
(624,306,o),
(591,325,cs),
(583,328,o),
(569,331,o),
(564,321,cs),
(560,312,o),
(567,306,o),
(575,301,cs),
(614,275,o),
(636,230,o),
(636,160,cs),
(636,131,o),
(634,75,o),
(614,43,c),
(609,57,o),
(599,72,o),
(582,77,c),
(588,98,o),
(591,122,o),
(591,151,cs),
(591,267,o),
(524,327,o),
(430,327,cs),
(343,327,o),
(285,256,o),
(284,170,cs),
(284,163,o),
(289,153,o),
(297,153,cs),
(304,153,o),
(310,153,o),
(317,153,cs),
(340,153,o),
(352,137,o),
(352,106,cs),
(352,75,o),
(318,30,o),
(256,30,cs),
(183,30,o),
(134,75,o),
(134,144,cs),
(134,210,o),
(168,228,o),
(199,228,cs)
);
},
{
closed = 1;
nodes = (
(533,43,o),
(514,32,o),
(493,32,cs),
(472,32,o),
(447,51,o),
(447,72,cs),
(447,91,o),
(459,114,o),
(493,114,cs),
(522,114,o),
(547,93,o),
(545,68,c)
);
}
);
width = 703;
}
);
unicode = 70122;
}
{
glyphname = ArchaicTwenty;
layers = (
{
layerId = "F0029E70-666A-46B3-82F3-BCA8DA6C0FED";
shapes = (
{
closed = 1;
nodes = (
(438,372,o),
(442,360,o),
(454,360,cs),
(464,360,o),
(469,371,o),
(469,385,cs),
(470,434,o),
(494,457,o),
(507,474,cs),
(510,479,o),
(512,484,o),
(512,488,cs),
(512,495,o),
(506,501,o),
(499,501,cs),
(494,501,o),
(487,498,o),
(481,490,cs),
(471,478,o),
(463,465,o),
(456,453,c),
(432,498,o),
(378,532,o),
(282,532,cs),
(215,532,o),
(175,498,o),
(175,451,cs),
(175,320,o),
(411,380,o),
(411,291,cs),
(411,275,o),
(399,265,o),
(388,259,cs),
(378,252,o),
(375,245,o),
(377,239,cs),
(378,230,o),
(389,224,o),
(398,230,cs),
(405,236,o),
(414,243,o),
(427,243,cs),
(484,243,o),
(514,188,o),
(514,136,cs),
(514,68,o),
(475,30,o),
(423,30,cs),
(366,30,o),
(338,63,o),
(338,115,cs),
(338,122,o),
(335,133,o),
(323,133,cs),
(312,133,o),
(309,122,o),
(309,115,cs),
(309,63,o),
(290,30,o),
(228,30,cs),
(177,30,o),
(130,69,o),
(130,133,cs),
(130,181,o),
(156,215,o),
(185,228,cs),
(193,232,o),
(195,229,o),
(202,222,cs),
(207,217,o),
(216,217,o),
(222,221,cs),
(228,226,o),
(229,236,o),
(224,242,cs),
(220,247,o),
(209,254,o),
(199,269,cs),
(193,277,o),
(195,291,o),
(204,296,cs),
(215,302,o),
(226,292,o),
(233,283,cs),
(242,273,o),
(245,270,o),
(250,265,cs),
(256,259,o),
(264,258,o),
(271,262,cs),
(277,267,o),
(280,278,o),
(273,285,cs),
(257,300,o),
(245,319,o),
(216,327,cs),
(158,344,o),
(28,312,o),
(28,145,cs),
(28,86,o),
(64,25,o),
(97,6,cs),
(104,2,o),
(119,-1,o),
(123,10,cs),
(127,19,o),
(121,25,o),
(113,30,cs),
(73,55,o),
(57,110,o),
(57,145,cs),
(57,244,o),
(110,293,o),
(173,300,c),
(161,288,o),
(166,265,o),
(174,252,c),
(133,233,o),
(100,190,o),
(100,133,cs),
(100,48,o),
(162,0,o),
(228,0,cs),
(281,0,o),
(312,23,o),
(323,61,c),
(333,23,o),
(377,0,o),
(423,0,cs),
(490,0,o),
(543,47,o),
(543,136,cs),
(543,199,o),
(505,265,o),
(435,269,c),
(437,273,o),
(440,281,o),
(440,287,cs),
(440,414,o),
(207,343,o),
(207,451,cs),
(207,480,o),
(233,502,o),
(282,502,cs),
(372,502,o),
(428,462,o),
(440,415,cs),
(440,414,o),
(440,412,o),
(441,410,cs),
(439,402,o),
(438,393,o),
(438,385,cs)
);
}
);
width = 553;
}
);
unicode = 70123;
}
{
glyphname = ArchaicThirty;
layers = (
{
layerId = "F0029E70-666A-46B3-82F3-BCA8DA6C0FED";
shapes = (
{
closed = 1;
nodes = (
(433,430,o),
(448,468,o),
(475,502,cs),
(481,510,o),
(488,513,o),
(494,513,cs),
(501,513,o),
(507,507,o),
(507,500,cs),
(507,496,o),
(505,491,o),
(501,486,cs),
(489,470,o),
(464,446,o),
(464,398,cs),
(464,383,o),
(459,373,o),
(449,373,cs),
(436,373,o),
(433,384,o),
(433,398,cs)
);
},
{
closed = 1;
nodes = (
(95,-8,o),
(40,38,o),
(40,143,cs),
(40,228,o),
(91,285,o),
(143,285,cs),
(218,285,o),
(181,183,o),
(256,183,cs),
(280,183,o),
(296,200,o),
(296,222,cs),
(296,254,o),
(271,265,o),
(247,265,cs),
(191,265,o),
(152,221,o),
(152,157,cs),
(152,75,o),
(219,20,o),
(312,20,cs),
(398,20,o),
(453,78,o),
(453,150,cs),
(453,361,o),
(146,259,o),
(146,423,cs),
(146,474,o),
(194,532,o),
(288,532,cs),
(387,532,o),
(445,491,o),
(460,394,cs),
(460,393,o),
(460,391,o),
(460,390,cs),
(460,382,o),
(457,373,o),
(448,373,cs),
(442,373,o),
(436,376,o),
(434,387,cs),
(420,480,o),
(370,502,o),
(288,502,cs),
(227,502,o),
(177,467,o),
(177,423,cs),
(177,289,o),
(482,381,o),
(482,150,cs),
(482,59,o),
(425,-10,o),
(312,-10,cs),
(187,-10,o),
(123,62,o),
(123,157,cs),
(123,248,o),
(182,296,o),
(247,296,cs),
(288,296,o),
(327,270,o),
(327,222,cs),
(327,175,o),
(290,154,o),
(256,154,cs),
(167,154,o),
(189,258,o),
(143,258,cs),
(108,258,o),
(69,216,o),
(69,143,cs),
(69,73,o),
(98,19,o),
(146,19,cs),
(156,19,o),
(161,14,o),
(161,5,cs),
(161,-4,o),
(157,-8,o),
(146,-8,cs)
);
}
);
width = 538;
}
);
unicode = 70124;
}
{
glyphname = ArchaicForty;
layers = (
{
layerId = "F0029E70-666A-46B3-82F3-BCA8DA6C0FED";
shapes = (
{
closed = 1;
nodes = (
(143,68,o),
(186,0,o),
(278,0,cs),
(357,0,o),
(412,55,o),
(412,131,cs),
(412,210,o),
(362,264,o),
(298,264,cs),
(281,264,o),
(253,261,o),
(237,254,c),
(281,288,o),
(331,304,o),
(378,304,cs),
(414,304,o),
(470,287,o),
(488,258,cs),
(497,243,o),
(499,229,o),
(517,229,cs),
(531,229,o),
(536,241,o),
(535,260,cs),
(533,290,o),
(559,302,o),
(580,302,cs),
(609,302,o),
(643,264,o),
(643,172,cs),
(643,98,o),
(625,29,o),
(579,29,cs),
(546,29,o),
(526,49,o),
(526,78,cs),
(526,110,o),
(548,130,o),
(573,130,cs),
(612,130,o),
(623,99,o),
(632,62,c),
(638,75,o),
(649,88,o),
(652,99,c),
(646,138,o),
(612,162,o),
(573,162,cs),
(538,162,o),
(494,139,o),
(494,78,cs),
(494,33,o),
(527,-1,o),
(579,-1,cs),
(646,0,o),
(673,79,o),
(673,172,cs),
(673,300,o),
(617,331,o),
(579,331,cs),
(540,331,o),
(514,311,o),
(510,280,c),
(489,310,o),
(436,333,o),
(378,333,cs),
(317,333,o),
(267,315,o),
(213,273,c),
(219,311,o),
(191,331,o),
(154,330,cs),
(104,330,o),
(34,288,o),
(34,169,cs),
(34,67,o),
(83,0,o),
(138,0,cs),
(150,0,o),
(154,7,o),
(154,15,cs),
(154,24,o),
(148,30,o),
(138,30,cs),
(92,30,o),
(64,104,o),
(64,169,cs),
(64,253,o),
(119,300,o),
(154,300,cs),
(181,300,o),
(186,281,o),
(186,264,cs),
(186,251,o),
(182,244,o),
(172,233,cs),
(152,211,o),
(138,179,o),
(122,144,c)
);
},
{
closed = 1;
nodes = (
(165,167,o),
(183,201,o),
(201,216,cs),
(222,233,o),
(262,238,o),
(290,238,cs),
(346,238,o),
(383,197,o),
(383,131,cs),
(383,70,o),
(338,30,o),
(278,30,cs),
(192,30,o),
(159,106,o),
(152,144,c)
);
}
);
width = 681;
}
);
unicode = 70125;
}
{
glyphname = ArchaicFifty;
layers = (
{
layerId = "F0029E70-666A-46B3-82F3-BCA8DA6C0FED";
shapes = (
{
closed = 1;
nodes = (
(490,374,o),
(494,364,o),
(506,364,cs),
(516,364,o),
(520,373,o),
(520,385,cs),
(520,434,o),
(546,457,o),
(559,474,cs),
(562,479,o),
(564,483,o),
(564,488,cs),
(564,495,o),
(559,501,o),
(551,501,cs),
(546,501,o),
(539,498,o),
(533,490,cs),
(505,456,o),
(490,418,o),
(490,385,cs)
);
},
{
closed = 1;
nodes = (
(154,29,o),
(144,81,o),
(144,133,cs),
(144,204,o),
(196,268,o),
(263,268,cs),
(325,268,o),
(363,237,o),
(363,200,cs),
(363,153,o),
(325,132,o),
(325,81,cs),
(325,43,o),
(357,-1,o),
(432,-1,cs),
(496,-1,o),
(552,45,o),
(552,127,cs),
(552,363,o),
(201,309,o),
(201,442,cs),
(201,488,o),
(268,502,o),
(310,502,cs),
(419,502,o),
(482,446,o),
(490,381,cs),
(491,374,o),
(494,364,o),
(505,364,cs),
(516,364,o),
(519,373,o),
(519,379,cs),
(519,380,o),
(519,381,o),
(519,381,cs),
(513,461,o),
(433,532,o),
(310,532,cs),
(241,532,o),
(172,503,o),
(172,442,cs),
(172,274,o),
(522,346,o),
(522,127,cs),
(522,64,o),
(481,28,o),
(432,28,cs),
(370,28,o),
(360,62,o),
(360,81,cs),
(360,127,o),
(393,141,o),
(393,200,cs),
(393,257,o),
(342,298,o),
(263,298,cs),
(174,298,o),
(114,217,o),
(114,133,cs),
(114,60,o),
(141,-1,o),
(223,-1,cs),
(268,-1,o),
(301,32,o),
(301,73,cs),
(301,120,o),
(269,146,o),
(225,146,cs),
(225,146,ls),
(131,146,o),
(159,35,o),
(101,35,cs),
(65,35,o),
(46,68,o),
(46,122,cs),
(46,179,o),
(80,234,o),
(119,255,cs),
(128,260,o),
(133,266,o),
(133,273,cs),
(133,284,o),
(122,290,o),
(112,285,cs),
(73,267,o),
(17,207,o),
(17,122,cs),
(17,47,o),
(51,2,o),
(102,2,cs),
(177,2,o),
(154,117,o),
(225,117,cs),
(251,117,o),
(271,99,o),
(271,73,cs),
(271,46,o),
(247,29,o),
(223,29,cs)
);
}
);
width = 586;
}
);
unicode = 70126;
}
{
glyphname = ArchaicSixty;
layers = (
{
layerId = "F0029E70-666A-46B3-82F3-BCA8DA6C0FED";
shapes = (
{
closed = 1;
nodes = (
(489,15,o),
(494,8,o),
(502,8,cs),
(508,8,o),
(515,12,o),
(522,20,cs),
(552,57,o),
(586,60,o),
(606,66,cs),
(617,69,o),
(620,77,o),
(620,83,cs),
(620,90,o),
(615,96,o),
(604,96,cs),
(559,96,o),
(516,62,o),
(498,40,cs),
(493,33,o),
(489,27,o),
(489,21,cs)
);
},
{
closed = 1;
nodes = (
(601,296,o),
(589,335,o),
(548,335,cs),
(449,335,o),
(242,28,o),
(242,-96,cs),
(242,-154,o),
(262,-197,o),
(312,-197,cs),
(359,-197,o),
(382,-154,o),
(382,-94,cs),
(382,27,o),
(275,88,o),
(251,104,c),
(279,116,o),
(348,170,o),
(348,240,cs),
(348,306,o),
(316,336,o),
(251,336,cs),
(214,336,o),
(191,323,o),
(178,304,c),
(165,322,o),
(143,333,o),
(116,333,cs),
(48,333,o),
(17,283,o),
(17,196,cs),
(17,70,o),
(103,4,o),
(126,4,cs),
(134,4,o),
(140,8,o),
(140,17,cs),
(140,23,o),
(135,28,o),
(124,35,cs),
(116,39,o),
(48,100,o),
(48,194,cs),
(48,266,o),
(71,302,o),
(117,302,cs),
(144,302,o),
(162,279,o),
(162,250,cs),
(162,244,ls),
(162,229,o),
(166,220,o),
(178,220,cs),
(189,220,o),
(193,229,o),
(193,241,cs),
(193,250,ls),
(193,282,o),
(207,306,o),
(252,306,cs),
(294,306,o),
(316,290,o),
(316,240,cs),
(316,183,o),
(251,138,o),
(232,125,cs),
(227,121,o),
(221,115,o),
(221,106,cs),
(221,96,o),
(226,91,o),
(231,87,cs),
(264,59,o),
(351,4,o),
(351,-94,cs),
(351,-144,o),
(339,-167,o),
(312,-167,cs),
(288,-167,o),
(272,-143,o),
(272,-96,cs),
(272,20,o),
(469,305,o),
(548,305,cs),
(570,305,o),
(571,281,o),
(571,260,cs),
(571,206,o),
(523,101,o),
(493,35,cs),
(487,23,o),
(488,14,o),
(495,10,cs),
(503,6,o),
(515,10,o),
(520,22,cs),
(562,117,o),
(601,201,o),
(601,260,cs)
);
}
);
width = 642;
}
);
unicode = 70127;
}
{
glyphname = ArchaicSeventy;
layers = (
{
layerId = "F0029E70-666A-46B3-82F3-BCA8DA6C0FED";
shapes = (
{
closed = 1;
nodes = (
(848,43,o),
(829,32,o),
(807,32,cs),
(786,32,o),
(762,51,o),
(762,72,cs),
(762,91,o),
(773,114,o),
(807,114,cs),
(836,114,o),
(862,93,o),
(860,68,c)
);
},
{
closed = 1;
nodes = (
(351,107,o),
(395,9,o),
(395,-67,cs),
(395,-138,o),
(352,-168,o),
(312,-168,cs),
(270,-168,o),
(217,-142,o),
(217,-69,cs),
(217,-16,o),
(262,76,o),
(317,142,c)
);
},
{
closed = 1;
nodes = (
(491,285,o),
(496,265,o),
(503,252,c),
(467,252,o),
(417,223,o),
(417,144,cs),
(417,52,o),
(485,0,o),
(571,0,cs),
(634,0,o),
(697,41,o),
(697,106,cs),
(697,154,o),
(673,180,o),
(630,180,c),
(638,243,o),
(677,296,o),
(744,296,cs),
(808,296,o),
(875,259,o),
(875,151,cs),
(875,140,o),
(874,130,o),
(873,121,c),
(857,136,o),
(834,147,o),
(807,147,cs),
(766,147,o),
(728,117,o),
(728,72,cs),
(728,27,o),
(767,0,o),
(807,0,cs),
(840,0,o),
(867,15,o),
(884,46,c),
(896,52,o),
(904,38,o),
(904,21,cs),
(904,7,o),
(907,1,o),
(919,1,cs),
(924,1,o),
(926,4,o),
(930,5,cs),
(965,24,o),
(981,85,o),
(981,160,cs),
(981,260,o),
(940,308,o),
(906,325,cs),
(898,328,o),
(884,332,o),
(879,321,cs),
(875,312,o),
(882,306,o),
(890,301,cs),
(929,275,o),
(951,230,o),
(951,160,cs),
(951,131,o),
(949,75,o),
(929,43,c),
(924,57,o),
(914,72,o),
(897,77,c),
(903,98,o),
(906,122,o),
(906,151,cs),
(906,267,o),
(839,327,o),
(744,327,cs),
(658,327,o),
(599,256,o),
(599,170,cs),
(599,163,o),
(604,153,o),
(612,153,cs),
(619,153,o),
(625,153,o),
(631,153,cs),
(654,153,o),
(667,137,o),
(667,106,cs),
(667,75,o),
(633,30,o),
(571,30,cs),
(498,30,o),
(449,75,o),
(449,144,cs),
(449,210,o),
(483,228,o),
(514,228,cs),
(521,228,o),
(527,226,o),
(531,222,cs),
(536,217,o),
(545,217,o),
(551,221,cs),
(557,226,o),
(558,236,o),
(553,242,cs),
(549,247,o),
(538,254,o),
(528,269,cs),
(522,277,o),
(524,291,o),
(533,296,cs),
(544,302,o),
(555,292,o),
(562,283,cs),
(571,273,o),
(574,270,o),
(579,265,cs),
(585,259,o),
(593,258,o),
(600,262,cs),
(606,267,o),
(609,278,o),
(602,285,cs),
(586,300,o),
(573,316,o),
(545,327,cs),
(535,331,o),
(510,331,o),
(496,328,cs),
(442,315,o),
(377,247,o),
(360,228,c),
(365,286,o),
(335,336,o),
(271,336,cs),
(233,336,o),
(210,323,o),
(198,304,c),
(185,322,o),
(162,333,o),
(136,333,cs),
(67,333,o),
(19,265,o),
(19,177,cs),
(19,51,o),
(104,4,o),
(127,4,cs),
(135,4,o),
(141,8,o),
(141,17,cs),
(141,23,o),
(137,29,o),
(125,35,cs),
(117,39,o),
(49,81,o),
(49,175,cs),
(49,248,o),
(91,302,o),
(136,302,cs),
(164,302,o),
(182,279,o),
(182,250,cs),
(182,220,ls),
(182,204,o),
(186,195,o),
(198,195,cs),
(209,195,o),
(213,204,o),
(213,216,cs),
(213,250,ls),
(213,282,o),
(227,306,o),
(272,306,cs),
(314,306,o),
(335,263,o),
(333,221,cs),
(332,202,o),
(323,196,o),
(311,181,cs),
(240,91,o),
(186,1,o),
(186,-69,cs),
(186,-157,o),
(246,-198,o),
(312,-198,cs),
(378,-198,o),
(425,-146,o),
(425,-67,cs),
(425,22,o),
(368,135,o),
(336,165,c),
(389,222,o),
(452,288,o),
(500,298,c)
);
}
);
width = 1022;
}
);
unicode = 70128;
}
{
glyphname = ArchaicNinety;
layers = (
{
layerId = "F0029E70-666A-46B3-82F3-BCA8DA6C0FED";
shapes = (
{
closed = 1;
nodes = (
(412,-7,o),
(499,59,o),
(499,152,cs),
(499,207,o),
(468,251,o),
(407,254,c),
(412,259,o),
(422,274,o),
(422,285,cs),
(422,396,o),
(172,322,o),
(172,441,cs),
(172,475,o),
(207,503,o),
(264,503,cs),
(354,503,o),
(408,462,o),
(421,416,cs),
(423,408,o),
(420,395,o),
(420,386,cs),
(420,372,o),
(423,361,o),
(436,361,cs),
(446,361,o),
(450,372,o),
(451,386,cs),
(451,435,o),
(476,458,o),
(488,475,cs),
(492,480,o),
(494,484,o),
(494,488,cs),
(494,496,o),
(488,501,o),
(481,501,cs),
(475,501,o),
(468,498,o),
(462,491,cs),
(453,479,o),
(444,466,o),
(438,453,c),
(414,499,o),
(359,533,o),
(264,533,cs),
(188,533,o),
(140,494,o),
(140,441,cs),
(140,287,o),
(392,367,o),
(392,285,cs),
(392,265,o),
(373,262,o),
(358,247,cs),
(345,233,o),
(336,212,o),
(336,194,cs),
(336,157,o),
(370,130,o),
(370,119,cs),
(370,110,o),
(376,100,o),
(386,100,cs),
(398,100,o),
(402,107,o),
(402,119,cs),
(402,136,o),
(367,164,o),
(367,194,cs),
(367,215,o),
(377,234,o),
(398,234,cs),
(439,234,o),
(470,197,o),
(470,152,cs),
(470,78,o),
(398,22,o),
(302,22,cs),
(209,22,o),
(133,75,o),
(133,141,cs),
(133,206,o),
(173,233,o),
(199,221,cs),
(205,218,o),
(210,214,o),
(216,215,cs),
(224,216,o),
(228,222,o),
(228,229,cs),
(227,233,o),
(225,237,o),
(222,241,cs),
(207,258,o),
(193,267,o),
(191,275,cs),
(189,284,o),
(194,292,o),
(202,293,cs),
(206,294,o),
(210,291,o),
(215,286,cs),
(221,279,o),
(224,275,o),
(230,268,cs),
(235,263,o),
(239,261,o),
(243,261,cs),
(251,262,o),
(255,268,o),
(254,276,cs),
(254,279,o),
(253,282,o),
(252,284,cs),
(251,285,o),
(250,286,o),
(250,288,cs),
(243,300,o),
(232,309,o),
(218,316,cs),
(214,318,o),
(211,319,o),
(208,320,cs),
(140,341,o),
(26,298,o),
(26,141,cs),
(26,85,o),
(54,33,o),
(91,6,cs),
(100,0,o),
(110,0,o),
(115,7,cs),
(121,14,o),
(117,24,o),
(110,30,cs),
(78,57,o),
(56,86,o),
(56,141,cs),
(56,255,o),
(120,294,o),
(167,294,c),
(157,283,o),
(167,257,o),
(177,245,c),
(135,242,o),
(103,204,o),
(103,141,cs),
(103,52,o),
(188,-7,o),
(302,-7,cs)
);
}
);
width = 516;
}
);
unicode = 70130;
}
{
glyphname = ArchaicHundred;
layers = (
{
layerId = "F0029E70-666A-46B3-82F3-BCA8DA6C0FED";
shapes = (
{
closed = 1;
nodes = (
(833,25,ls),
(833,11,o),
(836,0,o),
(849,0,cs),
(859,0,o),
(864,10,o),
(864,25,cs),
(864,102,ls),
(864,183,o),
(869,228,o),
(904,288,cs),
(906,291,o),
(906,294,o),
(906,296,cs),
(906,304,o),
(899,311,o),
(891,311,cs),
(886,311,o),
(881,309,o),
(878,304,cs),
(867,288,o),
(854,256,o),
(843,209,c),
(833,102,l)
);
},
{
closed = 1;
nodes = (
(413,-196,o),
(551,-80,o),
(551,111,cs),
(551,222,o),
(507,332,o),
(435,332,cs),
(396,332,o),
(375,319,o),
(363,299,c),
(349,319,o),
(325,332,o),
(292,332,cs),
(253,332,o),
(231,319,o),
(219,300,c),
(204,318,o),
(179,329,o),
(147,329,cs),
(67,329,o),
(17,259,o),
(17,166,cs),
(17,63,o),
(73,0,o),
(130,0,cs),
(143,0,o),
(154,6,o),
(154,17,cs),
(154,27,o),
(146,31,o),
(131,31,cs),
(80,31,o),
(46,98,o),
(46,165,cs),
(46,243,o),
(90,299,o),
(148,299,cs),
(182,299,o),
(207,275,o),
(207,246,cs),
(207,173,ls),
(207,157,o),
(211,148,o),
(223,148,cs),
(235,148,o),
(239,157,o),
(239,169,cs),
(239,246,ls),
(239,278,o),
(248,302,o),
(293,302,cs),
(323,302,o),
(346,278,o),
(346,249,cs),
(346,172,ls),
(346,159,o),
(352,151,o),
(362,151,cs),
(373,151,o),
(378,159,o),
(378,172,cs),
(378,249,ls),
(378,278,o),
(399,302,o),
(434,302,cs),
(486,302,o),
(520,207,o),
(520,111,cs),
(520,-70,o),
(385,-165,o),
(291,-165,cs),
(211,-165,o),
(187,-133,o),
(187,-85,cs),
(187,-12,o),
(314,53,o),
(483,53,cs),
(642,53,o),
(779,-5,o),
(779,-85,cs),
(779,-128,o),
(759,-164,o),
(715,-164,cs),
(652,-164,o),
(605,-65,o),
(605,59,cs),
(605,184,o),
(671,295,o),
(731,295,cs),
(804,295,o),
(830,120,o),
(830,25,cs),
(830,9,o),
(835,0,o),
(848,0,cs),
(860,0,o),
(864,11,o),
(864,25,cs),
(864,128,o),
(840,330,o),
(731,330,cs),
(645,330,o),
(572,205,o),
(572,59,cs),
(572,-56,o),
(614,-195,o),
(715,-195,cs),
(779,-195,o),
(810,-156,o),
(810,-85,cs),
(810,18,o),
(656,83,o),
(483,83,cs),
(307,83,o),
(156,12,o),
(156,-85,cs),
(156,-155,o),
(198,-196,o),
(291,-196,cs)
);
}
);
width = 923;
}
);
unicode = 70131;
}
{
glyphname = ArchaicThousand;
layers = (
{
layerId = "F0029E70-666A-46B3-82F3-BCA8DA6C0FED";
shapes = (
{
closed = 1;
nodes = (
(668,309,o),
(673,311,o),
(677,311,cs),
(685,311,o),
(693,304,o),
(693,296,cs),
(693,294,o),
(692,291,o),
(690,288,cs),
(646,213,o),
(650,137,o),
(650,25,cs),
(650,10,o),
(646,1,o),
(636,1,cs),
(623,1,o),
(619,11,o),
(619,25,cs),
(619,176,o),
(628,253,o),
(664,304,cs)
);
},
{
closed = 1;
nodes = (
(222,-138,o),
(262,-170,o),
(311,-170,cs),
(354,-170,o),
(398,-154,o),
(399,-119,cs),
(399,-108,o),
(392,-102,o),
(394,-91,cs),
(395,-82,o),
(402,-77,o),
(409,-77,cs),
(419,-77,o),
(425,-80,o),
(435,-90,cs),
(449,-102,o),
(516,-135,o),
(527,-156,c),
(527,56,ls),
(526,244,o),
(511,302,o),
(438,302,cs),
(404,302,o),
(378,278,o),
(378,249,cs),
(378,172,ls),
(378,159,o),
(373,151,o),
(363,151,cs),
(352,151,o),
(346,158,o),
(346,172,cs),
(346,249,ls),
(346,278,o),
(323,302,o),
(293,302,cs),
(252,302,o),
(238,283,o),
(238,256,cs),
(238,221,o),
(239,198,o),
(239,169,cs),
(239,157,o),
(235,148,o),
(223,148,cs),
(214,148,o),
(207,156,o),
(207,169,cs),
(207,246,ls),
(207,275,o),
(182,299,o),
(148,299,cs),
(90,299,o),
(46,243,o),
(46,165,cs),
(46,98,o),
(77,30,o),
(131,30,cs),
(146,30,o),
(154,27,o),
(154,17,cs),
(154,6,o),
(143,0,o),
(130,0,cs),
(67,0,o),
(17,63,o),
(17,166,cs),
(17,259,o),
(67,329,o),
(147,329,cs),
(179,329,o),
(204,318,o),
(219,300,c),
(231,319,o),
(253,332,o),
(292,332,cs),
(325,332,o),
(349,319,o),
(363,299,c),
(378,319,o),
(404,332,o),
(439,332,cs),
(536,332,o),
(557,259,o),
(557,56,cs),
(557,-179,ls),
(557,-194,o),
(549,-199,o),
(538,-199,cs),
(530,-199,o),
(520,-198,o),
(512,-186,cs),
(489,-146,o),
(440,-132,o),
(425,-116,c),
(425,-120,o),
(426,-126,o),
(426,-129,cs),
(426,-169,o),
(383,-199,o),
(311,-199,cs),
(246,-199,o),
(192,-150,o),
(192,-80,cs),
(192,-6,o),
(246,62,o),
(336,62,cs),
(379,62,o),
(403,31,o),
(403,-3,cs),
(403,-33,o),
(375,-62,o),
(346,-62,cs),
(316,-62,o),
(285,-43,o),
(285,-2,cs),
(285,78,o),
(374,88,o),
(436,88,cs),
(515,88,o),
(604,48,o),
(641,27,cs),
(647,23,o),
(651,18,o),
(651,12,cs),
(651,0,o),
(635,-4,o),
(628,1,cs),
(593,23,o),
(504,59,o),
(436,59,cs),
(395,59,o),
(315,54,o),
(315,-2,cs),
(315,-23,o),
(335,-32,o),
(346,-32,cs),
(356,-32,o),
(372,-22,o),
(372,-3,cs),
(372,14,o),
(364,31,o),
(336,31,cs),
(264,31,o),
(222,-20,o),
(222,-80,cs)
);
}
);
width = 771;
}
);
unicode = 70132;
}
{
glyphname = notdef;
layers = (
{
layerId = "F0029E70-666A-46B3-82F3-BCA8DA6C0FED";
shapes = (
{
closed = 1;
nodes = (
(17,0,l),
(17,333,l),
(317,333,l),
(317,0,l)
);
},
{
closed = 1;
nodes = (
(54,37,l),
(279,37,l),
(279,296,l),
(54,296,l)
);
}
);
width = 333;
}
);
}
{
glyphname = sinAnusvara;
layers = (
{
layerId = "F0029E70-666A-46B3-82F3-BCA8DA6C0FED";
shapes = (
{
closed = 1;
nodes = (
(346,94,o),
(280,28,o),
(198,28,cs),
(118,28,o),
(52,94,o),
(52,176,cs),
(52,256,o),
(118,322,o),
(198,322,cs),
(280,322,o),
(346,256,o),
(346,176,cs)
);
},
{
closed = 1;
nodes = (
(97,117,o),
(143,73,o),
(198,73,cs),
(255,73,o),
(301,117,o),
(301,176,cs),
(301,231,o),
(255,278,o),
(198,278,cs),
(143,278,o),
(97,231,o),
(97,176,cs)
);
}
);
width = 406;
}
);
}
{
glyphname = sinB.virama;
layers = (
{
layerId = "F0029E70-666A-46B3-82F3-BCA8DA6C0FED";
shapes = (
{
closed = 1;
nodes = (
(419,351,o),
(302,459,o),
(141,459,cs),
(101,459,ls),
(87,459,o),
(67,454,o),
(54,454,cs),
(44,454,o),
(38,461,o),
(38,469,cs),
(38,475,o),
(43,483,o),
(53,485,cs),
(77,490,o),
(85,508,o),
(85,530,cs),
(85,551,o),
(74,569,o),
(56,569,cs),
(44,569,o),
(38,575,o),
(38,585,cs),
(38,593,o),
(44,600,o),
(60,600,cs),
(121,600,ls),
(203,600,o),
(308,555,o),
(335,431,c),
(402,377,o),
(449,294,o),
(449,180,c),
(449,48,o),
(380,-2,o),
(304,-2,cs),
(233,-2,o),
(204,42,o),
(204,80,cs),
(204,138,o),
(248,140,o),
(248,199,cs),
(248,244,o),
(204,273,o),
(157,273,cs),
(70,273,o),
(43,194,o),
(43,137,cs),
(43,127,o),
(43,118,o),
(45,110,c),
(50,123,o),
(71,147,o),
(104,147,cs),
(146,147,o),
(177,119,o),
(177,71,cs),
(177,33,o),
(151,-2,o),
(104,-2,cs),
(24,-2,o),
(17,91,o),
(17,137,cs),
(17,236,o),
(76,304,o),
(157,304,cs),
(220,304,o),
(277,260,o),
(277,199,cs),
(277,130,o),
(238,126,o),
(238,80,cs),
(238,61,o),
(248,27,o),
(304,27,cs),
(368,27,o),
(419,83,o),
(419,180,c)
);
},
{
closed = 1;
nodes = (
(192,490,o),
(250,475,o),
(300,451,c),
(283,504,o),
(226,571,o),
(121,571,cs),
(100,571,l),
(110,559,o),
(115,543,o),
(115,528,cs),
(115,515,o),
(112,500,o),
(101,490,c),
(141,490,ls)
);
},
{
closed = 1;
nodes = (
(61,48,o),
(81,28,o),
(104,28,cs),
(128,28,o),
(147,48,o),
(147,71,cs),
(147,96,o),
(128,114,o),
(104,114,cs),
(81,114,o),
(61,96,o),
(61,71,cs)
);
}
);
width = 466;
}
);
}
{
glyphname = sinBI;
layers = (
{
layerId = "F0029E70-666A-46B3-82F3-BCA8DA6C0FED";
shapes = (
{
closed = 1;
nodes = (
(62,546,o),
(133,602,o),
(235,602,cs),
(338,602,o),
(404,542,o),
(404,473,cs),
(404,409,o),
(346,379,o),
(304,379,cs),
(273,379,o),
(235,398,o),
(224,407,cs),
(215,414,o),
(209,423,o),
(209,430,cs),
(209,436,o),
(214,443,o),
(222,443,cs),
(228,443,o),
(235,440,o),
(238,436,cs),
(248,423,o),
(277,409,o),
(304,409,cs),
(344,409,o),
(376,433,o),
(376,473,cs),
(376,531,o),
(320,573,o),
(235,573,cs),
(169,573,o),
(91,552,o),
(91,464,cs),
(91,307,o),
(433,388,o),
(433,138,cs),
(433,46,o),
(369,0,o),
(304,0,cs),
(233,0,o),
(203,44,o),
(203,82,cs),
(203,140,o),
(248,143,o),
(248,201,cs),
(248,247,o),
(204,277,o),
(157,277,cs),
(70,277,o),
(43,197,o),
(43,140,cs),
(43,130,o),
(43,120,o),
(45,112,c),
(52,125,o),
(77,149,o),
(107,149,cs),
(141,149,o),
(175,117,o),
(175,73,cs),
(175,35,o),
(153,0,o),
(107,0,cs),
(20,0,o),
(17,94,o),
(17,140,cs),
(17,238,o),
(76,306,o),
(157,306,cs),
(220,306,o),
(277,262,o),
(277,201,cs),
(277,132,o),
(238,128,o),
(238,82,cs),
(238,64,o),
(248,30,o),
(304,30,cs),
(358,30,o),
(403,63,o),
(403,138,cs),
(403,360,o),
(62,281,o),
(62,464,cs)
);
},
{
closed = 1;
nodes = (
(60,50,o),
(83,30,o),
(107,30,cs),
(130,30,o),
(147,50,o),
(147,73,cs),
(147,98,o),
(130,117,o),
(107,117,cs),
(83,117,o),
(60,98,o),
(60,73,cs)
);
}
);
width = 449;
}
);
}
{
glyphname = sinBIi;
layers = (
{
layerId = "F0029E70-666A-46B3-82F3-BCA8DA6C0FED";
shapes = (
{
closed = 1;
nodes = (
(442,396,o),
(107,338,o),
(107,472,cs),
(107,543,o),
(167,570,o),
(248,570,cs),
(332,570,o),
(377,529,o),
(377,480,cs),
(377,438,o),
(352,419,o),
(313,414,cs),
(278,410,o),
(259,429,o),
(259,450,cs),
(259,470,o),
(274,486,o),
(296,486,cs),
(315,486,o),
(332,476,o),
(333,450,cs),
(333,430,o),
(320,414,o),
(296,414,c),
(305,401,o),
(315,399,o),
(326,394,c),
(343,397,o),
(362,427,o),
(362,450,cs),
(362,485,o),
(342,513,o),
(296,513,cs),
(271,513,o),
(231,501,o),
(231,450,cs),
(231,409,o),
(260,383,o),
(303,383,cs),
(351,383,o),
(406,414,o),
(406,480,cs),
(406,541,o),
(349,600,o),
(248,600,cs),
(138,600,o),
(77,545,o),
(77,472,cs),
(77,300,o),
(412,375,o),
(412,148,cs),
(412,64,o),
(371,30,o),
(317,30,cs),
(249,30,o),
(238,61,o),
(238,82,cs),
(238,128,o),
(277,138,o),
(277,201,cs),
(277,264,o),
(224,306,o),
(157,306,cs),
(76,306,o),
(17,238,o),
(17,140,cs),
(17,94,o),
(24,0,o),
(104,0,cs),
(151,0,o),
(177,35,o),
(177,73,cs),
(177,121,o),
(146,149,o),
(104,149,cs),
(71,149,o),
(50,126,o),
(45,112,c),
(44,120,o),
(44,129,o),
(44,140,cs),
(44,196,o),
(71,276,o),
(157,276,cs),
(204,276,o),
(247,247,o),
(247,201,cs),
(247,145,o),
(204,140,o),
(204,82,cs),
(204,44,o),
(236,0,o),
(317,0,cs),
(384,0,o),
(442,45,o),
(442,148,cs)
);
},
{
closed = 1;
nodes = (
(61,98,o),
(81,117,o),
(104,117,cs),
(128,117,o),
(147,98,o),
(147,73,cs),
(147,50,o),
(128,30,o),
(104,30,cs),
(81,30,o),
(61,50,o),
(61,73,cs)
);
}
);
width = 459;
}
);
}
{
glyphname = sinBR.virama;
layers = (
{
layerId = "F0029E70-666A-46B3-82F3-BCA8DA6C0FED";
shapes = (
{
closed = 1;
nodes = (
(409,-70,o),
(410,-40,o),
(407,-15,cs),
(406,-2,o),
(399,2,o),
(390,0,cs),
(381,-2,o),
(378,-10,o),
(380,-23,cs),
(381,-40,o),
(383,-69,o),
(373,-109,cs),
(354,-189,o),
(278,-239,o),
(193,-239,cs),
(183,-239,o),
(172,-238,o),
(160,-236,cs),
(149,-235,o),
(142,-237,o),
(140,-246,cs),
(138,-254,o),
(141,-262,o),
(154,-265,cs),
(164,-268,o),
(180,-268,o),
(191,-268,cs),
(293,-267,o),
(383,-205,o),
(402,-107,cs)
);
},
{
ref = sinB.virama;
}
);
width = 471;
}
);
}
{
glyphname = sinBU;
layers = (
{
layerId = "F0029E70-666A-46B3-82F3-BCA8DA6C0FED";
shapes = (
{
closed = 1;
nodes = (
(113,-39,o),
(117,-45,o),
(117,-53,cs),
(117,-56,o),
(117,-59,o),
(115,-61,cs),
(101,-94,o),
(91,-122,o),
(91,-152,cs),
(91,-209,o),
(117,-237,o),
(178,-237,cs),
(376,-237,ls),
(387,-237,o),
(391,-231,o),
(391,-218,cs),
(391,71,l),
(420,71,l),
(420,-245,ls),
(420,-259,o),
(410,-267,o),
(395,-267,cs),
(178,-267,ls),
(95,-267,o),
(62,-215,o),
(62,-153,cs),
(62,-119,o),
(70,-81,o),
(90,-49,cs),
(93,-42,o),
(100,-39,o),
(105,-39,cs)
);
},
{
ref = sinBa;
}
);
width = 465;
}
);
}
{
glyphname = sinBUu;
layers = (
{
layerId = "F0029E70-666A-46B3-82F3-BCA8DA6C0FED";
shapes = (
{
closed = 1;
nodes = (
(88,-207,o),
(123,-236,o),
(173,-236,cs),
(213,-236,o),
(249,-217,o),
(254,-172,cs),
(255,-161,o),
(255,-144,o),
(255,-132,cs),
(255,-123,o),
(262,-117,o),
(270,-117,cs),
(278,-117,o),
(285,-123,o),
(297,-136,cs),
(317,-156,o),
(361,-198,o),
(389,-223,c),
(389,65,l),
(419,65,l),
(419,-246,ls),
(419,-261,o),
(410,-267,o),
(399,-267,cs),
(392,-267,o),
(385,-262,o),
(375,-252,cs),
(340,-220,o),
(302,-185,o),
(282,-165,c),
(281,-177,o),
(278,-190,o),
(277,-198,cs),
(269,-230,o),
(233,-265,o),
(173,-265,cs),
(109,-265,o),
(59,-226,o),
(59,-150,cs),
(59,-113,o),
(71,-76,o),
(87,-44,cs),
(91,-38,o),
(96,-34,o),
(102,-34,cs),
(110,-34,o),
(115,-41,o),
(115,-49,cs),
(115,-51,o),
(114,-54,o),
(113,-57,cs),
(98,-87,o),
(88,-120,o),
(88,-150,cs)
);
},
{
ref = sinBa;
}
);
width = 465;
}
);
}
{
glyphname = sinBa.reph;
layers = (
{
layerId = "F0029E70-666A-46B3-82F3-BCA8DA6C0FED";
shapes = (
{
closed = 1;
nodes = (
(177,35,o),
(151,0,o),
(104,0,cs),
(24,0,o),
(17,94,o),
(17,140,cs),
(17,238,o),
(76,306,o),
(157,306,cs),
(220,306,o),
(277,262,o),
(277,201,cs),
(277,132,o),
(238,128,o),
(238,82,cs),
(238,64,o),
(248,30,o),
(304,30,cs),
(368,30,o),
(419,86,o),
(419,183,cs),
(419,346,o),
(309,483,o),
(162,483,cs),
(149,483,o),
(141,480,o),
(133,478,cs),
(130,477,o),
(128,476,o),
(125,476,cs),
(116,476,o),
(110,483,o),
(110,491,cs),
(110,496,o),
(114,503,o),
(123,506,cs),
(133,510,o),
(136,514,o),
(160,514,cs),
(322,514,o),
(449,364,o),
(449,183,cs),
(449,50,o),
(380,0,o),
(304,0,cs),
(233,0,o),
(204,44,o),
(204,82,cs),
(204,140,o),
(248,143,o),
(248,201,cs),
(248,247,o),
(204,276,o),
(157,276,cs),
(70,276,o),
(43,196,o),
(43,140,cs),
(43,129,o),
(43,120,o),
(45,112,c),
(50,126,o),
(71,149,o),
(104,149,cs),
(146,149,o),
(177,122,o),
(177,73,cs)
);
},
{
closed = 1;
nodes = (
(61,50,o),
(81,30,o),
(104,30,cs),
(128,30,o),
(147,50,o),
(147,73,cs),
(147,98,o),
(128,117,o),
(104,117,cs),
(81,117,o),
(61,98,o),
(61,73,cs)
);
},
{
closed = 1;
nodes = (
(221,390,o),
(172,360,o),
(126,360,cs),
(67,360,o),
(17,398,o),
(17,472,cs),
(17,548,o),
(76,600,o),
(164,600,cs),
(246,600,o),
(312,541,o),
(312,452,cs),
(312,429,o),
(309,406,o),
(299,378,cs),
(297,371,o),
(291,369,o),
(286,369,cs),
(278,369,o),
(271,373,o),
(271,383,cs),
(271,385,o),
(271,387,o),
(272,390,cs),
(280,412,o),
(283,433,o),
(283,452,cs),
(283,521,o),
(231,571,o),
(164,571,cs),
(96,571,o),
(46,533,o),
(46,472,cs),
(46,417,o),
(82,390,o),
(126,390,cs),
(159,390,o),
(192,410,o),
(192,442,cs),
(192,463,o),
(179,481,o),
(161,481,cs),
(151,481,o),
(146,480,o),
(141,477,c),
(146,473,o),
(149,467,o),
(149,460,cs),
(149,449,o),
(142,436,o),
(126,436,cs),
(109,436,o),
(96,449,o),
(96,467,cs),
(96,495,o),
(120,513,o),
(152,513,cs),
(194,513,o),
(221,483,o),
(221,442,cs)
);
}
);
width = 465;
}
);
}
{
glyphname = sinBh.virama;
layers = (
{
layerId = "F0029E70-666A-46B3-82F3-BCA8DA6C0FED";
shapes = (
{
closed = 1;
nodes = (
(380,531,o),
(380,484,o),
(380,436,cs),
(380,404,o),
(380,364,o),
(381,317,c),
(409,314,l),
(409,410,ls),
(409,465,l),
(422,456,o),
(438,448,o),
(459,448,cs),
(504,448,o),
(536,487,o),
(536,535,cs),
(536,574,o),
(509,591,o),
(487,591,cs),
(464,591,o),
(452,577,o),
(427,577,cs),
(420,577,o),
(415,578,o),
(410,581,c),
(410,592,o),
(406,600,o),
(396,600,cs),
(383,600,o),
(380,590,o),
(380,578,cs)
);
},
{
closed = 1;
nodes = (
(492,562,o),
(505,555,o),
(505,531,cs),
(505,500,o),
(486,477,o),
(456,477,cs),
(434,477,o),
(419,486,o),
(409,496,c),
(409,515,o),
(409,535,o),
(410,554,c),
(414,552,o),
(420,549,o),
(429,549,cs),
(449,549,o),
(459,562,o),
(478,562,cs)
);
},
{
ref = sinBha;
}
);
width = 553;
}
);
}
{
glyphname = sinBhAa;
layers = (
{
layerId = "F0029E70-666A-46B3-82F3-BCA8DA6C0FED";
shapes = (
{
closed = 1;
nodes = (
(280,327,o),
(233,271,o),
(219,174,cs),
(217,157,o),
(221,145,o),
(248,148,cs),
(273,151,o),
(284,134,o),
(284,100,cs),
(284,69,o),
(252,30,o),
(190,30,cs),
(129,30,o),
(63,64,o),
(63,139,cs),
(63,188,o),
(96,230,o),
(132,233,cs),
(145,234,o),
(162,230,o),
(170,228,cs),
(188,222,o),
(198,246,o),
(183,254,cs),
(173,260,o),
(165,261,o),
(158,263,cs),
(143,266,o),
(137,276,o),
(137,290,cs),
(137,299,o),
(145,306,o),
(155,306,cs),
(181,306,o),
(194,281,o),
(214,281,cs),
(233,281,o),
(233,311,o),
(215,311,cs),
(198,311,o),
(187,333,o),
(156,333,cs),
(125,333,o),
(109,314,o),
(109,294,cs),
(109,284,o),
(112,275,o),
(119,267,c),
(102,275,o),
(79,278,o),
(56,278,cs),
(45,278,o),
(34,277,o),
(22,276,cs),
(2,273,o),
(2,244,o),
(23,244,cs),
(41,244,o),
(51,251,o),
(75,251,cs),
(82,251,o),
(89,251,o),
(97,251,c),
(77,251,o),
(34,212,o),
(34,139,cs),
(34,42,o),
(117,0,o),
(190,0,cs),
(250,0,o),
(314,38,o),
(314,100,cs),
(314,143,o),
(293,175,o),
(257,175,cs),
(254,175,o),
(251,175,o),
(246,175,c),
(256,241,o),
(292,298,o),
(365,297,cs),
(401,297,o),
(433,280,o),
(443,257,cs),
(450,240,o),
(476,240,o),
(478,261,cs),
(480,283,o),
(506,298,o),
(523,298,cs),
(561,298,o),
(588,238,o),
(585,169,cs),
(582,91,o),
(535,32,o),
(467,32,cs),
(423,32,o),
(412,44,o),
(402,51,cs),
(379,65,o),
(367,39,o),
(385,27,cs),
(399,17,o),
(420,4,o),
(467,4,cs),
(545,2,o),
(611,66,o),
(614,168,cs),
(617,250,o),
(586,327,o),
(523,327,cs),
(497,327,o),
(468,310,o),
(457,288,c),
(444,307,o),
(411,327,o),
(365,327,cs)
);
}
);
width = 586;
}
);
}
{
glyphname = sinBhI;
layers = (
{
layerId = "F0029E70-666A-46B3-82F3-BCA8DA6C0FED";
shapes = (
{
closed = 1;
nodes = (
(369,321,o),
(363,326,o),
(353,326,cs),
(264,326,o),
(204,391,o),
(203,454,cs),
(202,519,o),
(252,571,o),
(313,571,cs),
(376,571,o),
(421,535,o),
(421,487,cs),
(421,439,o),
(392,420,o),
(368,420,cs),
(356,420,o),
(345,422,o),
(328,434,cs),
(325,435,o),
(323,437,o),
(319,437,cs),
(312,437,o),
(307,433,o),
(307,426,cs),
(307,422,o),
(309,418,o),
(311,415,cs),
(325,397,o),
(347,392,o),
(368,392,cs),
(404,392,o),
(450,416,o),
(450,487,cs),
(450,554,o),
(399,600,o),
(313,600,cs),
(243,600,o),
(175,540,o),
(176,454,cs),
(177,372,o),
(246,298,o),
(351,298,cs),
(364,298,o),
(369,304,o),
(369,310,cs)
);
},
{
ref = sinBha;
}
);
width = 519;
}
);
}
{
glyphname = sinBhIi;
layers = (
{
layerId = "F0029E70-666A-46B3-82F3-BCA8DA6C0FED";
shapes = (
{
closed = 1;
nodes = (
(372,317,o),
(364,326,o),
(353,326,cs),
(283,326,o),
(206,379,o),
(209,457,cs),
(212,534,o),
(266,571,o),
(324,571,cs),
(381,571,o),
(430,532,o),
(430,478,cs),
(430,437,o),
(397,418,o),
(397,418,cs),
(397,418,o),
(403,434,o),
(403,443,cs),
(403,473,o),
(379,501,o),
(342,501,cs),
(306,501,o),
(282,473,o),
(282,443,cs),
(282,398,o),
(313,379,o),
(353,379,cs),
(399,379,o),
(458,409,o),
(457,481,cs),
(457,561,o),
(399,600,o),
(324,600,cs),
(249,600,o),
(181,549,o),
(180,457,cs),
(179,369,o),
(263,296,o),
(353,296,cs),
(367,296,o),
(372,302,o),
(372,309,cs)
);
},
{
closed = 1;
nodes = (
(310,460,o),
(323,473,o),
(342,473,cs),
(362,473,o),
(375,460,o),
(375,441,cs),
(375,421,o),
(361,409,o),
(342,409,cs),
(323,409,o),
(310,421,o),
(310,441,cs)
);
},
{
ref = sinBha;
}
);
width = 519;
}
);
}
{
glyphname = sinBhR.virama;
layers = (
{
layerId = "F0029E70-666A-46B3-82F3-BCA8DA6C0FED";
shapes = (
{
closed = 1;
nodes = (
(380,590,o),
(383,600,o),
(396,600,cs),
(406,600,o),
(410,592,o),
(410,581,c),
(415,578,o),
(420,577,o),
(427,577,cs),
(452,577,o),
(464,591,o),
(487,591,cs),
(509,591,o),
(536,574,o),
(536,535,cs),
(536,487,o),
(504,448,o),
(459,448,cs),
(438,448,o),
(422,456,o),
(409,465,c),
(409,410,ls),
(409,314,l),
(381,317,l),
(380,364,o),
(380,404,o),
(380,436,cs),
(380,484,o),
(380,531,o),
(380,578,cs)
);
},
{
closed = 1;
nodes = (
(459,562,o),
(449,549,o),
(429,549,cs),
(420,549,o),
(414,552,o),
(410,554,c),
(409,535,o),
(409,515,o),
(409,496,c),
(419,486,o),
(434,477,o),
(456,477,cs),
(486,477,o),
(505,500,o),
(505,531,cs),
(505,555,o),
(492,562,o),
(478,562,cs)
);
},
{
closed = 1;
nodes = (
(469,-70,o),
(470,-40,o),
(467,-15,cs),
(466,-2,o),
(459,2,o),
(449,0,cs),
(441,-2,o),
(438,-10,o),
(440,-23,cs),
(441,-40,o),
(443,-69,o),
(433,-109,cs),
(414,-189,o),
(338,-239,o),
(253,-239,cs),
(243,-239,o),
(232,-238,o),
(220,-236,cs),
(209,-235,o),
(201,-237,o),
(199,-246,cs),
(198,-254,o),
(201,-262,o),
(214,-265,cs),
(224,-268,o),
(240,-268,o),
(251,-268,cs),
(353,-267,o),
(443,-205,o),
(462,-107,cs)
);
},
{
ref = sinBha;
}
);
width = 519;
}
);
}
{
glyphname = sinBhRIi;
layers = (
{
layerId = "F0029E70-666A-46B3-82F3-BCA8DA6C0FED";
shapes = (
{
closed = 1;
nodes = (
(469,-70,o),
(470,-40,o),
(467,-15,cs),
(466,-2,o),
(459,2,o),
(449,0,cs),
(441,-2,o),
(438,-10,o),
(440,-23,cs),
(441,-40,o),
(443,-69,o),
(433,-109,cs),
(414,-189,o),
(338,-239,o),
(253,-239,cs),
(243,-239,o),
(232,-238,o),
(220,-236,cs),
(209,-235,o),
(201,-237,o),
(199,-246,cs),
(198,-254,o),
(201,-262,o),
(214,-265,cs),
(224,-268,o),
(240,-268,o),
(251,-268,cs),
(353,-267,o),
(443,-205,o),
(462,-107,cs)
);
},
{
ref = sinBhIi;
}
);
width = 519;
}
);
}
{
glyphname = sinBhU;
layers = (
{
layerId = "F0029E70-666A-46B3-82F3-BCA8DA6C0FED";
shapes = (
{
closed = 1;
nodes = (
(457,19,o),
(508,66,o),
(508,161,cs),
(508,279,o),
(437,323,o),
(365,323,cs),
(281,323,o),
(218,272,o),
(218,166,cs),
(218,163,o),
(217,159,o),
(217,156,cs),
(217,150,o),
(220,146,o),
(227,146,cs),
(234,146,o),
(240,147,o),
(247,147,cs),
(273,147,o),
(284,132,o),
(284,99,cs),
(284,68,o),
(252,29,o),
(189,29,cs),
(129,29,o),
(79,69,o),
(79,143,cs),
(79,191,o),
(104,228,o),
(141,228,cs),
(169,228,o),
(165,222,o),
(185,222,cs),
(192,222,o),
(199,226,o),
(199,234,cs),
(199,244,o),
(197,249,o),
(183,254,cs),
(148,267,o),
(146,271,o),
(146,286,cs),
(146,296,o),
(156,302,o),
(167,302,cs),
(192,302,o),
(199,276,o),
(228,276,cs),
(236,276,o),
(240,283,o),
(240,290,cs),
(240,297,o),
(236,304,o),
(228,304,cs),
(207,304,o),
(197,329,o),
(165,329,cs),
(135,329,o),
(119,310,o),
(119,289,cs),
(119,279,o),
(122,271,o),
(128,262,c),
(111,271,o),
(88,274,o),
(66,274,cs),
(54,274,o),
(43,274,o),
(31,271,cs),
(21,269,o),
(17,262,o),
(17,255,cs),
(17,247,o),
(22,240,o),
(33,240,cs),
(50,240,o),
(60,247,o),
(84,247,cs),
(91,247,o),
(98,247,o),
(106,246,c),
(87,246,o),
(49,214,o),
(49,143,cs),
(49,47,o),
(117,0,o),
(189,0,cs),
(236,0,o),
(270,19,o),
(295,47,cs),
(309,63,o),
(313,82,o),
(313,99,cs),
(313,142,o),
(294,174,o),
(257,174,cs),
(254,174,o),
(251,174,o),
(246,174,c),
(256,239,o),
(297,293,o),
(365,293,cs),
(425,293,o),
(478,255,o),
(478,161,cs),
(478,76,o),
(441,44,o),
(389,31,cs),
(307,12,o),
(241,-46,o),
(241,-124,cs),
(241,-199,o),
(296,-267,o),
(380,-267,cs),
(423,-267,o),
(453,-245,o),
(476,-230,cs),
(482,-226,o),
(485,-220,o),
(485,-215,cs),
(485,-207,o),
(480,-199,o),
(473,-199,cs),
(469,-199,o),
(464,-201,o),
(459,-204,cs),
(438,-221,o),
(414,-238,o),
(380,-238,cs),
(310,-238,o),
(270,-187,o),
(270,-125,cs),
(270,-64,o),
(323,-14,o),
(389,2,cs)
);
}
);
width = 524;
}
);
}
{
glyphname = sinBhUu;
layers = (
{
layerId = "F0029E70-666A-46B3-82F3-BCA8DA6C0FED";
shapes = (
{
closed = 1;
nodes = (
(370,0,o),
(355,1,o),
(346,0,c),
(360,-5,o),
(377,-10,o),
(391,-13,cs),
(404,-15,o),
(410,-20,o),
(410,-30,cs),
(410,-39,o),
(406,-45,o),
(397,-46,cs),
(332,-53,o),
(264,-64,o),
(260,-140,cs),
(258,-187,o),
(301,-236,o),
(373,-236,cs),
(412,-236,o),
(439,-221,o),
(464,-205,cs),
(468,-202,o),
(473,-200,o),
(476,-200,cs),
(483,-200,o),
(489,-206,o),
(489,-212,cs),
(489,-218,o),
(485,-224,o),
(479,-229,cs),
(455,-245,o),
(424,-267,o),
(378,-267,cs),
(289,-267,o),
(224,-206,o),
(230,-141,cs),
(237,-71,o),
(291,-38,o),
(376,-30,c),
(376,-30,o),
(330,-14,o),
(308,-6,cs),
(301,-4,o),
(295,4,o),
(299,15,cs),
(302,25,o),
(314,26,o),
(323,25,cs),
(334,23,o),
(357,22,o),
(377,28,cs),
(428,41,o),
(478,73,o),
(478,161,cs),
(478,255,o),
(425,293,o),
(365,293,cs),
(297,293,o),
(256,239,o),
(246,174,c),
(251,174,o),
(254,174,o),
(257,174,cs),
(294,174,o),
(313,142,o),
(313,99,cs),
(313,82,o),
(309,63,o),
(295,47,cs),
(270,19,o),
(236,0,o),
(189,0,cs),
(117,0,o),
(49,47,o),
(49,143,cs),
(49,214,o),
(87,246,o),
(106,246,c),
(98,247,o),
(91,247,o),
(84,247,cs),
(63,247,o),
(51,243,o),
(38,240,c),
(33,240,ls),
(22,240,o),
(17,247,o),
(17,255,cs),
(17,262,o),
(21,269,o),
(31,271,cs),
(43,274,o),
(54,274,o),
(66,274,cs),
(88,274,o),
(111,271,o),
(128,262,c),
(122,271,o),
(119,279,o),
(119,289,cs),
(119,310,o),
(135,329,o),
(165,329,cs),
(197,329,o),
(207,304,o),
(228,304,cs),
(236,304,o),
(240,297,o),
(240,290,cs),
(240,283,o),
(236,276,o),
(228,276,cs),
(201,276,o),
(193,297,o),
(172,301,cs),
(171,302,o),
(169,302,o),
(167,302,cs),
(156,302,o),
(146,296,o),
(146,286,cs),
(146,271,o),
(148,267,o),
(183,254,cs),
(194,250,o),
(199,244,o),
(199,238,cs),
(199,234,ls),
(199,226,o),
(192,222,o),
(185,222,cs),
(183,222,o),
(181,222,o),
(180,223,cs),
(164,231,o),
(167,228,o),
(141,228,cs),
(104,228,o),
(79,191,o),
(79,143,cs),
(79,69,o),
(129,29,o),
(189,29,cs),
(252,29,o),
(284,68,o),
(284,99,cs),
(284,132,o),
(273,147,o),
(247,147,cs),
(242,147,o),
(237,146,o),
(233,146,cs),
(227,146,ls),
(220,146,o),
(217,150,o),
(217,156,cs),
(217,159,o),
(218,163,o),
(218,166,cs),
(218,272,o),
(281,323,o),
(365,323,cs),
(437,323,o),
(508,279,o),
(508,161,cs),
(508,67,o),
(452,19,o),
(385,4,cs)
);
}
);
width = 524;
}
);
}
{
glyphname = sinBha.reph;
layers = (
{
layerId = "F0029E70-666A-46B3-82F3-BCA8DA6C0FED";
shapes = (
{
closed = 1;
nodes = (
(338,390,o),
(290,360,o),
(243,360,cs),
(184,360,o),
(134,398,o),
(134,472,cs),
(134,548,o),
(193,600,o),
(281,600,cs),
(363,600,o),
(430,541,o),
(430,452,cs),
(430,429,o),
(426,406,o),
(416,378,cs),
(414,371,o),
(409,369,o),
(403,369,cs),
(396,369,o),
(388,373,o),
(388,383,cs),
(388,385,o),
(388,387,o),
(389,390,cs),
(397,412,o),
(401,433,o),
(401,452,cs),
(401,521,o),
(348,571,o),
(281,571,cs),
(214,571,o),
(164,533,o),
(164,472,cs),
(164,417,o),
(199,390,o),
(243,390,cs),
(276,390,o),
(309,410,o),
(309,442,cs),
(309,463,o),
(296,481,o),
(278,481,cs),
(269,481,o),
(263,480,o),
(259,477,c),
(264,473,o),
(267,467,o),
(267,460,cs),
(267,449,o),
(259,436,o),
(243,436,cs),
(226,436,o),
(214,449,o),
(214,467,cs),
(214,495,o),
(238,513,o),
(269,513,cs),
(312,513,o),
(338,483,o),
(338,442,cs)
);
},
{
ref = sinBha;
}
);
width = 519;
}
);
}
{
glyphname = sinC.virama;
layers = (
{
layerId = "F0029E70-666A-46B3-82F3-BCA8DA6C0FED";
shapes = (
{
closed = 1;
nodes = (
(200,230,o),
(193,225,o),
(185,225,cs),
(180,225,l),
(169,227,o),
(157,230,o),
(146,230,cs),
(143,230,l),
(106,228,o),
(80,191,o),
(80,144,cs),
(80,71,o),
(136,24,o),
(228,24,cs),
(343,24,o),
(398,126,o),
(398,214,c),
(394,413,o),
(290,472,o),
(174,472,cs),
(141,472,o),
(107,466,o),
(75,455,cs),
(72,454,o),
(69,454,o),
(67,454,cs),
(57,454,o),
(52,460,o),
(52,468,cs),
(52,475,o),
(56,480,o),
(64,483,cs),
(91,494,o),
(98,507,o),
(98,530,cs),
(98,548,o),
(86,562,o),
(65,562,cs),
(55,562,o),
(49,570,o),
(49,577,cs),
(49,585,o),
(57,594,o),
(73,594,cs),
(88,594,o),
(117,599,o),
(151,599,cs),
(215,599,o),
(296,578,o),
(334,452,c),
(388,407,o),
(428,322,o),
(428,214,cs),
(428,104,o),
(363,-6,o),
(228,-6,cs),
(119,-6,o),
(51,50,o),
(51,144,cs),
(51,215,o),
(89,245,o),
(107,248,c),
(99,249,o),
(91,249,o),
(85,249,cs),
(64,249,o),
(52,241,o),
(39,241,cs),
(36,241,o),
(35,241,o),
(33,241,cs),
(23,241,o),
(17,249,o),
(17,257,cs),
(17,275,o),
(46,276,o),
(67,276,cs),
(89,276,o),
(111,272,o),
(128,264,c),
(121,273,o),
(118,283,o),
(118,292,cs),
(118,312,o),
(134,330,o),
(164,330,cs),
(198,330,o),
(207,306,o),
(228,306,cs),
(236,306,o),
(240,299,o),
(240,291,cs),
(240,285,o),
(236,278,o),
(228,278,cs),
(201,278,o),
(193,304,o),
(172,304,cs),
(170,304,o),
(170,304,o),
(168,304,cs),
(157,304,o),
(148,297,o),
(148,287,cs),
(148,273,o),
(159,266,o),
(183,256,cs),
(194,252,o),
(200,246,o),
(200,239,cs)
);
},
{
closed = 1;
nodes = (
(216,501,o),
(259,489,o),
(299,468,c),
(281,512,o),
(234,568,o),
(156,568,cs),
(143,568,o),
(128,565,o),
(112,562,c),
(123,551,o),
(128,535,o),
(128,522,cs),
(128,514,o),
(127,505,o),
(122,498,c),
(140,501,o),
(156,501,o),
(172,501,cs)
);
}
);
width = 444;
}
);
}
{
glyphname = sinCIi;
layers = (
{
layerId = "F0029E70-666A-46B3-82F3-BCA8DA6C0FED";
shapes = (
{
closed = 1;
nodes = (
(402,364,o),
(85,341,o),
(100,479,cs),
(109,555,o),
(171,572,o),
(227,570,cs),
(311,567,o),
(351,530,o),
(351,479,cs),
(351,452,o),
(338,433,o),
(316,422,c),
(320,431,o),
(323,441,o),
(323,449,cs),
(323,483,o),
(304,510,o),
(256,510,cs),
(231,510,o),
(193,496,o),
(192,446,cs),
(191,411,o),
(231,378,o),
(276,381,cs),
(321,385,o),
(380,409,o),
(380,479,cs),
(380,540,o),
(330,598,o),
(228,600,cs),
(135,602,o),
(72,555,o),
(70,475,cs),
(68,312,o),
(367,349,o),
(376,173,cs),
(380,96,o),
(326,23,o),
(220,23,cs),
(128,23,o),
(72,70,o),
(72,143,cs),
(72,190,o),
(101,229,o),
(143,229,cs),
(146,229,ls),
(157,229,o),
(169,223,o),
(180,223,cs),
(185,223,ls),
(192,223,o),
(199,227,o),
(199,234,cs),
(199,236,o),
(200,237,o),
(200,238,cs),
(200,245,o),
(194,251,o),
(183,255,cs),
(159,264,o),
(148,272,o),
(148,286,cs),
(148,296,o),
(157,303,o),
(168,303,cs),
(170,303,o),
(170,303,o),
(172,302,cs),
(193,298,o),
(201,277,o),
(228,277,cs),
(236,277,o),
(240,283,o),
(240,290,cs),
(240,298,o),
(236,305,o),
(228,305,cs),
(207,305,o),
(198,329,o),
(164,329,cs),
(134,329,o),
(118,311,o),
(118,291,cs),
(118,281,o),
(121,272,o),
(128,263,c),
(111,271,o),
(89,275,o),
(67,275,cs),
(54,275,o),
(43,273,o),
(32,272,cs),
(22,270,o),
(17,262,o),
(17,256,cs),
(17,248,o),
(23,240,o),
(33,240,cs),
(35,240,o),
(36,240,o),
(39,240,cs),
(51,243,o),
(64,248,o),
(85,248,cs),
(91,248,o),
(99,248,o),
(107,246,c),
(86,244,o),
(43,214,o),
(43,143,cs),
(43,49,o),
(111,-7,o),
(220,-7,cs),
(346,-7,o),
(408,79,o),
(406,173,cs)
);
},
{
closed = 1;
nodes = (
(231,418,o),
(221,433,o),
(220,447,cs),
(219,467,o),
(237,483,o),
(257,483,cs),
(278,483,o),
(294,472,o),
(294,446,cs),
(294,427,o),
(274,409,o),
(252,412,cs),
(252,412,o),
(251,412,o),
(251,412,cs)
);
}
);
width = 423;
}
);
}
{
glyphname = sinCRI;
layers = (
{
layerId = "F0029E70-666A-46B3-82F3-BCA8DA6C0FED";
shapes = (
{
closed = 1;
nodes = (
(397,393,o),
(91,333,o),
(96,479,cs),
(99,556,o),
(167,572,o),
(223,570,cs),
(307,567,o),
(347,530,o),
(347,479,cs),
(347,436,o),
(306,407,o),
(262,408,cs),
(236,409,o),
(206,423,o),
(196,436,cs),
(193,440,o),
(179,445,o),
(173,440,cs),
(163,431,o),
(170,417,o),
(183,407,cs),
(194,398,o),
(231,378,o),
(263,378,cs),
(306,379,o),
(376,409,o),
(376,479,cs),
(376,540,o),
(327,598,o),
(225,600,cs),
(131,602,o),
(68,555,o),
(67,475,cs),
(64,311,o),
(367,377,o),
(367,172,cs),
(367,98,o),
(319,23,o),
(219,23,cs),
(128,23,o),
(72,70,o),
(72,143,cs),
(72,190,o),
(101,229,o),
(143,229,cs),
(146,229,ls),
(157,229,o),
(169,223,o),
(180,223,cs),
(185,223,ls),
(192,223,o),
(199,227,o),
(199,234,cs),
(199,236,o),
(200,237,o),
(200,238,cs),
(200,245,o),
(194,251,o),
(183,255,cs),
(159,264,o),
(148,272,o),
(148,286,cs),
(148,296,o),
(157,303,o),
(168,303,cs),
(170,303,o),
(170,303,o),
(172,302,cs),
(188,298,o),
(202,280,o),
(215,277,cs),
(223,276,o),
(230,277,o),
(232,281,cs),
(236,288,o),
(237,303,o),
(224,303,cs),
(206,303,o),
(190,329,o),
(164,329,cs),
(134,329,o),
(118,311,o),
(118,291,cs),
(118,281,o),
(121,272,o),
(128,263,c),
(111,271,o),
(89,275,o),
(67,275,cs),
(54,275,o),
(43,273,o),
(32,272,cs),
(22,270,o),
(17,262,o),
(17,256,cs),
(17,248,o),
(23,240,o),
(33,240,cs),
(35,240,o),
(36,240,o),
(39,240,cs),
(51,243,o),
(64,248,o),
(85,248,cs),
(91,248,o),
(99,248,o),
(107,246,c),
(86,244,o),
(43,214,o),
(43,143,cs),
(43,49,o),
(111,-7,o),
(220,-7,cs),
(340,-7,o),
(397,83,o),
(397,172,cs)
);
},
{
closed = 1;
nodes = (
(381,-70,o),
(381,-40,o),
(379,-15,cs),
(378,-2,o),
(371,2,o),
(361,0,cs),
(353,-2,o),
(350,-10,o),
(351,-23,cs),
(353,-40,o),
(355,-69,o),
(345,-109,cs),
(325,-189,o),
(249,-239,o),
(165,-239,cs),
(155,-239,o),
(144,-238,o),
(132,-236,cs),
(120,-235,o),
(113,-237,o),
(111,-246,cs),
(109,-254,o),
(112,-262,o),
(125,-265,cs),
(136,-268,o),
(152,-268,o),
(163,-268,cs),
(265,-267,o),
(354,-205,o),
(373,-107,cs)
);
}
);
width = 414;
}
);
}
{
glyphname = sinCRa;
layers = (
{
layerId = "F0029E70-666A-46B3-82F3-BCA8DA6C0FED";
shapes = (
{
closed = 1;
nodes = (
(381,-70,o),
(381,-40,o),
(379,-15,cs),
(378,-2,o),
(371,2,o),
(361,0,cs),
(353,-2,o),
(350,-10,o),
(351,-23,cs),
(353,-40,o),
(355,-69,o),
(345,-109,cs),
(325,-189,o),
(249,-239,o),
(165,-239,cs),
(155,-239,o),
(144,-238,o),
(132,-236,cs),
(120,-235,o),
(113,-237,o),
(111,-246,cs),
(109,-254,o),
(112,-262,o),
(125,-265,cs),
(136,-268,o),
(152,-268,o),
(163,-268,cs),
(265,-267,o),
(354,-205,o),
(373,-107,cs)
);
},
{
ref = sinCa;
}
);
width = 424;
}
);
}
{
glyphname = sinCU;
layers = (
{
layerId = "F0029E70-666A-46B3-82F3-BCA8DA6C0FED";
shapes = (
{
closed = 1;
nodes = (
(174,-266,ls),
(100,-266,o),
(64,-226,o),
(58,-169,cs),
(53,-120,o),
(67,-66,o),
(92,-16,cs),
(95,-10,o),
(101,-7,o),
(107,-7,cs),
(115,-7,o),
(122,-18,o),
(118,-28,cs),
(94,-78,o),
(82,-121,o),
(88,-169,cs),
(93,-215,o),
(119,-237,o),
(174,-237,cs),
(347,-237,ls),
(358,-237,o),
(362,-231,o),
(362,-218,cs),
(362,120,l),
(391,120,l),
(391,-245,ls),
(391,-259,o),
(380,-266,o),
(366,-266,cs)
);
},
{
ref = sinCa;
}
);
width = 424;
}
);
}
{
glyphname = sinCUu;
layers = (
{
layerId = "F0029E70-666A-46B3-82F3-BCA8DA6C0FED";
shapes = (
{
closed = 1;
nodes = (
(395,-261,o),
(387,-266,o),
(376,-266,cs),
(369,-266,o),
(358,-265,o),
(351,-253,cs),
(327,-213,o),
(274,-182,o),
(259,-165,c),
(259,-170,o),
(259,-175,o),
(259,-178,cs),
(259,-218,o),
(221,-266,o),
(149,-266,cs),
(94,-266,o),
(49,-227,o),
(41,-172,cs),
(34,-119,o),
(56,-61,o),
(81,-15,cs),
(84,-11,o),
(89,-8,o),
(93,-8,cs),
(101,-8,o),
(109,-14,o),
(109,-22,cs),
(109,-24,o),
(109,-26,o),
(108,-28,cs),
(79,-75,o),
(61,-122,o),
(71,-172,cs),
(78,-215,o),
(112,-237,o),
(149,-237,cs),
(192,-237,o),
(237,-212,o),
(237,-167,cs),
(237,-157,o),
(237,-141,o),
(237,-129,cs),
(237,-122,o),
(242,-117,o),
(249,-117,cs),
(257,-117,o),
(261,-125,o),
(273,-138,cs),
(286,-152,o),
(354,-202,o),
(365,-223,c),
(365,130,l),
(395,130,l),
(395,-246,ls)
);
},
{
ref = sinCa;
}
);
width = 424;
}
);
}
{
glyphname = sinCUu.reph;
layers = (
{
layerId = "F0029E70-666A-46B3-82F3-BCA8DA6C0FED";
shapes = (
{
closed = 1;
nodes = (
(89,276,o),
(111,272,o),
(128,264,c),
(121,273,o),
(118,283,o),
(118,292,cs),
(118,312,o),
(134,330,o),
(164,330,cs),
(198,330,o),
(207,306,o),
(228,306,cs),
(236,306,o),
(240,299,o),
(240,291,cs),
(240,285,o),
(236,278,o),
(228,278,cs),
(201,278,o),
(193,304,o),
(172,304,cs),
(170,304,o),
(170,304,o),
(168,304,cs),
(157,304,o),
(148,297,o),
(148,287,cs),
(148,273,o),
(159,266,o),
(183,256,cs),
(194,252,o),
(200,246,o),
(200,239,cs),
(200,238,o),
(200,237,o),
(199,235,cs),
(198,228,o),
(192,225,o),
(185,225,cs),
(180,225,l),
(169,227,o),
(157,230,o),
(146,230,cs),
(143,230,l),
(101,228,o),
(72,191,o),
(72,144,cs),
(72,71,o),
(128,24,o),
(220,24,cs),
(327,24,o),
(377,123,o),
(377,207,cs),
(377,387,o),
(263,486,o),
(159,481,cs),
(153,481,o),
(148,479,o),
(143,478,cs),
(141,477,o),
(139,477,o),
(136,477,cs),
(127,477,o),
(120,484,o),
(120,490,cs),
(120,496,o),
(123,502,o),
(133,505,cs),
(137,506,o),
(144,510,o),
(159,512,cs),
(279,523,o),
(407,393,o),
(407,207,cs),
(407,101,o),
(347,-6,o),
(220,-6,cs),
(111,-6,o),
(43,50,o),
(43,144,cs),
(43,215,o),
(86,245,o),
(107,248,c),
(99,249,o),
(91,249,o),
(85,249,cs),
(64,249,o),
(52,241,o),
(39,241,cs),
(36,241,o),
(35,241,o),
(33,241,cs),
(23,241,o),
(17,249,o),
(17,257,cs),
(17,275,o),
(46,276,o),
(67,276,cs)
);
},
{
closed = 1;
nodes = (
(231,389,o),
(182,359,o),
(136,359,cs),
(76,359,o),
(26,396,o),
(26,471,cs),
(26,547,o),
(86,599,o),
(174,599,cs),
(255,599,o),
(322,540,o),
(322,451,cs),
(322,428,o),
(318,404,o),
(308,377,cs),
(306,370,o),
(301,368,o),
(295,368,cs),
(288,368,o),
(281,372,o),
(281,381,cs),
(281,383,o),
(281,386,o),
(281,388,cs),
(289,411,o),
(293,432,o),
(293,451,cs),
(293,520,o),
(241,570,o),
(174,570,cs),
(106,570,o),
(56,532,o),
(56,471,cs),
(56,416,o),
(92,388,o),
(136,388,cs),
(168,388,o),
(202,409,o),
(202,441,cs),
(202,462,o),
(189,480,o),
(171,480,cs),
(161,480,o),
(155,478,o),
(151,476,c),
(156,472,o),
(159,466,o),
(159,459,cs),
(159,447,o),
(152,435,o),
(136,435,cs),
(118,435,o),
(106,448,o),
(106,466,cs),
(106,494,o),
(130,512,o),
(162,512,cs),
(204,512,o),
(231,482,o),
(231,441,cs)
);
},
{
closed = 1;
nodes = (
(395,-261,o),
(387,-266,o),
(376,-266,cs),
(369,-266,o),
(358,-265,o),
(351,-253,cs),
(327,-213,o),
(274,-182,o),
(259,-165,c),
(259,-170,o),
(259,-175,o),
(259,-178,cs),
(259,-218,o),
(221,-266,o),
(149,-266,cs),
(94,-266,o),
(49,-227,o),
(41,-172,cs),
(34,-119,o),
(56,-61,o),
(81,-15,cs),
(84,-11,o),
(89,-8,o),
(93,-8,cs),
(101,-8,o),
(109,-14,o),
(109,-22,cs),
(109,-24,o),
(109,-26,o),
(108,-28,cs),
(79,-75,o),
(61,-122,o),
(71,-172,cs),
(78,-215,o),
(112,-237,o),
(149,-237,cs),
(192,-237,o),
(237,-212,o),
(237,-167,cs),
(237,-157,o),
(237,-141,o),
(237,-129,cs),
(237,-122,o),
(242,-117,o),
(249,-117,cs),
(257,-117,o),
(261,-125,o),
(273,-138,cs),
(286,-152,o),
(354,-202,o),
(365,-223,c),
(365,130,l),
(395,130,l),
(395,-246,ls)
);
}
);
width = 424;
}
);
}
{
glyphname = sinCa.reph;
layers = (
{
layerId = "F0029E70-666A-46B3-82F3-BCA8DA6C0FED";
shapes = (
{
closed = 1;
nodes = (
(89,276,o),
(111,272,o),
(128,264,c),
(121,273,o),
(118,283,o),
(118,292,cs),
(118,312,o),
(134,330,o),
(164,330,cs),
(198,330,o),
(207,306,o),
(228,306,cs),
(236,306,o),
(240,299,o),
(240,291,cs),
(240,285,o),
(236,278,o),
(228,278,cs),
(201,278,o),
(193,304,o),
(172,304,cs),
(170,304,o),
(170,304,o),
(168,304,cs),
(157,304,o),
(148,297,o),
(148,287,cs),
(148,273,o),
(159,266,o),
(183,256,cs),
(194,252,o),
(200,246,o),
(200,239,cs),
(200,238,o),
(200,237,o),
(199,235,cs),
(198,228,o),
(192,225,o),
(185,225,cs),
(180,225,l),
(169,227,o),
(157,230,o),
(146,230,cs),
(143,230,l),
(101,228,o),
(72,191,o),
(72,144,cs),
(72,71,o),
(128,24,o),
(220,24,cs),
(327,24,o),
(377,123,o),
(377,207,cs),
(377,387,o),
(263,486,o),
(159,481,cs),
(153,481,o),
(148,479,o),
(143,478,cs),
(141,477,o),
(139,477,o),
(136,477,cs),
(127,477,o),
(120,484,o),
(120,490,cs),
(120,496,o),
(123,502,o),
(133,505,cs),
(137,506,o),
(144,510,o),
(159,512,cs),
(279,523,o),
(407,393,o),
(407,207,cs),
(407,101,o),
(347,-6,o),
(220,-6,cs),
(111,-6,o),
(43,50,o),
(43,144,cs),
(43,215,o),
(86,245,o),
(107,248,c),
(99,249,o),
(91,249,o),
(85,249,cs),
(64,249,o),
(52,241,o),
(39,241,cs),
(36,241,o),
(35,241,o),
(33,241,cs),
(23,241,o),
(17,249,o),
(17,257,cs),
(17,275,o),
(46,276,o),
(67,276,cs)
);
},
{
closed = 1;
nodes = (
(231,389,o),
(182,359,o),
(136,359,cs),
(76,359,o),
(26,396,o),
(26,471,cs),
(26,547,o),
(86,599,o),
(174,599,cs),
(255,599,o),
(322,540,o),
(322,451,cs),
(322,428,o),
(318,404,o),
(308,377,cs),
(306,370,o),
(301,368,o),
(295,368,cs),
(288,368,o),
(281,372,o),
(281,381,cs),
(281,383,o),
(281,386,o),
(281,388,cs),
(289,411,o),
(293,432,o),
(293,451,cs),
(293,520,o),
(241,570,o),
(174,570,cs),
(106,570,o),
(56,532,o),
(56,471,cs),
(56,416,o),
(92,388,o),
(136,388,cs),
(168,388,o),
(202,409,o),
(202,441,cs),
(202,462,o),
(189,480,o),
(171,480,cs),
(161,480,o),
(155,478,o),
(151,476,c),
(156,472,o),
(159,466,o),
(159,459,cs),
(159,447,o),
(152,435,o),
(136,435,cs),
(118,435,o),
(106,448,o),
(106,466,cs),
(106,494,o),
(130,512,o),
(162,512,cs),
(204,512,o),
(231,482,o),
(231,441,cs)
);
}
);
width = 424;
}
);
}
{
glyphname = sinChIi;
layers = (
{
layerId = "F0029E70-666A-46B3-82F3-BCA8DA6C0FED";
shapes = (
{
closed = 1;
nodes = (
(232,180,o),
(252,164,o),
(277,164,cs),
(298,164,o),
(317,177,o),
(317,199,cs),
(317,224,o),
(296,240,o),
(272,240,cs),
(251,240,o),
(232,227,o),
(232,204,cs)
);
},
{
closed = 1;
nodes = (
(165,402,o),
(196,414,o),
(196,448,cs),
(196,459,o),
(199,467,o),
(210,467,cs),
(223,467,o),
(225,456,o),
(225,448,cs),
(225,429,o),
(207,414,o),
(207,393,cs),
(207,341,o),
(332,364,o),
(332,301,cs),
(332,288,o),
(325,277,o),
(316,272,c),
(372,266,o),
(401,215,o),
(401,155,cs),
(401,52,o),
(322,-7,o),
(214,-7,cs),
(102,-7,o),
(17,49,o),
(17,143,cs),
(17,198,o),
(44,250,o),
(104,260,c),
(91,270,o),
(87,280,o),
(87,292,cs),
(87,313,o),
(104,335,o),
(132,335,cs),
(164,335,o),
(175,310,o),
(194,310,cs),
(202,310,o),
(207,303,o),
(207,296,cs),
(207,289,o),
(204,282,o),
(194,282,cs),
(165,282,o),
(159,309,o),
(134,309,cs),
(123,309,o),
(114,302,o),
(114,292,cs),
(114,277,o),
(124,268,o),
(149,259,cs),
(163,255,o),
(168,247,o),
(166,240,cs),
(164,234,o),
(160,231,o),
(152,231,cs),
(141,231,o),
(136,236,o),
(119,236,cs),
(74,236,o),
(46,190,o),
(46,143,cs),
(46,65,o),
(120,22,o),
(214,22,cs),
(306,22,o),
(372,68,o),
(372,154,cs),
(372,198,o),
(352,229,o),
(332,233,c),
(337,226,o),
(341,212,o),
(341,200,cs),
(341,165,o),
(314,140,o),
(277,140,cs),
(238,140,o),
(207,164,o),
(207,203,cs),
(207,244,o),
(234,261,o),
(264,270,cs),
(285,277,o),
(301,288,o),
(301,301,cs),
(301,333,o),
(191,332,o),
(179,382,c),
(168,377,o),
(154,373,o),
(141,373,cs),
(98,373,o),
(51,407,o),
(51,465,cs),
(51,549,o),
(127,599,o),
(214,599,cs),
(300,599,o),
(379,560,o),
(379,469,cs),
(379,435,o),
(362,378,o),
(309,378,cs),
(273,378,o),
(245,400,o),
(245,441,cs),
(245,471,o),
(270,499,o),
(306,499,cs),
(323,499,o),
(340,493,o),
(348,483,c),
(340,545,o),
(282,569,o),
(213,569,cs),
(153,569,o),
(82,533,o),
(82,465,cs),
(82,419,o),
(110,402,o),
(141,402,cs)
);
},
{
closed = 1;
nodes = (
(273,420,o),
(287,407,o),
(306,407,cs),
(326,407,o),
(341,419,o),
(341,440,cs),
(341,458,o),
(327,471,o),
(306,471,cs),
(287,471,o),
(273,458,o),
(273,440,cs)
);
}
);
width = 417;
}
);
}
{
glyphname = sinChR.virama;
layers = (
{
layerId = "F0029E70-666A-46B3-82F3-BCA8DA6C0FED";
shapes = (
{
closed = 1;
nodes = (
(405,208,o),
(380,235,o),
(359,254,cs),
(344,267,o),
(321,269,o),
(308,267,c),
(326,273,o),
(334,283,o),
(334,293,cs),
(334,330,o),
(249,334,o),
(249,368,cs),
(249,394,o),
(283,409,o),
(332,409,cs),
(345,409,o),
(351,417,o),
(351,427,cs),
(351,436,o),
(344,443,o),
(332,443,cs),
(264,443,o),
(219,416,o),
(219,369,cs),
(219,313,o),
(306,310,o),
(306,293,cs),
(306,284,o),
(288,279,o),
(268,272,cs),
(238,262,o),
(211,246,o),
(211,205,cs),
(211,166,o),
(242,141,o),
(281,141,cs),
(319,141,o),
(345,167,o),
(345,202,cs),
(345,215,o),
(341,231,o),
(326,241,c),
(357,232,o),
(376,204,o),
(376,152,cs),
(376,73,o),
(304,24,o),
(212,24,cs),
(119,24,o),
(46,73,o),
(46,151,cs),
(46,204,o),
(68,243,o),
(109,243,cs),
(114,243,ls),
(125,243,o),
(136,241,o),
(147,238,cs),
(149,237,o),
(150,236,o),
(152,236,cs),
(160,236,o),
(167,241,o),
(168,248,cs),
(169,257,o),
(165,263,o),
(150,269,cs),
(125,278,o),
(114,285,o),
(114,300,cs),
(114,310,o),
(123,317,o),
(135,317,cs),
(136,317,o),
(138,316,o),
(140,315,cs),
(160,311,o),
(162,296,o),
(189,296,cs),
(198,296,o),
(201,303,o),
(201,310,cs),
(201,317,o),
(197,324,o),
(189,324,cs),
(169,324,o),
(164,343,o),
(133,343,cs),
(104,343,o),
(88,321,o),
(88,300,cs),
(88,288,o),
(92,278,o),
(104,269,c),
(103,269,ls),
(48,269,o),
(17,214,o),
(17,151,cs),
(17,57,o),
(102,-6,o),
(212,-6,cs),
(321,-6,o),
(405,57,o),
(405,152,cs)
);
},
{
closed = 1;
nodes = (
(236,230,o),
(255,241,o),
(278,241,cs),
(302,241,o),
(322,224,o),
(322,202,cs),
(322,179,o),
(303,166,o),
(281,166,cs),
(256,166,o),
(236,182,o),
(236,206,cs)
);
},
{
closed = 1;
nodes = (
(218,531,o),
(218,484,o),
(218,436,cs),
(218,388,o),
(218,439,o),
(219,369,c),
(246,366,l),
(246,410,ls),
(246,477,l),
(259,468,o),
(275,460,o),
(297,460,cs),
(334,460,o),
(362,494,o),
(362,535,cs),
(362,574,o),
(335,591,o),
(312,591,cs),
(294,591,o),
(284,577,o),
(264,577,cs),
(258,577,o),
(253,578,o),
(248,581,c),
(248,592,o),
(243,600,o),
(233,600,cs),
(221,600,o),
(218,590,o),
(218,578,cs)
);
},
{
closed = 1;
nodes = (
(317,562,o),
(330,555,o),
(330,531,cs),
(330,507,o),
(316,489,o),
(293,489,cs),
(272,489,o),
(256,499,o),
(247,508,c),
(247,524,o),
(247,539,o),
(248,554,c),
(252,552,o),
(258,549,o),
(267,549,cs),
(281,549,o),
(289,562,o),
(304,562,cs)
);
},
{
closed = 1;
nodes = (
(376,-70,o),
(377,-40,o),
(374,-15,cs),
(373,-2,o),
(366,2,o),
(356,0,cs),
(348,-2,o),
(345,-10,o),
(346,-23,cs),
(348,-40,o),
(350,-69,o),
(340,-109,cs),
(320,-189,o),
(244,-239,o),
(160,-239,cs),
(150,-239,o),
(139,-238,o),
(127,-236,cs),
(115,-235,o),
(108,-237,o),
(106,-246,cs),
(104,-254,o),
(108,-262,o),
(120,-265,cs),
(131,-268,o),
(147,-268,o),
(158,-268,cs),
(260,-267,o),
(349,-205,o),
(369,-107,cs)
);
}
);
width = 422;
}
);
}
{
glyphname = sinChRI;
layers = (
{
layerId = "F0029E70-666A-46B3-82F3-BCA8DA6C0FED";
shapes = (
{
closed = 1;
nodes = (
(232,180,o),
(252,164,o),
(277,164,cs),
(299,164,o),
(317,177,o),
(317,200,cs),
(317,222,o),
(298,240,o),
(274,240,cs),
(251,240,o),
(232,228,o),
(232,204,cs)
);
},
{
closed = 1;
nodes = (
(333,406,o),
(342,436,o),
(342,457,cs),
(342,528,o),
(291,569,o),
(215,569,cs),
(146,569,o),
(82,528,o),
(82,464,cs),
(82,426,o),
(109,402,o),
(147,402,cs),
(185,402,o),
(208,413,o),
(208,448,cs),
(208,459,o),
(212,467,o),
(223,467,cs),
(235,467,o),
(238,456,o),
(238,447,cs),
(238,428,o),
(220,414,o),
(220,393,cs),
(220,341,o),
(332,364,o),
(332,301,cs),
(332,288,o),
(325,277,o),
(316,272,c),
(372,266,o),
(401,215,o),
(401,155,cs),
(401,52,o),
(322,-7,o),
(214,-7,cs),
(102,-7,o),
(17,49,o),
(17,143,cs),
(17,198,o),
(44,250,o),
(104,260,c),
(91,270,o),
(87,280,o),
(87,292,cs),
(87,313,o),
(104,335,o),
(132,335,cs),
(164,335,o),
(175,310,o),
(194,310,cs),
(202,310,o),
(207,303,o),
(207,296,cs),
(207,289,o),
(204,282,o),
(194,282,cs),
(165,282,o),
(159,309,o),
(134,309,cs),
(123,309,o),
(114,302,o),
(114,292,cs),
(114,276,o),
(124,268,o),
(149,259,cs),
(163,254,o),
(168,248,o),
(166,240,cs),
(164,233,o),
(161,230,o),
(154,230,cs),
(146,230,o),
(138,236,o),
(119,236,cs),
(117,236,o),
(115,235,o),
(113,235,cs),
(69,228,o),
(46,190,o),
(46,143,cs),
(46,65,o),
(120,22,o),
(214,22,cs),
(306,22,o),
(372,68,o),
(372,154,cs),
(372,198,o),
(352,229,o),
(332,233,c),
(337,226,o),
(341,212,o),
(341,200,cs),
(341,165,o),
(314,140,o),
(277,140,cs),
(238,140,o),
(207,164,o),
(207,203,cs),
(207,244,o),
(234,261,o),
(264,270,cs),
(285,277,o),
(301,288,o),
(301,301,cs),
(301,333,o),
(201,331,o),
(191,383,c),
(178,377,o),
(164,373,o),
(147,373,cs),
(95,373,o),
(51,414,o),
(51,465,cs),
(51,549,o),
(125,599,o),
(215,599,cs),
(302,599,o),
(373,551,o),
(373,456,cs),
(373,425,o),
(354,378,o),
(304,378,cs),
(286,378,o),
(270,386,o),
(260,400,cs),
(257,404,o),
(259,414,o),
(263,418,cs),
(270,425,o),
(279,420,o),
(281,416,cs),
(286,409,o),
(296,406,o),
(304,406,cs)
);
},
{
closed = 1;
nodes = (
(376,-70,o),
(377,-40,o),
(374,-15,cs),
(373,-2,o),
(366,2,o),
(356,0,cs),
(348,-2,o),
(345,-10,o),
(346,-23,cs),
(348,-40,o),
(350,-69,o),
(340,-109,cs),
(320,-189,o),
(244,-239,o),
(160,-239,cs),
(150,-239,o),
(139,-238,o),
(127,-236,cs),
(115,-235,o),
(108,-237,o),
(106,-246,cs),
(104,-254,o),
(108,-262,o),
(120,-265,cs),
(131,-268,o),
(147,-268,o),
(158,-268,cs),
(260,-267,o),
(349,-205,o),
(369,-107,cs)
);
}
);
width = 417;
}
);
}
